M48
; DRILL file {KiCad 9.0.7} date 2026-06-04T10:54:39-0600
; FORMAT={-:-/ absolute / metric / decimal}
; #@! TF.CreationDate,2026-06-04T10:54:39-06:00
; #@! TF.GenerationSoftware,Kicad,Pcbnew,9.0.7
; #@! TF.FileFunction,MixedPlating,1,2
FMAT,2
METRIC
; #@! TA.AperFunction,Plated,PTH,ComponentDrill
T1C0.800
; #@! TA.AperFunction,Plated,PTH,ComponentDrill
T2C1.000
; #@! TA.AperFunction,Plated,PTH,ComponentDrill
T3C1.100
; #@! TA.AperFunction,Plated,PTH,ComponentDrill
T4C1.300
; #@! TA.AperFunction,Plated,PTH,ComponentDrill
T5C1.500
; #@! TA.AperFunction,Plated,PTH,ComponentDrill
T6C1.600
; #@! TA.AperFunction,NonPlated,NPTH,ComponentDrill
T7C2.700
; #@! TA.AperFunction,NonPlated,NPTH,ComponentDrill
T8C3.200
%
G90
G05
T1
X76.759Y-132.233
X78.156Y-117.374
X80.656Y-117.374
X89.459Y-132.233
X98.578Y-116.586
X98.578Y-129.286
X103.236Y-114.122
X105.236Y-114.122
X118.059Y-104.775
X120.559Y-104.775
X123.139Y-87.784
X125.639Y-87.784
X126.441Y-107.315
X128.941Y-107.315
X132.146Y-76.175
X132.273Y-69.393
X132.308Y-87.656
X134.808Y-87.656
X137.146Y-76.175
X137.273Y-69.393
X143.002Y-105.055
X143.002Y-107.555
X154.167Y-104.039
X156.667Y-104.039
T2
X65.45Y-31.84
X65.45Y-34.38
X65.45Y-36.92
X65.45Y-39.46
X65.45Y-42.0
X65.45Y-44.54
X65.45Y-47.08
X65.45Y-49.62
X65.45Y-52.16
X65.45Y-54.7
X65.45Y-57.24
X65.45Y-59.78
X65.45Y-62.32
X65.45Y-64.86
X65.45Y-67.4
X65.45Y-69.94
X65.45Y-72.48
X65.45Y-75.02
X67.99Y-31.84
X67.99Y-34.38
X67.99Y-36.92
X67.99Y-39.46
X67.99Y-42.0
X67.99Y-44.54
X67.99Y-47.08
X67.99Y-49.62
X67.99Y-52.16
X67.99Y-54.7
X67.99Y-57.24
X67.99Y-59.78
X67.99Y-62.32
X67.99Y-64.86
X67.99Y-67.4
X67.99Y-69.94
X67.99Y-72.48
X67.99Y-75.02
X70.55Y-80.1
X73.09Y-80.1
X75.03Y-41.518
X75.03Y-44.058
X75.03Y-46.598
X75.03Y-49.138
X75.03Y-51.678
X75.03Y-54.218
X75.03Y-56.758
X75.03Y-59.298
X75.03Y-61.838
X75.63Y-31.84
X75.63Y-80.1
X78.17Y-31.84
X78.17Y-80.1
X78.25Y-74.773
X80.71Y-31.84
X80.71Y-80.1
X80.79Y-74.773
X83.25Y-31.84
X83.25Y-80.1
X83.33Y-74.773
X85.79Y-31.84
X85.79Y-80.1
X85.87Y-74.773
X88.33Y-31.84
X88.33Y-80.1
X88.41Y-74.773
X90.87Y-31.84
X93.41Y-31.84
X93.41Y-80.1
X95.95Y-80.1
X98.49Y-31.84
X98.49Y-80.1
X101.03Y-31.84
X101.03Y-80.1
X102.23Y-74.758
X103.57Y-31.84
X103.57Y-80.1
X104.77Y-74.758
X106.11Y-31.84
X106.11Y-80.1
X107.31Y-74.758
X108.65Y-31.84
X108.65Y-80.1
X109.85Y-74.758
X111.19Y-31.84
X111.19Y-80.1
X113.73Y-31.84
X114.19Y-93.37
X114.19Y-95.91
X114.19Y-98.45
X114.19Y-100.99
X116.27Y-31.84
X116.27Y-80.1
X118.81Y-80.1
X120.334Y-31.84
X121.35Y-80.1
X122.874Y-31.84
X123.89Y-80.1
X124.409Y-44.907
X124.409Y-47.447
X124.409Y-49.987
X124.409Y-52.527
X124.409Y-55.067
X124.409Y-57.607
X125.414Y-31.84
X126.43Y-80.1
X127.954Y-31.84
X128.97Y-80.1
X130.494Y-31.84
X130.963Y-134.468
X131.51Y-80.1
X133.034Y-31.84
X133.503Y-134.468
X134.05Y-80.1
X135.574Y-31.84
X135.916Y-122.581
X135.916Y-127.581
X136.043Y-134.468
X138.114Y-31.84
X140.654Y-31.84
X140.691Y-36.322
X142.64Y-72.266
X142.64Y-74.766
X142.64Y-77.266
X143.194Y-31.84
X143.231Y-36.322
X145.771Y-36.322
X148.311Y-36.322
X157.14Y-72.266
X157.14Y-77.266
T3
X84.354Y-116.789
X87.097Y-123.089
X89.637Y-123.089
X92.177Y-123.089
X92.304Y-132.182
X94.514Y-116.789
X102.464Y-132.182
X122.935Y-94.566
X122.935Y-97.106
X122.935Y-99.646
X132.319Y-94.387
X132.319Y-96.927
X132.319Y-99.467
X133.452Y-110.998
X135.992Y-110.998
X138.532Y-110.998
T4
X107.114Y-121.742
X129.614Y-121.742
T6
X66.701Y-124.13
X81.941Y-124.13
T7
X118.364Y-121.742
T8
X65.47Y-80.1
X71.82Y-31.84
X95.83Y-48.77
X95.95Y-75.02
X146.75Y-31.84
T2
G00X109.346Y-131.567
M15
G01X111.346Y-131.567
M16
G05
G00X109.346Y-137.567
M15
G01X111.346Y-137.567
M16
G05
G00X115.045Y-135.567
M15
G01X115.045Y-133.567
M16
G05
T5
G00X149.49Y-69.166
M15
G01X150.79Y-69.166
M16
G05
G00X149.49Y-80.366
M15
G01X150.79Y-80.366
M16
G05
M30
