%TF.GenerationSoftware,KiCad,Pcbnew,9.0.7*%
%TF.CreationDate,2026-05-21T17:42:17-06:00*%
%TF.ProjectId,planta_cd4066,706c616e-7461-45f6-9364-343036362e6b,rev?*%
%TF.SameCoordinates,Original*%
%TF.FileFunction,Copper,L2,Bot*%
%TF.FilePolarity,Positive*%
%FSLAX46Y46*%
G04 Gerber Fmt 4.6, Leading zero omitted, Abs format (unit mm)*
G04 Created by KiCad (PCBNEW 9.0.7) date 2026-05-21 17:42:17*
%MOMM*%
%LPD*%
G01*
G04 APERTURE LIST*
%TA.AperFunction,ComponentPad*%
%ADD10O,1.700000X3.000000*%
%TD*%
%TA.AperFunction,ComponentPad*%
%ADD11O,1.600000X3.000000*%
%TD*%
%TA.AperFunction,ComponentPad*%
%ADD12O,3.000000X1.600000*%
%TD*%
%TA.AperFunction,ComponentPad*%
%ADD13O,1.500000X3.000000*%
%TD*%
%TA.AperFunction,Conductor*%
%ADD14C,0.700000*%
%TD*%
%TA.AperFunction,Conductor*%
%ADD15C,0.250000*%
%TD*%
G04 APERTURE END LIST*
D10*
%TO.P,J1,1,Pin_1*%
%TO.N,Net-(J1-Pin_1)*%
X153570000Y-85950000D03*
%TO.P,J1,2,Pin_2*%
%TO.N,Net-(J1-Pin_2)*%
X156110000Y-85950000D03*
%TO.P,J1,3,Pin_3*%
%TO.N,Net-(J1-Pin_3)*%
X158650000Y-85950000D03*
%TO.P,J1,4,Pin_4*%
%TO.N,Net-(J1-Pin_4)*%
X161190000Y-85950000D03*
%TO.P,J1,5,Pin_5*%
%TO.N,Net-(J1-Pin_5)*%
X163730000Y-85950000D03*
%TO.P,J1,6,Pin_6*%
%TO.N,Net-(J1-Pin_6)*%
X166270000Y-85950000D03*
%TO.P,J1,7,Pin_7*%
%TO.N,GND*%
X168810000Y-85950000D03*
%TO.P,J1,8,Pin_8*%
%TO.N,Net-(J1-Pin_8)*%
X171350000Y-85950000D03*
%TO.P,J1,9,Pin_9*%
%TO.N,Net-(J1-Pin_9)*%
X173890000Y-85950000D03*
%TD*%
D11*
%TO.P,R2,1*%
%TO.N,Net-(R2-Pad1)*%
X162550000Y-68660000D03*
%TO.P,R2,2*%
%TO.N,Net-(J1-Pin_3)*%
X162550000Y-78820000D03*
%TD*%
%TO.P,R6,1*%
%TO.N,Net-(J1-Pin_6)*%
X175020000Y-69070000D03*
%TO.P,R6,2*%
%TO.N,GND*%
X175020000Y-79230000D03*
%TD*%
D12*
%TO.P,R1,1*%
%TO.N,Net-(J1-Pin_1)*%
X149470000Y-69240000D03*
%TO.P,R1,2*%
%TO.N,Net-(J1-Pin_2)*%
X159630000Y-69240000D03*
%TD*%
%TO.P,R3,1*%
%TO.N,Net-(R3-Pad1)*%
X157530000Y-52550000D03*
%TO.P,R3,2*%
%TO.N,Net-(J1-Pin_4)*%
X167690000Y-52550000D03*
%TD*%
D13*
%TO.P,U2,1*%
%TO.N,Net-(J1-Pin_2)*%
X157990000Y-64900000D03*
%TO.P,U2,2*%
%TO.N,Net-(R2-Pad1)*%
X160530000Y-64900000D03*
%TO.P,U2,3*%
%TO.N,Net-(R3-Pad1)*%
X163070000Y-64900000D03*
%TO.P,U2,4*%
%TO.N,Net-(J1-Pin_3)*%
X165610000Y-64900000D03*
%TO.P,U2,5*%
%TO.N,Net-(J1-Pin_5)*%
X168150000Y-64900000D03*
%TO.P,U2,6*%
%TO.N,Net-(J1-Pin_6)*%
X170690000Y-64900000D03*
%TO.P,U2,7,V_{SS}*%
%TO.N,GND*%
X173230000Y-64900000D03*
%TO.P,U2,8*%
%TO.N,Net-(J1-Pin_4)*%
X173230000Y-57280000D03*
%TO.P,U2,9*%
%TO.N,GND*%
X170690000Y-57280000D03*
%TO.P,U2,10*%
%TO.N,N/C*%
X168150000Y-57280000D03*
%TO.P,U2,11*%
X165610000Y-57280000D03*
%TO.P,U2,12*%
X163070000Y-57280000D03*
%TO.P,U2,13*%
%TO.N,Net-(J1-Pin_8)*%
X160530000Y-57280000D03*
%TO.P,U2,14,V_{DD}*%
%TO.N,Net-(J1-Pin_9)*%
X157990000Y-57280000D03*
%TD*%
D12*
%TO.P,R4,1*%
%TO.N,Net-(J1-Pin_8)*%
X157620000Y-48260000D03*
%TO.P,R4,2*%
%TO.N,GND*%
X167780000Y-48260000D03*
%TD*%
D11*
%TO.P,C1,1*%
%TO.N,Net-(J1-Pin_2)*%
X158550000Y-72240000D03*
%TO.P,C1,2*%
%TO.N,GND*%
X158550000Y-77240000D03*
%TD*%
%TO.P,C3,1*%
%TO.N,Net-(J1-Pin_4)*%
X173990000Y-52470000D03*
%TO.P,C3,2*%
%TO.N,GND*%
X173990000Y-47470000D03*
%TD*%
D12*
%TO.P,C2,1*%
%TO.N,Net-(J1-Pin_3)*%
X162050000Y-81740000D03*
%TO.P,C2,2*%
%TO.N,GND*%
X157050000Y-81740000D03*
%TD*%
D11*
%TO.P,R5,1*%
%TO.N,Net-(J1-Pin_5)*%
X170020000Y-69050000D03*
%TO.P,R5,2*%
%TO.N,GND*%
X170020000Y-79210000D03*
%TD*%
D14*
%TO.N,Net-(J1-Pin_9)*%
X173890000Y-85950000D02*
X176708000Y-83132000D01*
X173507600Y-59893400D02*
X159903400Y-59893400D01*
X176708000Y-63093800D02*
X173507600Y-59893400D01*
X157990000Y-57980000D02*
X157990000Y-57280000D01*
X159903400Y-59893400D02*
X157990000Y-57980000D01*
X176708000Y-83132000D02*
X176708000Y-63093800D01*
%TO.N,Net-(J1-Pin_8)*%
X157620000Y-48260000D02*
X160530000Y-51170000D01*
X160530000Y-51170000D02*
X160530000Y-57280000D01*
%TO.N,Net-(J1-Pin_1)*%
X149050000Y-69660000D02*
X149470000Y-69240000D01*
X149050000Y-81430000D02*
X149050000Y-69660000D01*
X153570000Y-85950000D02*
X149050000Y-81430000D01*
%TO.N,Net-(J1-Pin_3)*%
X162550000Y-78820000D02*
X162550000Y-81240000D01*
X158650000Y-85140000D02*
X158650000Y-85950000D01*
X162050000Y-81740000D02*
X158650000Y-85140000D01*
X162550000Y-78820000D02*
X165610000Y-75760000D01*
X165610000Y-75760000D02*
X165610000Y-64900000D01*
X162550000Y-81240000D02*
X162050000Y-81740000D01*
%TO.N,Net-(J1-Pin_6)*%
X172330000Y-74289397D02*
X166270000Y-80349397D01*
X172313800Y-67766200D02*
X172330000Y-67750000D01*
X172330000Y-67750000D02*
X172330000Y-74289397D01*
X173616400Y-69070000D02*
X172313800Y-67767400D01*
X170690000Y-64900000D02*
X170690000Y-66110000D01*
X170690000Y-66110000D02*
X172330000Y-67750000D01*
X166270000Y-80349397D02*
X166270000Y-85950000D01*
X170690000Y-64900000D02*
X170690000Y-66150000D01*
X175020000Y-69070000D02*
X173616400Y-69070000D01*
X172313800Y-67767400D02*
X172313800Y-67766200D01*
%TO.N,Net-(J1-Pin_4)*%
X161190000Y-85210603D02*
X161190000Y-85950000D01*
X173230000Y-53230000D02*
X173990000Y-52470000D01*
X177780000Y-61830000D02*
X177780000Y-86620000D01*
D15*
X173920000Y-52470000D02*
X173990000Y-52470000D01*
D14*
X173230000Y-57280000D02*
X177780000Y-61830000D01*
X161190000Y-86850000D02*
X161190000Y-85950000D01*
X162681400Y-88341400D02*
X161190000Y-86850000D01*
X177780000Y-86620000D02*
X176058600Y-88341400D01*
X176058600Y-88341400D02*
X162681400Y-88341400D01*
X167690000Y-52550000D02*
X173910000Y-52550000D01*
X173910000Y-52550000D02*
X173990000Y-52470000D01*
X173230000Y-57280000D02*
X173230000Y-53230000D01*
%TO.N,Net-(J1-Pin_5)*%
X164101000Y-79839000D02*
X164101000Y-85579000D01*
X164101000Y-85579000D02*
X163730000Y-85950000D01*
X170020000Y-73920000D02*
X164101000Y-79839000D01*
X168150000Y-64900000D02*
X168150000Y-67180000D01*
X168150000Y-67180000D02*
X170020000Y-69050000D01*
X170020000Y-69050000D02*
X170020000Y-73920000D01*
%TO.N,Net-(R2-Pad1)*%
X160530000Y-66640000D02*
X162550000Y-68660000D01*
X160530000Y-64900000D02*
X160530000Y-66640000D01*
%TO.N,Net-(R3-Pad1)*%
X155090000Y-59890000D02*
X157410000Y-62210000D01*
X157410000Y-62210000D02*
X161090000Y-62210000D01*
X157530000Y-52550000D02*
X155090000Y-54990000D01*
X163070000Y-64190000D02*
X163070000Y-64900000D01*
X155090000Y-54990000D02*
X155090000Y-59890000D01*
X161090000Y-62210000D02*
X163070000Y-64190000D01*
%TO.N,Net-(J1-Pin_2)*%
X157990000Y-64900000D02*
X157990000Y-67600000D01*
X156110000Y-85950000D02*
X155000000Y-84840000D01*
X155000000Y-84840000D02*
X155000000Y-75790000D01*
X158550000Y-70320000D02*
X159630000Y-69240000D01*
X157990000Y-67600000D02*
X159630000Y-69240000D01*
X158550000Y-72240000D02*
X158550000Y-70320000D01*
X155000000Y-75790000D02*
X158550000Y-72240000D01*
%TD*%
M02*
