M48
; DRILL file {KiCad 9.0.7} date 2026-05-21T17:42:08-0600
; FORMAT={-:-/ absolute / metric / decimal}
; #@! TF.CreationDate,2026-05-21T17:42:08-06:00
; #@! TF.GenerationSoftware,Kicad,Pcbnew,9.0.7
; #@! TF.FileFunction,MixedPlating,1,2
FMAT,2
METRIC
; #@! TA.AperFunction,Plated,PTH,ComponentDrill
T1C0.800
; #@! TA.AperFunction,Plated,PTH,ComponentDrill
T2C1.000
%
G90
G05
T1
X149.47Y-69.24
X157.05Y-81.74
X157.53Y-52.55
X157.62Y-48.26
X157.99Y-57.28
X157.99Y-64.9
X158.55Y-72.24
X158.55Y-77.24
X159.63Y-69.24
X160.53Y-57.28
X160.53Y-64.9
X162.05Y-81.74
X162.55Y-68.66
X162.55Y-78.82
X163.07Y-57.28
X163.07Y-64.9
X165.61Y-57.28
X165.61Y-64.9
X167.69Y-52.55
X167.78Y-48.26
X168.15Y-57.28
X168.15Y-64.9
X170.02Y-69.05
X170.02Y-79.21
X170.69Y-57.28
X170.69Y-64.9
X173.23Y-57.28
X173.23Y-64.9
X173.99Y-47.47
X173.99Y-52.47
X175.02Y-69.07
X175.02Y-79.23
T2
X153.57Y-85.95
X156.11Y-85.95
X158.65Y-85.95
X161.19Y-85.95
X163.73Y-85.95
X166.27Y-85.95
X168.81Y-85.95
X171.35Y-85.95
X173.89Y-85.95
M30
