G04 #@! TF.GenerationSoftware,KiCad,Pcbnew,9.0.7*
G04 #@! TF.CreationDate,2026-05-21T19:17:45-06:00*
G04 #@! TF.ProjectId,Planta_Motor,506c616e-7461-45f4-9d6f-746f722e6b69,rev?*
G04 #@! TF.SameCoordinates,Original*
G04 #@! TF.FileFunction,Copper,L1,Top*
G04 #@! TF.FilePolarity,Positive*
%FSLAX46Y46*%
G04 Gerber Fmt 4.6, Leading zero omitted, Abs format (unit mm)*
G04 Created by KiCad (PCBNEW 9.0.7) date 2026-05-21 19:17:45*
%MOMM*%
%LPD*%
G01*
G04 APERTURE LIST*
G04 #@! TA.AperFunction,ComponentPad*
%ADD10O,3.000000X1.600000*%
G04 #@! TD*
G04 #@! TA.AperFunction,ComponentPad*
%ADD11O,1.600000X3.000000*%
G04 #@! TD*
G04 #@! TA.AperFunction,Conductor*
%ADD12C,0.200000*%
G04 #@! TD*
G04 #@! TA.AperFunction,Conductor*
%ADD13C,0.700000*%
G04 #@! TD*
G04 APERTURE END LIST*
D10*
G04 #@! TO.P,D7,1,K*
G04 #@! TO.N,12V*
X134535000Y-90460000D03*
G04 #@! TO.P,D7,2,A*
G04 #@! TO.N,/Drain*
X134535000Y-100620000D03*
G04 #@! TD*
D11*
G04 #@! TO.P,R11,1*
G04 #@! TO.N,/PWM*
X121535000Y-97960000D03*
G04 #@! TO.P,R11,2*
G04 #@! TO.N,GND*
X121535000Y-108120000D03*
G04 #@! TD*
D10*
G04 #@! TO.P,Q1,2,G*
G04 #@! TO.N,/PWM*
X127585000Y-103040000D03*
G04 #@! TO.P,Q1,3,S*
G04 #@! TO.N,GND*
X127585000Y-105580000D03*
G04 #@! TO.P,Q1,e,D*
G04 #@! TO.N,/Drain*
X127585000Y-100500000D03*
G04 #@! TD*
G04 #@! TO.P,J2,1,Pin_1*
G04 #@! TO.N,/Drain*
X140985000Y-96330000D03*
G04 #@! TO.P,J2,2,Pin_2*
G04 #@! TO.N,GND*
X140985000Y-98830000D03*
G04 #@! TO.P,J2,3,Pin_3*
G04 #@! TO.N,/ENCODER_A*
X140985000Y-101330000D03*
G04 #@! TO.P,J2,4,Pin_4*
G04 #@! TO.N,/ENCODER_B*
X140985000Y-103830000D03*
G04 #@! TO.P,J2,5,Pin_5*
G04 #@! TO.N,/5V*
X140985000Y-106330000D03*
G04 #@! TO.P,J2,6,Pin_6*
G04 #@! TO.N,12V*
X140985000Y-108830000D03*
G04 #@! TD*
G04 #@! TO.P,J1,1,Pin_1*
G04 #@! TO.N,/PWM*
X114035000Y-98420000D03*
G04 #@! TO.P,J1,2,Pin_2*
G04 #@! TO.N,GND*
X114035000Y-100960000D03*
G04 #@! TO.P,J1,3,Pin_3*
G04 #@! TO.N,/ENCODER_A*
X114035000Y-103500000D03*
G04 #@! TO.P,J1,4,Pin_4*
G04 #@! TO.N,/ENCODER_B*
X114035000Y-106040000D03*
G04 #@! TO.P,J1,5,Pin_5*
G04 #@! TO.N,/5V*
X114035000Y-108580000D03*
G04 #@! TO.P,J1,6,Pin_6*
G04 #@! TO.N,12V*
X114035000Y-111120000D03*
G04 #@! TD*
D12*
G04 #@! TO.N,12V*
X114035000Y-111120000D02*
X114455000Y-111540000D01*
G04 #@! TO.N,/PWM*
X121075000Y-98420000D02*
X121535000Y-97960000D01*
D13*
X126615000Y-103040000D02*
X127585000Y-103040000D01*
G04 #@! TO.N,GND*
X121195000Y-108120000D02*
X121535000Y-108120000D01*
D12*
G04 #@! TO.N,/Drain*
X134415000Y-100500000D02*
X134535000Y-100620000D01*
G04 #@! TD*
G04 #@! TA.AperFunction,Conductor*
G04 #@! TO.N,GND*
G36*
X133669971Y-88950185D02*
G01*
X133715726Y-89002989D01*
X133725670Y-89072147D01*
X133696645Y-89135703D01*
X133637867Y-89173477D01*
X133622330Y-89176973D01*
X133530465Y-89191522D01*
X133335776Y-89254781D01*
X133153386Y-89347715D01*
X132987786Y-89468028D01*
X132843028Y-89612786D01*
X132722715Y-89778386D01*
X132629781Y-89960776D01*
X132566522Y-90155465D01*
X132534500Y-90357648D01*
X132534500Y-90562351D01*
X132566522Y-90764534D01*
X132629781Y-90959223D01*
X132722715Y-91141613D01*
X132843028Y-91307213D01*
X132987786Y-91451971D01*
X133142749Y-91564556D01*
X133153390Y-91572287D01*
X133269607Y-91631503D01*
X133335776Y-91665218D01*
X133335778Y-91665218D01*
X133335781Y-91665220D01*
X133440137Y-91699127D01*
X133530465Y-91728477D01*
X133631557Y-91744488D01*
X133732648Y-91760500D01*
X133732649Y-91760500D01*
X135337351Y-91760500D01*
X135337352Y-91760500D01*
X135539534Y-91728477D01*
X135734219Y-91665220D01*
X135916610Y-91572287D01*
X136009590Y-91504732D01*
X136082213Y-91451971D01*
X136082215Y-91451968D01*
X136082219Y-91451966D01*
X136226966Y-91307219D01*
X136226968Y-91307215D01*
X136226971Y-91307213D01*
X136279732Y-91234590D01*
X136347287Y-91141610D01*
X136440220Y-90959219D01*
X136503477Y-90764534D01*
X136535500Y-90562352D01*
X136535500Y-90357648D01*
X136503477Y-90155466D01*
X136440220Y-89960781D01*
X136440218Y-89960778D01*
X136440218Y-89960776D01*
X136406503Y-89894607D01*
X136347287Y-89778390D01*
X136339556Y-89767749D01*
X136226971Y-89612786D01*
X136082213Y-89468028D01*
X135916613Y-89347715D01*
X135916612Y-89347714D01*
X135916610Y-89347713D01*
X135859653Y-89318691D01*
X135734223Y-89254781D01*
X135539534Y-89191522D01*
X135447670Y-89176973D01*
X135384535Y-89147044D01*
X135347604Y-89087732D01*
X135348602Y-89017870D01*
X135387212Y-88959637D01*
X135451175Y-88931523D01*
X135467068Y-88930500D01*
X143992876Y-88930500D01*
X144059915Y-88950185D01*
X144105670Y-89002989D01*
X144116874Y-89055019D01*
X144023913Y-111222351D01*
X144015133Y-113316020D01*
X143995167Y-113382976D01*
X143942172Y-113428509D01*
X143891134Y-113439500D01*
X111132164Y-113439500D01*
X111065125Y-113419815D01*
X111019370Y-113367011D01*
X111008164Y-113315364D01*
X111009183Y-112388477D01*
X111024639Y-98317648D01*
X112034500Y-98317648D01*
X112034500Y-98522351D01*
X112066522Y-98724534D01*
X112129781Y-98919223D01*
X112222715Y-99101613D01*
X112343028Y-99267213D01*
X112487786Y-99411971D01*
X112619569Y-99507715D01*
X112653390Y-99532287D01*
X112725424Y-99568990D01*
X112746629Y-99579795D01*
X112797425Y-99627770D01*
X112814220Y-99695591D01*
X112791682Y-99761726D01*
X112746629Y-99800765D01*
X112653650Y-99848140D01*
X112488105Y-99968417D01*
X112488104Y-99968417D01*
X112343417Y-100113104D01*
X112343417Y-100113105D01*
X112223140Y-100278650D01*
X112130244Y-100460970D01*
X112067009Y-100655586D01*
X112058391Y-100710000D01*
X113601988Y-100710000D01*
X113569075Y-100767007D01*
X113535000Y-100894174D01*
X113535000Y-101025826D01*
X113569075Y-101152993D01*
X113601988Y-101210000D01*
X112058391Y-101210000D01*
X112067009Y-101264413D01*
X112130244Y-101459029D01*
X112223140Y-101641349D01*
X112343417Y-101806894D01*
X112343417Y-101806895D01*
X112488104Y-101951582D01*
X112653652Y-102071861D01*
X112746628Y-102119234D01*
X112797425Y-102167208D01*
X112814220Y-102235029D01*
X112791683Y-102301164D01*
X112746630Y-102340203D01*
X112653388Y-102387713D01*
X112487786Y-102508028D01*
X112343028Y-102652786D01*
X112222715Y-102818386D01*
X112129781Y-103000776D01*
X112066522Y-103195465D01*
X112034500Y-103397648D01*
X112034500Y-103602351D01*
X112066522Y-103804534D01*
X112129781Y-103999223D01*
X112222715Y-104181613D01*
X112343028Y-104347213D01*
X112487786Y-104491971D01*
X112620535Y-104588417D01*
X112653390Y-104612287D01*
X112744840Y-104658883D01*
X112746080Y-104659515D01*
X112796876Y-104707490D01*
X112813671Y-104775311D01*
X112791134Y-104841446D01*
X112746080Y-104880485D01*
X112653386Y-104927715D01*
X112487786Y-105048028D01*
X112343028Y-105192786D01*
X112222715Y-105358386D01*
X112129781Y-105540776D01*
X112066522Y-105735465D01*
X112037658Y-105917708D01*
X112034500Y-105937648D01*
X112034500Y-106142352D01*
X112036030Y-106152009D01*
X112066522Y-106344534D01*
X112129781Y-106539223D01*
X112222715Y-106721613D01*
X112343028Y-106887213D01*
X112487786Y-107031971D01*
X112602869Y-107115582D01*
X112653390Y-107152287D01*
X112744840Y-107198883D01*
X112746080Y-107199515D01*
X112796876Y-107247490D01*
X112813671Y-107315311D01*
X112791134Y-107381446D01*
X112746080Y-107420485D01*
X112653386Y-107467715D01*
X112487786Y-107588028D01*
X112343028Y-107732786D01*
X112222715Y-107898386D01*
X112129781Y-108080776D01*
X112066522Y-108275465D01*
X112034500Y-108477648D01*
X112034500Y-108682351D01*
X112066522Y-108884534D01*
X112129781Y-109079223D01*
X112222715Y-109261613D01*
X112343028Y-109427213D01*
X112487786Y-109571971D01*
X112642749Y-109684556D01*
X112653390Y-109692287D01*
X112744840Y-109738883D01*
X112746080Y-109739515D01*
X112796876Y-109787490D01*
X112813671Y-109855311D01*
X112791134Y-109921446D01*
X112746080Y-109960485D01*
X112653386Y-110007715D01*
X112487786Y-110128028D01*
X112343028Y-110272786D01*
X112222715Y-110438386D01*
X112129781Y-110620776D01*
X112066522Y-110815465D01*
X112034500Y-111017648D01*
X112034500Y-111222351D01*
X112066522Y-111424534D01*
X112129781Y-111619223D01*
X112222715Y-111801613D01*
X112343028Y-111967213D01*
X112487786Y-112111971D01*
X112642749Y-112224556D01*
X112653390Y-112232287D01*
X112769607Y-112291503D01*
X112835776Y-112325218D01*
X112835778Y-112325218D01*
X112835781Y-112325220D01*
X112940137Y-112359127D01*
X113030465Y-112388477D01*
X113131557Y-112404488D01*
X113232648Y-112420500D01*
X113232649Y-112420500D01*
X114837351Y-112420500D01*
X114837352Y-112420500D01*
X115039534Y-112388477D01*
X115234219Y-112325220D01*
X115416610Y-112232287D01*
X115509590Y-112164732D01*
X115582213Y-112111971D01*
X115582215Y-112111968D01*
X115582219Y-112111966D01*
X115726966Y-111967219D01*
X115726968Y-111967215D01*
X115726971Y-111967213D01*
X115779732Y-111894590D01*
X115847287Y-111801610D01*
X115940220Y-111619219D01*
X116003477Y-111424534D01*
X116035500Y-111222352D01*
X116035500Y-111017648D01*
X116003477Y-110815466D01*
X115940220Y-110620781D01*
X115940218Y-110620778D01*
X115940218Y-110620776D01*
X115906503Y-110554607D01*
X115847287Y-110438390D01*
X115839556Y-110427749D01*
X115726971Y-110272786D01*
X115582213Y-110128028D01*
X115416614Y-110007715D01*
X115410006Y-110004348D01*
X115323917Y-109960483D01*
X115273123Y-109912511D01*
X115256328Y-109844690D01*
X115278865Y-109778555D01*
X115323917Y-109739516D01*
X115416610Y-109692287D01*
X115451561Y-109666894D01*
X115582213Y-109571971D01*
X115582215Y-109571968D01*
X115582219Y-109571966D01*
X115726966Y-109427219D01*
X115726968Y-109427215D01*
X115726971Y-109427213D01*
X115779732Y-109354590D01*
X115847287Y-109261610D01*
X115940220Y-109079219D01*
X116003477Y-108884534D01*
X116035500Y-108682352D01*
X116035500Y-108477648D01*
X116003477Y-108275466D01*
X115940220Y-108080781D01*
X115940218Y-108080778D01*
X115940218Y-108080776D01*
X115881535Y-107965606D01*
X115847287Y-107898390D01*
X115826661Y-107870000D01*
X115726971Y-107732786D01*
X115582213Y-107588028D01*
X115416614Y-107467715D01*
X115407943Y-107463297D01*
X115329446Y-107423300D01*
X115323922Y-107420486D01*
X115273125Y-107372513D01*
X115259545Y-107317682D01*
X120235000Y-107317682D01*
X120235000Y-107870000D01*
X121219314Y-107870000D01*
X121214920Y-107874394D01*
X121162259Y-107965606D01*
X121135000Y-108067339D01*
X121135000Y-108172661D01*
X121162259Y-108274394D01*
X121214920Y-108365606D01*
X121219314Y-108370000D01*
X120235000Y-108370000D01*
X120235000Y-108922317D01*
X120267009Y-109124417D01*
X120330244Y-109319031D01*
X120423140Y-109501349D01*
X120543417Y-109666894D01*
X120543417Y-109666895D01*
X120688104Y-109811582D01*
X120853650Y-109931859D01*
X121035968Y-110024754D01*
X121230578Y-110087988D01*
X121285000Y-110096607D01*
X121285000Y-108435686D01*
X121289394Y-108440080D01*
X121380606Y-108492741D01*
X121482339Y-108520000D01*
X121587661Y-108520000D01*
X121689394Y-108492741D01*
X121780606Y-108440080D01*
X121785000Y-108435686D01*
X121785000Y-110096606D01*
X121839421Y-110087988D01*
X122034031Y-110024754D01*
X122216349Y-109931859D01*
X122381894Y-109811582D01*
X122381895Y-109811582D01*
X122526582Y-109666895D01*
X122526582Y-109666894D01*
X122646859Y-109501349D01*
X122739755Y-109319031D01*
X122802990Y-109124417D01*
X122835000Y-108922317D01*
X122835000Y-108370000D01*
X121850686Y-108370000D01*
X121855080Y-108365606D01*
X121907741Y-108274394D01*
X121935000Y-108172661D01*
X121935000Y-108067339D01*
X121907741Y-107965606D01*
X121855080Y-107874394D01*
X121850686Y-107870000D01*
X122835000Y-107870000D01*
X122835000Y-107317682D01*
X122802990Y-107115582D01*
X122739755Y-106920968D01*
X122646859Y-106738650D01*
X122526582Y-106573105D01*
X122526582Y-106573104D01*
X122381895Y-106428417D01*
X122216349Y-106308140D01*
X122034029Y-106215244D01*
X121839413Y-106152009D01*
X121785000Y-106143390D01*
X121785000Y-107804314D01*
X121780606Y-107799920D01*
X121689394Y-107747259D01*
X121587661Y-107720000D01*
X121482339Y-107720000D01*
X121380606Y-107747259D01*
X121289394Y-107799920D01*
X121285000Y-107804314D01*
X121285000Y-106143390D01*
X121230586Y-106152009D01*
X121035970Y-106215244D01*
X120853650Y-106308140D01*
X120688105Y-106428417D01*
X120688104Y-106428417D01*
X120543417Y-106573104D01*
X120543417Y-106573105D01*
X120423140Y-106738650D01*
X120330244Y-106920968D01*
X120267009Y-107115582D01*
X120235000Y-107317682D01*
X115259545Y-107317682D01*
X115256328Y-107304692D01*
X115278864Y-107238557D01*
X115323917Y-107199516D01*
X115416610Y-107152287D01*
X115467131Y-107115582D01*
X115582213Y-107031971D01*
X115582215Y-107031968D01*
X115582219Y-107031966D01*
X115726966Y-106887219D01*
X115726968Y-106887215D01*
X115726971Y-106887213D01*
X115801410Y-106784755D01*
X115847287Y-106721610D01*
X115940220Y-106539219D01*
X116003477Y-106344534D01*
X116035500Y-106142352D01*
X116035500Y-105937648D01*
X116003477Y-105735466D01*
X115940220Y-105540781D01*
X115940218Y-105540778D01*
X115940218Y-105540776D01*
X115906503Y-105474607D01*
X115847287Y-105358390D01*
X115826661Y-105330000D01*
X115726971Y-105192786D01*
X115582213Y-105048028D01*
X115416614Y-104927715D01*
X115410006Y-104924348D01*
X115323917Y-104880483D01*
X115273123Y-104832511D01*
X115256328Y-104764690D01*
X115278865Y-104698555D01*
X115323917Y-104659516D01*
X115416610Y-104612287D01*
X115449465Y-104588417D01*
X115582213Y-104491971D01*
X115582215Y-104491968D01*
X115582219Y-104491966D01*
X115726966Y-104347219D01*
X115726968Y-104347215D01*
X115726971Y-104347213D01*
X115805711Y-104238835D01*
X115847287Y-104181610D01*
X115940220Y-103999219D01*
X116003477Y-103804534D01*
X116035500Y-103602352D01*
X116035500Y-103397648D01*
X116003477Y-103195466D01*
X115940220Y-103000781D01*
X115940218Y-103000778D01*
X115940218Y-103000776D01*
X115906503Y-102934607D01*
X115847287Y-102818390D01*
X115787040Y-102735466D01*
X115726971Y-102652786D01*
X115582213Y-102508028D01*
X115416611Y-102387713D01*
X115323369Y-102340203D01*
X115272574Y-102292229D01*
X115255779Y-102224407D01*
X115278317Y-102158273D01*
X115323371Y-102119234D01*
X115416347Y-102071861D01*
X115581894Y-101951582D01*
X115581895Y-101951582D01*
X115726582Y-101806895D01*
X115726582Y-101806894D01*
X115846859Y-101641349D01*
X115939755Y-101459029D01*
X116002990Y-101264413D01*
X116011609Y-101210000D01*
X114468012Y-101210000D01*
X114500925Y-101152993D01*
X114535000Y-101025826D01*
X114535000Y-100894174D01*
X114500925Y-100767007D01*
X114468012Y-100710000D01*
X116011609Y-100710000D01*
X116002990Y-100655586D01*
X115939754Y-100460967D01*
X115933694Y-100449072D01*
X115933693Y-100449071D01*
X115907492Y-100397648D01*
X125584500Y-100397648D01*
X125584500Y-100602351D01*
X125616522Y-100804534D01*
X125679781Y-100999223D01*
X125740923Y-101119219D01*
X125765004Y-101166481D01*
X125772715Y-101181613D01*
X125893028Y-101347213D01*
X126037786Y-101491971D01*
X126192749Y-101604556D01*
X126203390Y-101612287D01*
X126294840Y-101658883D01*
X126296080Y-101659515D01*
X126346876Y-101707490D01*
X126363671Y-101775311D01*
X126341134Y-101841446D01*
X126296080Y-101880485D01*
X126203386Y-101927715D01*
X126037786Y-102048028D01*
X125893028Y-102192786D01*
X125772715Y-102358386D01*
X125679781Y-102540776D01*
X125616522Y-102735465D01*
X125584500Y-102937648D01*
X125584500Y-103142351D01*
X125616522Y-103344534D01*
X125679781Y-103539223D01*
X125772715Y-103721613D01*
X125893028Y-103887213D01*
X126037786Y-104031971D01*
X126178955Y-104134534D01*
X126203390Y-104152287D01*
X126275424Y-104188990D01*
X126296629Y-104199795D01*
X126347425Y-104247770D01*
X126364220Y-104315591D01*
X126341682Y-104381726D01*
X126296629Y-104420765D01*
X126203650Y-104468140D01*
X126038105Y-104588417D01*
X126038104Y-104588417D01*
X125893417Y-104733104D01*
X125893417Y-104733105D01*
X125773140Y-104898650D01*
X125680244Y-105080970D01*
X125617009Y-105275586D01*
X125608391Y-105330000D01*
X127094252Y-105330000D01*
X127072482Y-105367708D01*
X127035000Y-105507591D01*
X127035000Y-105652409D01*
X127072482Y-105792292D01*
X127094252Y-105830000D01*
X125608391Y-105830000D01*
X125617009Y-105884413D01*
X125680244Y-106079029D01*
X125773140Y-106261349D01*
X125893417Y-106426894D01*
X125893417Y-106426895D01*
X126038104Y-106571582D01*
X126203650Y-106691859D01*
X126385968Y-106784755D01*
X126580582Y-106847990D01*
X126782683Y-106880000D01*
X127335000Y-106880000D01*
X127335000Y-106070747D01*
X127372708Y-106092518D01*
X127512591Y-106130000D01*
X127657409Y-106130000D01*
X127797292Y-106092518D01*
X127835000Y-106070747D01*
X127835000Y-106880000D01*
X128387317Y-106880000D01*
X128589417Y-106847990D01*
X128784031Y-106784755D01*
X128966349Y-106691859D01*
X129131894Y-106571582D01*
X129131895Y-106571582D01*
X129276582Y-106426895D01*
X129276582Y-106426894D01*
X129396859Y-106261349D01*
X129489755Y-106079029D01*
X129552990Y-105884413D01*
X129561609Y-105830000D01*
X128075748Y-105830000D01*
X128097518Y-105792292D01*
X128135000Y-105652409D01*
X128135000Y-105507591D01*
X128097518Y-105367708D01*
X128075748Y-105330000D01*
X129561609Y-105330000D01*
X129552990Y-105275586D01*
X129489755Y-105080970D01*
X129396859Y-104898650D01*
X129276582Y-104733105D01*
X129276582Y-104733104D01*
X129131895Y-104588417D01*
X128966349Y-104468140D01*
X128873370Y-104420765D01*
X128822574Y-104372790D01*
X128805779Y-104304969D01*
X128828316Y-104238835D01*
X128873370Y-104199795D01*
X128966610Y-104152287D01*
X128991045Y-104134534D01*
X129132213Y-104031971D01*
X129132215Y-104031968D01*
X129132219Y-104031966D01*
X129276966Y-103887219D01*
X129276968Y-103887215D01*
X129276971Y-103887213D01*
X129337040Y-103804534D01*
X129397287Y-103721610D01*
X129490220Y-103539219D01*
X129553477Y-103344534D01*
X129585500Y-103142352D01*
X129585500Y-102937648D01*
X129553477Y-102735465D01*
X129490218Y-102540776D01*
X129453908Y-102469515D01*
X129397287Y-102358390D01*
X129389556Y-102347749D01*
X129276971Y-102192786D01*
X129132213Y-102048028D01*
X128966614Y-101927715D01*
X128952454Y-101920500D01*
X128873917Y-101880483D01*
X128823123Y-101832511D01*
X128806328Y-101764690D01*
X128828865Y-101698555D01*
X128873917Y-101659516D01*
X128966610Y-101612287D01*
X128987770Y-101596913D01*
X129132213Y-101491971D01*
X129132215Y-101491968D01*
X129132219Y-101491966D01*
X129276966Y-101347219D01*
X129276968Y-101347215D01*
X129276971Y-101347213D01*
X129335243Y-101267007D01*
X129397287Y-101181610D01*
X129490220Y-100999219D01*
X129553477Y-100804534D01*
X129585500Y-100602352D01*
X129585500Y-100517648D01*
X132534500Y-100517648D01*
X132534500Y-100722351D01*
X132566522Y-100924534D01*
X132629781Y-101119223D01*
X132722715Y-101301613D01*
X132843028Y-101467213D01*
X132987786Y-101611971D01*
X133142749Y-101724556D01*
X133153390Y-101732287D01*
X133269607Y-101791503D01*
X133335776Y-101825218D01*
X133335778Y-101825218D01*
X133335781Y-101825220D01*
X133440137Y-101859127D01*
X133530465Y-101888477D01*
X133631557Y-101904488D01*
X133732648Y-101920500D01*
X133732649Y-101920500D01*
X135337351Y-101920500D01*
X135337352Y-101920500D01*
X135539534Y-101888477D01*
X135734219Y-101825220D01*
X135916610Y-101732287D01*
X136016773Y-101659515D01*
X136082213Y-101611971D01*
X136082215Y-101611968D01*
X136082219Y-101611966D01*
X136226966Y-101467219D01*
X136226968Y-101467215D01*
X136226971Y-101467213D01*
X136279732Y-101394590D01*
X136347287Y-101301610D01*
X136440220Y-101119219D01*
X136503477Y-100924534D01*
X136535500Y-100722352D01*
X136535500Y-100517648D01*
X136526523Y-100460970D01*
X136503477Y-100315465D01*
X136464486Y-100195465D01*
X136440220Y-100120781D01*
X136440218Y-100120778D01*
X136440218Y-100120776D01*
X136387447Y-100017208D01*
X136347287Y-99938390D01*
X136339556Y-99927749D01*
X136226971Y-99772786D01*
X136082213Y-99628028D01*
X135916613Y-99507715D01*
X135916612Y-99507714D01*
X135916610Y-99507713D01*
X135859653Y-99478691D01*
X135734223Y-99414781D01*
X135539534Y-99351522D01*
X135364995Y-99323878D01*
X135337352Y-99319500D01*
X133732648Y-99319500D01*
X133708329Y-99323351D01*
X133530465Y-99351522D01*
X133335776Y-99414781D01*
X133153386Y-99507715D01*
X132987786Y-99628028D01*
X132843028Y-99772786D01*
X132722715Y-99938386D01*
X132629781Y-100120776D01*
X132566522Y-100315465D01*
X132534500Y-100517648D01*
X129585500Y-100517648D01*
X129585500Y-100397648D01*
X129576057Y-100338028D01*
X129553477Y-100195465D01*
X129524127Y-100105137D01*
X129490220Y-100000781D01*
X129490218Y-100000778D01*
X129490218Y-100000776D01*
X129412445Y-99848140D01*
X129397287Y-99818390D01*
X129364154Y-99772786D01*
X129276971Y-99652786D01*
X129132213Y-99508028D01*
X128966613Y-99387715D01*
X128966612Y-99387714D01*
X128966610Y-99387713D01*
X128895583Y-99351523D01*
X128784223Y-99294781D01*
X128589534Y-99231522D01*
X128414995Y-99203878D01*
X128387352Y-99199500D01*
X126782648Y-99199500D01*
X126758329Y-99203351D01*
X126580465Y-99231522D01*
X126385776Y-99294781D01*
X126203386Y-99387715D01*
X126037786Y-99508028D01*
X125893028Y-99652786D01*
X125772715Y-99818386D01*
X125679781Y-100000776D01*
X125616522Y-100195465D01*
X125584500Y-100397648D01*
X115907492Y-100397648D01*
X115846859Y-100278650D01*
X115726582Y-100113105D01*
X115726582Y-100113104D01*
X115581895Y-99968417D01*
X115416349Y-99848140D01*
X115323370Y-99800765D01*
X115272574Y-99752790D01*
X115255779Y-99684969D01*
X115278316Y-99618835D01*
X115323370Y-99579795D01*
X115416610Y-99532287D01*
X115450431Y-99507715D01*
X115582213Y-99411971D01*
X115582215Y-99411968D01*
X115582219Y-99411966D01*
X115726966Y-99267219D01*
X115726968Y-99267215D01*
X115726971Y-99267213D01*
X115823454Y-99134413D01*
X115847287Y-99101610D01*
X115940220Y-98919219D01*
X116003477Y-98724534D01*
X116035500Y-98522352D01*
X116035500Y-98317648D01*
X116003477Y-98115466D01*
X115940220Y-97920781D01*
X115940218Y-97920778D01*
X115940218Y-97920776D01*
X115898253Y-97838417D01*
X115847287Y-97738390D01*
X115812686Y-97690765D01*
X115726971Y-97572786D01*
X115582213Y-97428028D01*
X115416614Y-97307715D01*
X115329368Y-97263261D01*
X115234223Y-97214781D01*
X115058388Y-97157648D01*
X120234500Y-97157648D01*
X120234500Y-98762351D01*
X120266522Y-98964534D01*
X120329781Y-99159223D01*
X120384806Y-99267213D01*
X120411447Y-99319500D01*
X120422715Y-99341613D01*
X120543028Y-99507213D01*
X120687786Y-99651971D01*
X120826554Y-99752790D01*
X120853390Y-99772287D01*
X120950137Y-99821582D01*
X121035776Y-99865218D01*
X121035778Y-99865218D01*
X121035781Y-99865220D01*
X121140137Y-99899127D01*
X121230465Y-99928477D01*
X121293028Y-99938386D01*
X121432648Y-99960500D01*
X121432649Y-99960500D01*
X121637351Y-99960500D01*
X121637352Y-99960500D01*
X121839534Y-99928477D01*
X122034219Y-99865220D01*
X122216610Y-99772287D01*
X122347907Y-99676895D01*
X122382213Y-99651971D01*
X122382215Y-99651968D01*
X122382219Y-99651966D01*
X122526966Y-99507219D01*
X122526968Y-99507215D01*
X122526971Y-99507213D01*
X122579732Y-99434590D01*
X122647287Y-99341610D01*
X122740220Y-99159219D01*
X122803477Y-98964534D01*
X122835500Y-98762352D01*
X122835500Y-97157648D01*
X122812370Y-97011613D01*
X122803477Y-96955465D01*
X122740218Y-96760776D01*
X122706503Y-96694607D01*
X122647287Y-96578390D01*
X122639556Y-96567749D01*
X122526971Y-96412786D01*
X122382213Y-96268028D01*
X122326634Y-96227648D01*
X138984500Y-96227648D01*
X138984500Y-96432351D01*
X139016522Y-96634534D01*
X139079781Y-96829223D01*
X139172715Y-97011613D01*
X139293028Y-97177213D01*
X139437786Y-97321971D01*
X139583764Y-97428028D01*
X139603390Y-97442287D01*
X139647815Y-97464922D01*
X139657377Y-97469795D01*
X139708173Y-97517770D01*
X139724968Y-97585591D01*
X139702430Y-97651726D01*
X139657377Y-97690765D01*
X139603650Y-97718140D01*
X139438105Y-97838417D01*
X139438104Y-97838417D01*
X139293417Y-97983104D01*
X139293417Y-97983105D01*
X139173140Y-98148650D01*
X139080244Y-98330970D01*
X139017009Y-98525586D01*
X139008391Y-98580000D01*
X140580854Y-98580000D01*
X140542370Y-98646657D01*
X140510000Y-98767465D01*
X140510000Y-98892535D01*
X140542370Y-99013343D01*
X140580854Y-99080000D01*
X139008391Y-99080000D01*
X139017009Y-99134413D01*
X139080244Y-99329029D01*
X139173140Y-99511349D01*
X139293417Y-99676894D01*
X139293417Y-99676895D01*
X139438104Y-99821582D01*
X139603652Y-99941861D01*
X139657376Y-99969234D01*
X139708172Y-100017208D01*
X139724968Y-100085028D01*
X139702431Y-100151164D01*
X139657379Y-100190203D01*
X139603386Y-100217714D01*
X139437786Y-100338028D01*
X139293028Y-100482786D01*
X139172715Y-100648386D01*
X139079781Y-100830776D01*
X139016522Y-101025465D01*
X138984500Y-101227648D01*
X138984500Y-101432351D01*
X139016522Y-101634534D01*
X139079781Y-101829223D01*
X139172715Y-102011613D01*
X139293028Y-102177213D01*
X139437786Y-102321971D01*
X139603388Y-102442286D01*
X139656828Y-102469516D01*
X139707623Y-102517490D01*
X139724418Y-102585312D01*
X139701880Y-102651446D01*
X139656828Y-102690484D01*
X139603388Y-102717713D01*
X139437786Y-102838028D01*
X139293028Y-102982786D01*
X139172715Y-103148386D01*
X139079781Y-103330776D01*
X139016522Y-103525465D01*
X138984500Y-103727648D01*
X138984500Y-103932351D01*
X139016522Y-104134534D01*
X139079781Y-104329223D01*
X139126425Y-104420765D01*
X139162706Y-104491971D01*
X139172715Y-104511613D01*
X139293028Y-104677213D01*
X139437786Y-104821971D01*
X139603388Y-104942286D01*
X139656828Y-104969516D01*
X139707623Y-105017490D01*
X139724418Y-105085312D01*
X139701880Y-105151446D01*
X139656828Y-105190484D01*
X139603388Y-105217713D01*
X139437786Y-105338028D01*
X139293028Y-105482786D01*
X139172715Y-105648386D01*
X139079781Y-105830776D01*
X139016522Y-106025465D01*
X138984500Y-106227648D01*
X138984500Y-106432351D01*
X139016522Y-106634534D01*
X139079781Y-106829223D01*
X139172715Y-107011613D01*
X139293028Y-107177213D01*
X139437786Y-107321971D01*
X139603388Y-107442286D01*
X139656828Y-107469516D01*
X139707623Y-107517490D01*
X139724418Y-107585312D01*
X139701880Y-107651446D01*
X139656828Y-107690484D01*
X139603388Y-107717713D01*
X139437786Y-107838028D01*
X139293028Y-107982786D01*
X139172715Y-108148386D01*
X139079781Y-108330776D01*
X139016522Y-108525465D01*
X138984500Y-108727648D01*
X138984500Y-108932351D01*
X139016522Y-109134534D01*
X139079781Y-109329223D01*
X139172715Y-109511613D01*
X139293028Y-109677213D01*
X139437786Y-109821971D01*
X139589037Y-109931859D01*
X139603390Y-109942287D01*
X139719607Y-110001503D01*
X139785776Y-110035218D01*
X139785778Y-110035218D01*
X139785781Y-110035220D01*
X139890137Y-110069127D01*
X139980465Y-110098477D01*
X140081557Y-110114488D01*
X140182648Y-110130500D01*
X140182649Y-110130500D01*
X141787351Y-110130500D01*
X141787352Y-110130500D01*
X141989534Y-110098477D01*
X142184219Y-110035220D01*
X142366610Y-109942287D01*
X142491537Y-109851523D01*
X142532213Y-109821971D01*
X142532215Y-109821968D01*
X142532219Y-109821966D01*
X142676966Y-109677219D01*
X142676968Y-109677215D01*
X142676971Y-109677213D01*
X142729732Y-109604590D01*
X142797287Y-109511610D01*
X142890220Y-109329219D01*
X142953477Y-109134534D01*
X142985500Y-108932352D01*
X142985500Y-108727648D01*
X142953477Y-108525466D01*
X142890220Y-108330781D01*
X142890218Y-108330778D01*
X142890218Y-108330776D01*
X142856503Y-108264607D01*
X142797287Y-108148390D01*
X142748163Y-108080776D01*
X142676971Y-107982786D01*
X142532213Y-107838028D01*
X142366613Y-107717715D01*
X142366612Y-107717714D01*
X142366610Y-107717713D01*
X142313171Y-107690484D01*
X142262376Y-107642510D01*
X142245581Y-107574689D01*
X142268118Y-107508554D01*
X142313172Y-107469515D01*
X142316705Y-107467715D01*
X142366610Y-107442287D01*
X142462646Y-107372513D01*
X142532213Y-107321971D01*
X142532215Y-107321968D01*
X142532219Y-107321966D01*
X142676966Y-107177219D01*
X142676968Y-107177215D01*
X142676971Y-107177213D01*
X142729732Y-107104590D01*
X142797287Y-107011610D01*
X142890220Y-106829219D01*
X142953477Y-106634534D01*
X142985500Y-106432352D01*
X142985500Y-106227648D01*
X142953477Y-106025466D01*
X142890220Y-105830781D01*
X142890218Y-105830778D01*
X142890218Y-105830776D01*
X142856503Y-105764607D01*
X142797287Y-105648390D01*
X142789556Y-105637749D01*
X142676971Y-105482786D01*
X142532213Y-105338028D01*
X142366613Y-105217715D01*
X142366612Y-105217714D01*
X142366610Y-105217713D01*
X142313171Y-105190484D01*
X142262376Y-105142510D01*
X142245581Y-105074689D01*
X142268118Y-105008554D01*
X142313172Y-104969515D01*
X142366610Y-104942287D01*
X142505407Y-104841446D01*
X142532213Y-104821971D01*
X142532215Y-104821968D01*
X142532219Y-104821966D01*
X142676966Y-104677219D01*
X142676968Y-104677215D01*
X142676971Y-104677213D01*
X142741484Y-104588417D01*
X142797287Y-104511610D01*
X142890220Y-104329219D01*
X142953477Y-104134534D01*
X142985500Y-103932352D01*
X142985500Y-103727648D01*
X142953477Y-103525466D01*
X142890220Y-103330781D01*
X142890218Y-103330778D01*
X142890218Y-103330776D01*
X142821273Y-103195466D01*
X142797287Y-103148390D01*
X142789556Y-103137749D01*
X142676971Y-102982786D01*
X142532213Y-102838028D01*
X142366613Y-102717715D01*
X142366612Y-102717714D01*
X142366610Y-102717713D01*
X142313171Y-102690484D01*
X142262376Y-102642510D01*
X142245581Y-102574689D01*
X142268118Y-102508554D01*
X142313172Y-102469515D01*
X142366610Y-102442287D01*
X142459590Y-102374732D01*
X142532213Y-102321971D01*
X142532215Y-102321968D01*
X142532219Y-102321966D01*
X142676966Y-102177219D01*
X142676968Y-102177215D01*
X142676971Y-102177213D01*
X142753512Y-102071861D01*
X142797287Y-102011610D01*
X142890220Y-101829219D01*
X142953477Y-101634534D01*
X142985500Y-101432352D01*
X142985500Y-101227648D01*
X142953477Y-101025466D01*
X142890220Y-100830781D01*
X142890218Y-100830778D01*
X142890218Y-100830776D01*
X142856503Y-100764607D01*
X142797287Y-100648390D01*
X142732997Y-100559901D01*
X142676971Y-100482786D01*
X142532213Y-100338028D01*
X142366611Y-100217713D01*
X142312621Y-100190203D01*
X142261825Y-100142228D01*
X142245031Y-100074407D01*
X142267569Y-100008272D01*
X142312624Y-99969233D01*
X142366349Y-99941859D01*
X142531894Y-99821582D01*
X142531895Y-99821582D01*
X142676582Y-99676895D01*
X142676582Y-99676894D01*
X142796859Y-99511349D01*
X142889755Y-99329029D01*
X142952990Y-99134413D01*
X142961609Y-99080000D01*
X141389146Y-99080000D01*
X141427630Y-99013343D01*
X141460000Y-98892535D01*
X141460000Y-98767465D01*
X141427630Y-98646657D01*
X141389146Y-98580000D01*
X142961609Y-98580000D01*
X142952990Y-98525586D01*
X142889755Y-98330970D01*
X142796859Y-98148650D01*
X142676582Y-97983105D01*
X142676582Y-97983104D01*
X142531895Y-97838417D01*
X142366349Y-97718140D01*
X142312622Y-97690765D01*
X142261826Y-97642791D01*
X142245031Y-97574970D01*
X142267568Y-97508835D01*
X142312621Y-97469795D01*
X142366610Y-97442287D01*
X142387770Y-97426913D01*
X142532213Y-97321971D01*
X142532215Y-97321968D01*
X142532219Y-97321966D01*
X142676966Y-97177219D01*
X142676968Y-97177215D01*
X142676971Y-97177213D01*
X142729732Y-97104590D01*
X142797287Y-97011610D01*
X142890220Y-96829219D01*
X142953477Y-96634534D01*
X142985500Y-96432352D01*
X142985500Y-96227648D01*
X142953477Y-96025466D01*
X142890220Y-95830781D01*
X142890218Y-95830778D01*
X142890218Y-95830776D01*
X142856503Y-95764607D01*
X142797287Y-95648390D01*
X142789556Y-95637749D01*
X142676971Y-95482786D01*
X142532213Y-95338028D01*
X142366613Y-95217715D01*
X142366612Y-95217714D01*
X142366610Y-95217713D01*
X142309653Y-95188691D01*
X142184223Y-95124781D01*
X141989534Y-95061522D01*
X141814995Y-95033878D01*
X141787352Y-95029500D01*
X140182648Y-95029500D01*
X140158329Y-95033351D01*
X139980465Y-95061522D01*
X139785776Y-95124781D01*
X139603386Y-95217715D01*
X139437786Y-95338028D01*
X139293028Y-95482786D01*
X139172715Y-95648386D01*
X139079781Y-95830776D01*
X139016522Y-96025465D01*
X138984500Y-96227648D01*
X122326634Y-96227648D01*
X122216613Y-96147715D01*
X122216612Y-96147714D01*
X122216610Y-96147713D01*
X122159653Y-96118691D01*
X122034223Y-96054781D01*
X121839534Y-95991522D01*
X121664995Y-95963878D01*
X121637352Y-95959500D01*
X121432648Y-95959500D01*
X121408329Y-95963351D01*
X121230465Y-95991522D01*
X121035776Y-96054781D01*
X120853386Y-96147715D01*
X120687786Y-96268028D01*
X120543028Y-96412786D01*
X120422715Y-96578386D01*
X120329781Y-96760776D01*
X120266522Y-96955465D01*
X120234500Y-97157648D01*
X115058388Y-97157648D01*
X115039534Y-97151522D01*
X114864995Y-97123878D01*
X114837352Y-97119500D01*
X113232648Y-97119500D01*
X113208329Y-97123351D01*
X113030465Y-97151522D01*
X112835776Y-97214781D01*
X112653386Y-97307715D01*
X112487786Y-97428028D01*
X112343028Y-97572786D01*
X112222715Y-97738386D01*
X112129781Y-97920776D01*
X112066522Y-98115465D01*
X112034500Y-98317648D01*
X111024639Y-98317648D01*
X111032935Y-90764534D01*
X111034814Y-89054364D01*
X111054572Y-88987346D01*
X111107426Y-88941649D01*
X111158814Y-88930500D01*
X133602932Y-88930500D01*
X133669971Y-88950185D01*
G37*
G04 #@! TD.AperFunction*
G04 #@! TD*
M02*
