G04 #@! TF.GenerationSoftware,KiCad,Pcbnew,9.0.7*
G04 #@! TF.CreationDate,2026-05-21T19:17:45-06:00*
G04 #@! TF.ProjectId,Planta_Motor,506c616e-7461-45f4-9d6f-746f722e6b69,rev?*
G04 #@! TF.SameCoordinates,Original*
G04 #@! TF.FileFunction,Copper,L2,Bot*
G04 #@! TF.FilePolarity,Positive*
%FSLAX46Y46*%
G04 Gerber Fmt 4.6, Leading zero omitted, Abs format (unit mm)*
G04 Created by KiCad (PCBNEW 9.0.7) date 2026-05-21 19:17:45*
%MOMM*%
%LPD*%
G01*
G04 APERTURE LIST*
G04 #@! TA.AperFunction,ComponentPad*
%ADD10O,3.000000X1.600000*%
G04 #@! TD*
G04 #@! TA.AperFunction,ComponentPad*
%ADD11O,1.600000X3.000000*%
G04 #@! TD*
G04 #@! TA.AperFunction,Conductor*
%ADD12C,1.000000*%
G04 #@! TD*
G04 #@! TA.AperFunction,Conductor*
%ADD13C,0.700000*%
G04 #@! TD*
G04 APERTURE END LIST*
D10*
G04 #@! TO.P,D7,1,K*
G04 #@! TO.N,12V*
X134535000Y-90460000D03*
G04 #@! TO.P,D7,2,A*
G04 #@! TO.N,/Drain*
X134535000Y-100620000D03*
G04 #@! TD*
D11*
G04 #@! TO.P,R11,1*
G04 #@! TO.N,/PWM*
X121535000Y-97960000D03*
G04 #@! TO.P,R11,2*
G04 #@! TO.N,GND*
X121535000Y-108120000D03*
G04 #@! TD*
D10*
G04 #@! TO.P,Q1,2,G*
G04 #@! TO.N,/PWM*
X127585000Y-103040000D03*
G04 #@! TO.P,Q1,3,S*
G04 #@! TO.N,GND*
X127585000Y-105580000D03*
G04 #@! TO.P,Q1,e,D*
G04 #@! TO.N,/Drain*
X127585000Y-100500000D03*
G04 #@! TD*
G04 #@! TO.P,J2,1,Pin_1*
G04 #@! TO.N,/Drain*
X140985000Y-96330000D03*
G04 #@! TO.P,J2,2,Pin_2*
G04 #@! TO.N,GND*
X140985000Y-98830000D03*
G04 #@! TO.P,J2,3,Pin_3*
G04 #@! TO.N,/ENCODER_A*
X140985000Y-101330000D03*
G04 #@! TO.P,J2,4,Pin_4*
G04 #@! TO.N,/ENCODER_B*
X140985000Y-103830000D03*
G04 #@! TO.P,J2,5,Pin_5*
G04 #@! TO.N,/5V*
X140985000Y-106330000D03*
G04 #@! TO.P,J2,6,Pin_6*
G04 #@! TO.N,12V*
X140985000Y-108830000D03*
G04 #@! TD*
G04 #@! TO.P,J1,1,Pin_1*
G04 #@! TO.N,/PWM*
X114035000Y-98420000D03*
G04 #@! TO.P,J1,2,Pin_2*
G04 #@! TO.N,GND*
X114035000Y-100960000D03*
G04 #@! TO.P,J1,3,Pin_3*
G04 #@! TO.N,/ENCODER_A*
X114035000Y-103500000D03*
G04 #@! TO.P,J1,4,Pin_4*
G04 #@! TO.N,/ENCODER_B*
X114035000Y-106040000D03*
G04 #@! TO.P,J1,5,Pin_5*
G04 #@! TO.N,/5V*
X114035000Y-108580000D03*
G04 #@! TO.P,J1,6,Pin_6*
G04 #@! TO.N,12V*
X114035000Y-111120000D03*
G04 #@! TD*
D12*
G04 #@! TO.N,12V*
X134535000Y-90460000D02*
X115615000Y-90460000D01*
X111535000Y-94540000D02*
X111535000Y-109147400D01*
X143540669Y-107106531D02*
X141817200Y-108830000D01*
X139809072Y-90460000D02*
X143594603Y-94245531D01*
X111535000Y-109147400D02*
X113507600Y-111120000D01*
X134535000Y-90460000D02*
X139809072Y-90460000D01*
X143594603Y-94245531D02*
X143540669Y-107106531D01*
X141817200Y-108830000D02*
X140985000Y-108830000D01*
X115615000Y-90460000D02*
X111535000Y-94540000D01*
X113507600Y-111120000D02*
X114035000Y-111120000D01*
D13*
G04 #@! TO.N,/PWM*
X114035000Y-98420000D02*
X121075000Y-98420000D01*
X121535000Y-97960000D02*
X126615000Y-103040000D01*
G04 #@! TO.N,GND*
X121535000Y-108120000D02*
X122880000Y-108120000D01*
X122880000Y-108120000D02*
X125420000Y-105580000D01*
X125420000Y-105580000D02*
X127585000Y-105580000D01*
X127585000Y-105580000D02*
X132920000Y-105580000D01*
X114035000Y-100960000D02*
X121195000Y-108120000D01*
X132920000Y-105580000D02*
X139670000Y-98830000D01*
X139670000Y-98830000D02*
X140985000Y-98830000D01*
G04 #@! TO.N,/Drain*
X127585000Y-100500000D02*
X134415000Y-100500000D01*
X138825000Y-96330000D02*
X134535000Y-100620000D01*
X140985000Y-96330000D02*
X138825000Y-96330000D01*
G04 #@! TO.N,/ENCODER_B*
X132715000Y-111531400D02*
X140416400Y-103830000D01*
X114035000Y-106040000D02*
X114904600Y-106040000D01*
X114904600Y-106040000D02*
X120396000Y-111531400D01*
X140416400Y-103830000D02*
X140985000Y-103830000D01*
X120396000Y-111531400D02*
X132715000Y-111531400D01*
G04 #@! TO.N,/ENCODER_A*
X114269600Y-103500000D02*
X120769600Y-110000000D01*
X120975397Y-110171000D02*
X132144000Y-110171000D01*
X138934000Y-103270397D02*
X139725397Y-102479000D01*
X132144000Y-110171000D02*
X138934000Y-103381000D01*
X138934000Y-103381000D02*
X138934000Y-103270397D01*
X139725397Y-102479000D02*
X139836000Y-102479000D01*
X120804397Y-110000000D02*
X120975397Y-110171000D01*
X120769600Y-110000000D02*
X120804397Y-110000000D01*
X139836000Y-102479000D02*
X140985000Y-101330000D01*
X114035000Y-103500000D02*
X114269600Y-103500000D01*
G04 #@! TO.N,/5V*
X118544000Y-113089000D02*
X134226000Y-113089000D01*
X114035000Y-108580000D02*
X118544000Y-113089000D01*
X134226000Y-113089000D02*
X140985000Y-106330000D01*
G04 #@! TD*
G04 #@! TA.AperFunction,NonConductor*
G36*
X144059915Y-88950185D02*
G01*
X144105670Y-89002989D01*
X144116874Y-89055019D01*
X144113628Y-89829285D01*
X144100174Y-93037340D01*
X144080208Y-93104296D01*
X144027213Y-93149829D01*
X143958013Y-93159483D01*
X143894580Y-93130192D01*
X143888494Y-93124501D01*
X140593281Y-89829289D01*
X140593278Y-89829285D01*
X140593278Y-89829286D01*
X140586211Y-89822219D01*
X140586211Y-89822218D01*
X140446854Y-89682861D01*
X140446853Y-89682860D01*
X140446852Y-89682859D01*
X140282992Y-89573371D01*
X140282983Y-89573366D01*
X140176015Y-89529059D01*
X140154237Y-89520038D01*
X140100908Y-89497949D01*
X140100904Y-89497948D01*
X140100900Y-89497946D01*
X140004260Y-89478724D01*
X139907616Y-89459500D01*
X139907613Y-89459500D01*
X136110762Y-89459500D01*
X136043723Y-89439815D01*
X136037877Y-89435818D01*
X135916613Y-89347715D01*
X135916612Y-89347714D01*
X135916610Y-89347713D01*
X135859653Y-89318691D01*
X135734223Y-89254781D01*
X135539534Y-89191522D01*
X135447670Y-89176973D01*
X135384535Y-89147044D01*
X135347604Y-89087732D01*
X135348602Y-89017870D01*
X135387212Y-88959637D01*
X135451175Y-88931523D01*
X135467068Y-88930500D01*
X143992876Y-88930500D01*
X144059915Y-88950185D01*
G37*
G04 #@! TD.AperFunction*
G04 #@! TA.AperFunction,NonConductor*
G36*
X133669971Y-88950185D02*
G01*
X133715726Y-89002989D01*
X133725670Y-89072147D01*
X133696645Y-89135703D01*
X133637867Y-89173477D01*
X133622330Y-89176973D01*
X133530465Y-89191522D01*
X133335776Y-89254781D01*
X133153386Y-89347715D01*
X133032123Y-89435818D01*
X132966317Y-89459298D01*
X132959238Y-89459500D01*
X115516456Y-89459500D01*
X115323171Y-89497947D01*
X115323163Y-89497949D01*
X115248058Y-89529059D01*
X115248057Y-89529059D01*
X115141088Y-89573366D01*
X115035343Y-89644023D01*
X115035342Y-89644023D01*
X114977222Y-89682857D01*
X114977214Y-89682863D01*
X111241797Y-93418281D01*
X111180474Y-93451766D01*
X111110782Y-93446782D01*
X111054849Y-93404910D01*
X111030432Y-93339446D01*
X111030116Y-93330464D01*
X111030315Y-93149829D01*
X111034369Y-89459298D01*
X111034814Y-89054364D01*
X111054572Y-88987346D01*
X111107426Y-88941649D01*
X111158814Y-88930500D01*
X133602932Y-88930500D01*
X133669971Y-88950185D01*
G37*
G04 #@! TD.AperFunction*
G04 #@! TA.AperFunction,NonConductor*
G36*
X139311992Y-97200185D02*
G01*
X139332634Y-97216819D01*
X139437786Y-97321971D01*
X139603388Y-97442286D01*
X139656828Y-97469516D01*
X139707623Y-97517490D01*
X139724418Y-97585312D01*
X139701880Y-97651446D01*
X139656828Y-97690484D01*
X139603388Y-97717713D01*
X139437786Y-97838028D01*
X139293036Y-97982778D01*
X139293036Y-97982779D01*
X139293034Y-97982781D01*
X139275911Y-98006349D01*
X139198437Y-98112982D01*
X139167013Y-98143196D01*
X139127836Y-98169374D01*
X139127830Y-98169379D01*
X136740953Y-100556256D01*
X136679630Y-100589741D01*
X136609938Y-100584757D01*
X136554005Y-100542885D01*
X136530800Y-100487974D01*
X136503477Y-100315466D01*
X136440220Y-100120781D01*
X136412526Y-100066430D01*
X136399631Y-99997763D01*
X136425907Y-99933022D01*
X136435322Y-99922465D01*
X139140969Y-97216819D01*
X139167896Y-97202115D01*
X139193715Y-97185523D01*
X139199915Y-97184631D01*
X139202292Y-97183334D01*
X139228650Y-97180500D01*
X139244953Y-97180500D01*
X139311992Y-97200185D01*
G37*
G04 #@! TD.AperFunction*
G04 #@! TA.AperFunction,NonConductor*
G36*
X133026277Y-91480185D02*
G01*
X133032119Y-91484179D01*
X133153390Y-91572287D01*
X133269607Y-91631503D01*
X133335776Y-91665218D01*
X133335778Y-91665218D01*
X133335781Y-91665220D01*
X133440137Y-91699127D01*
X133530465Y-91728477D01*
X133631557Y-91744488D01*
X133732648Y-91760500D01*
X133732649Y-91760500D01*
X135337351Y-91760500D01*
X135337352Y-91760500D01*
X135539534Y-91728477D01*
X135734219Y-91665220D01*
X135916610Y-91572287D01*
X136037877Y-91484181D01*
X136103683Y-91460702D01*
X136110762Y-91460500D01*
X139343290Y-91460500D01*
X139410329Y-91480185D01*
X139430971Y-91496819D01*
X142555828Y-94621677D01*
X142589313Y-94683000D01*
X142592146Y-94709878D01*
X142590353Y-95137428D01*
X142570387Y-95204384D01*
X142517392Y-95249917D01*
X142448192Y-95259571D01*
X142393470Y-95237227D01*
X142366612Y-95217714D01*
X142184223Y-95124781D01*
X141989534Y-95061522D01*
X141814995Y-95033878D01*
X141787352Y-95029500D01*
X140182648Y-95029500D01*
X140158329Y-95033351D01*
X139980465Y-95061522D01*
X139785776Y-95124781D01*
X139603386Y-95217715D01*
X139437786Y-95338028D01*
X139437782Y-95338032D01*
X139332634Y-95443181D01*
X139271311Y-95476666D01*
X139244953Y-95479500D01*
X138741228Y-95479500D01*
X138576925Y-95512182D01*
X138576913Y-95512185D01*
X138531583Y-95530962D01*
X138422143Y-95576292D01*
X138282831Y-95669379D01*
X138282831Y-95669380D01*
X134669030Y-99283181D01*
X134607707Y-99316666D01*
X134581349Y-99319500D01*
X133732648Y-99319500D01*
X133708329Y-99323351D01*
X133530465Y-99351522D01*
X133335776Y-99414781D01*
X133153386Y-99507715D01*
X132990830Y-99625818D01*
X132925023Y-99649298D01*
X132917945Y-99649500D01*
X129325047Y-99649500D01*
X129258008Y-99629815D01*
X129237366Y-99613181D01*
X129132213Y-99508028D01*
X128966613Y-99387715D01*
X128966612Y-99387714D01*
X128966610Y-99387713D01*
X128895583Y-99351523D01*
X128784223Y-99294781D01*
X128589534Y-99231522D01*
X128414995Y-99203878D01*
X128387352Y-99199500D01*
X126782648Y-99199500D01*
X126758329Y-99203351D01*
X126580465Y-99231522D01*
X126385776Y-99294781D01*
X126203386Y-99387715D01*
X126037786Y-99508028D01*
X125893028Y-99652786D01*
X125772715Y-99818386D01*
X125679781Y-100000776D01*
X125616522Y-100195465D01*
X125584500Y-100397648D01*
X125584500Y-100507349D01*
X125564815Y-100574388D01*
X125512011Y-100620143D01*
X125442853Y-100630087D01*
X125379297Y-100601062D01*
X125372819Y-100595030D01*
X122871819Y-98094030D01*
X122838334Y-98032707D01*
X122835500Y-98006349D01*
X122835500Y-97157648D01*
X122803477Y-96955465D01*
X122740218Y-96760776D01*
X122706503Y-96694607D01*
X122647287Y-96578390D01*
X122639556Y-96567749D01*
X122526971Y-96412786D01*
X122382213Y-96268028D01*
X122216613Y-96147715D01*
X122216612Y-96147714D01*
X122216610Y-96147713D01*
X122159653Y-96118691D01*
X122034223Y-96054781D01*
X121839534Y-95991522D01*
X121664995Y-95963878D01*
X121637352Y-95959500D01*
X121432648Y-95959500D01*
X121408329Y-95963351D01*
X121230465Y-95991522D01*
X121035776Y-96054781D01*
X120853386Y-96147715D01*
X120687786Y-96268028D01*
X120543028Y-96412786D01*
X120422715Y-96578386D01*
X120329781Y-96760776D01*
X120266522Y-96955465D01*
X120234500Y-97157648D01*
X120234500Y-97445500D01*
X120214815Y-97512539D01*
X120162011Y-97558294D01*
X120110500Y-97569500D01*
X115775047Y-97569500D01*
X115708008Y-97549815D01*
X115687366Y-97533181D01*
X115582213Y-97428028D01*
X115416613Y-97307715D01*
X115416612Y-97307714D01*
X115416610Y-97307713D01*
X115348060Y-97272785D01*
X115234223Y-97214781D01*
X115039534Y-97151522D01*
X114864995Y-97123878D01*
X114837352Y-97119500D01*
X113232648Y-97119500D01*
X113208329Y-97123351D01*
X113030465Y-97151522D01*
X112835776Y-97214781D01*
X112715795Y-97275916D01*
X112647126Y-97288812D01*
X112582385Y-97262536D01*
X112542128Y-97205429D01*
X112535500Y-97165431D01*
X112535500Y-95005782D01*
X112555185Y-94938743D01*
X112571819Y-94918101D01*
X115993102Y-91496819D01*
X116054425Y-91463334D01*
X116080783Y-91460500D01*
X132959238Y-91460500D01*
X133026277Y-91480185D01*
G37*
G04 #@! TD.AperFunction*
G04 #@! TA.AperFunction,NonConductor*
G36*
X132700302Y-101352041D02*
G01*
X132705665Y-101350955D01*
X132733469Y-101361780D01*
X132762091Y-101370185D01*
X132767026Y-101374846D01*
X132770773Y-101376305D01*
X132795371Y-101401616D01*
X132843030Y-101467215D01*
X132987786Y-101611971D01*
X133116135Y-101705220D01*
X133153390Y-101732287D01*
X133269607Y-101791503D01*
X133335776Y-101825218D01*
X133335778Y-101825218D01*
X133335781Y-101825220D01*
X133365204Y-101834780D01*
X133530465Y-101888477D01*
X133582320Y-101896690D01*
X133732648Y-101920500D01*
X133732649Y-101920500D01*
X135077348Y-101920500D01*
X135144387Y-101940185D01*
X135190142Y-101992989D01*
X135200086Y-102062147D01*
X135171061Y-102125703D01*
X135165029Y-102132181D01*
X132604030Y-104693181D01*
X132542707Y-104726666D01*
X132516349Y-104729500D01*
X129325047Y-104729500D01*
X129258008Y-104709815D01*
X129237366Y-104693181D01*
X129132213Y-104588028D01*
X128966614Y-104467715D01*
X128960006Y-104464348D01*
X128873917Y-104420483D01*
X128823123Y-104372511D01*
X128806328Y-104304690D01*
X128828865Y-104238555D01*
X128873917Y-104199516D01*
X128966610Y-104152287D01*
X128987770Y-104136913D01*
X129132213Y-104031971D01*
X129132215Y-104031968D01*
X129132219Y-104031966D01*
X129276966Y-103887219D01*
X129276968Y-103887215D01*
X129276971Y-103887213D01*
X129329732Y-103814590D01*
X129397287Y-103721610D01*
X129490220Y-103539219D01*
X129553477Y-103344534D01*
X129585500Y-103142352D01*
X129585500Y-102937648D01*
X129573798Y-102863767D01*
X129553477Y-102735465D01*
X129490218Y-102540776D01*
X129455869Y-102473364D01*
X129397287Y-102358390D01*
X129350391Y-102293842D01*
X129276971Y-102192786D01*
X129132213Y-102048028D01*
X128966614Y-101927715D01*
X128952454Y-101920500D01*
X128873917Y-101880483D01*
X128823123Y-101832511D01*
X128806328Y-101764690D01*
X128828865Y-101698555D01*
X128873917Y-101659516D01*
X128966610Y-101612287D01*
X128992003Y-101593838D01*
X129132213Y-101491971D01*
X129132215Y-101491968D01*
X129132219Y-101491966D01*
X129237366Y-101386819D01*
X129298689Y-101353334D01*
X129325047Y-101350500D01*
X132695052Y-101350500D01*
X132700302Y-101352041D01*
G37*
G04 #@! TD.AperFunction*
G04 #@! TA.AperFunction,NonConductor*
G36*
X120377533Y-99290185D02*
G01*
X120420979Y-99338207D01*
X120422713Y-99341610D01*
X120499018Y-99446635D01*
X120543034Y-99507219D01*
X120687786Y-99651971D01*
X120826170Y-99752511D01*
X120853390Y-99772287D01*
X120956121Y-99824631D01*
X121035776Y-99865218D01*
X121035778Y-99865218D01*
X121035781Y-99865220D01*
X121140137Y-99899127D01*
X121230465Y-99928477D01*
X121331557Y-99944488D01*
X121432648Y-99960500D01*
X121432649Y-99960500D01*
X121637351Y-99960500D01*
X121637352Y-99960500D01*
X121839534Y-99928477D01*
X122034219Y-99865220D01*
X122088567Y-99837527D01*
X122157234Y-99824631D01*
X122221975Y-99850906D01*
X122232542Y-99860331D01*
X125569171Y-103196960D01*
X125602656Y-103258283D01*
X125603963Y-103265241D01*
X125616522Y-103344531D01*
X125679781Y-103539221D01*
X125772715Y-103721613D01*
X125893028Y-103887213D01*
X126037786Y-104031971D01*
X126192749Y-104144556D01*
X126203390Y-104152287D01*
X126294840Y-104198883D01*
X126296080Y-104199515D01*
X126346876Y-104247490D01*
X126363671Y-104315311D01*
X126341134Y-104381446D01*
X126296080Y-104420485D01*
X126203386Y-104467715D01*
X126037786Y-104588028D01*
X126037782Y-104588032D01*
X125932634Y-104693181D01*
X125871311Y-104726666D01*
X125844953Y-104729500D01*
X125336228Y-104729500D01*
X125171925Y-104762182D01*
X125171917Y-104762184D01*
X125027593Y-104821966D01*
X125027591Y-104821967D01*
X125017137Y-104826296D01*
X125017130Y-104826300D01*
X124877838Y-104919373D01*
X124877834Y-104919376D01*
X122906879Y-106890331D01*
X122845556Y-106923816D01*
X122775864Y-106918832D01*
X122719931Y-106876960D01*
X122708713Y-106858945D01*
X122693567Y-106829219D01*
X122647287Y-106738390D01*
X122639556Y-106727749D01*
X122526971Y-106572786D01*
X122382213Y-106428028D01*
X122216613Y-106307715D01*
X122216612Y-106307714D01*
X122216610Y-106307713D01*
X122159653Y-106278691D01*
X122034223Y-106214781D01*
X121839534Y-106151522D01*
X121664995Y-106123878D01*
X121637352Y-106119500D01*
X121432648Y-106119500D01*
X121408329Y-106123351D01*
X121230465Y-106151522D01*
X121035776Y-106214781D01*
X120853391Y-106307712D01*
X120853389Y-106307713D01*
X120783908Y-106358193D01*
X120718101Y-106381672D01*
X120650047Y-106365845D01*
X120623343Y-106345555D01*
X115935331Y-101657542D01*
X115901846Y-101596219D01*
X115906830Y-101526527D01*
X115912522Y-101513577D01*
X115940220Y-101459219D01*
X116003477Y-101264534D01*
X116035500Y-101062352D01*
X116035500Y-100857648D01*
X116003477Y-100655466D01*
X115940220Y-100460781D01*
X115940218Y-100460778D01*
X115940218Y-100460776D01*
X115866178Y-100315466D01*
X115847287Y-100278390D01*
X115787040Y-100195466D01*
X115726971Y-100112786D01*
X115582213Y-99968028D01*
X115416614Y-99847715D01*
X115371309Y-99824631D01*
X115323917Y-99800483D01*
X115273123Y-99752511D01*
X115256328Y-99684690D01*
X115278865Y-99618555D01*
X115323917Y-99579516D01*
X115416610Y-99532287D01*
X115450431Y-99507715D01*
X115582213Y-99411971D01*
X115582215Y-99411968D01*
X115582219Y-99411966D01*
X115687366Y-99306819D01*
X115748689Y-99273334D01*
X115775047Y-99270500D01*
X120310494Y-99270500D01*
X120377533Y-99290185D01*
G37*
G04 #@! TD.AperFunction*
G04 #@! TA.AperFunction,NonConductor*
G36*
X138945578Y-100859724D02*
G01*
X139001511Y-100901596D01*
X139025928Y-100967060D01*
X139020175Y-101014223D01*
X139016524Y-101025457D01*
X139016523Y-101025464D01*
X138984500Y-101227648D01*
X138984500Y-101432352D01*
X138993942Y-101491966D01*
X139016523Y-101634535D01*
X139016523Y-101634538D01*
X139079009Y-101826849D01*
X139081004Y-101896690D01*
X139048759Y-101952848D01*
X138273375Y-102728231D01*
X138273372Y-102728235D01*
X138180299Y-102867527D01*
X138180292Y-102867540D01*
X138144211Y-102954650D01*
X138117331Y-102994879D01*
X131828030Y-109284181D01*
X131766707Y-109317666D01*
X131740349Y-109320500D01*
X122910476Y-109320500D01*
X122888631Y-109314085D01*
X122865936Y-109312225D01*
X122855744Y-109304428D01*
X122843437Y-109300815D01*
X122828527Y-109283608D01*
X122810441Y-109269773D01*
X122806082Y-109257706D01*
X122797682Y-109248011D01*
X122794441Y-109225472D01*
X122786707Y-109204058D01*
X122788892Y-109186883D01*
X122787738Y-109178853D01*
X122789591Y-109168882D01*
X122790830Y-109163454D01*
X122803477Y-109124534D01*
X122811962Y-109070958D01*
X122812894Y-109066882D01*
X122827994Y-109039899D01*
X122841235Y-109011968D01*
X122844903Y-109009683D01*
X122847015Y-109005911D01*
X122874302Y-108991377D01*
X122900546Y-108975036D01*
X122906513Y-108974221D01*
X122908683Y-108973066D01*
X122912616Y-108973388D01*
X122933779Y-108970500D01*
X122963768Y-108970500D01*
X122963769Y-108970499D01*
X123128082Y-108937816D01*
X123175890Y-108918013D01*
X123282863Y-108873704D01*
X123422162Y-108780627D01*
X125735969Y-106466818D01*
X125762896Y-106452115D01*
X125788715Y-106435523D01*
X125794915Y-106434631D01*
X125797292Y-106433334D01*
X125823650Y-106430500D01*
X125844953Y-106430500D01*
X125911992Y-106450185D01*
X125932634Y-106466819D01*
X126037786Y-106571971D01*
X126179066Y-106674615D01*
X126203390Y-106692287D01*
X126319607Y-106751503D01*
X126385776Y-106785218D01*
X126385778Y-106785218D01*
X126385781Y-106785220D01*
X126490137Y-106819127D01*
X126580465Y-106848477D01*
X126646557Y-106858945D01*
X126782648Y-106880500D01*
X126782649Y-106880500D01*
X128387351Y-106880500D01*
X128387352Y-106880500D01*
X128589534Y-106848477D01*
X128784219Y-106785220D01*
X128966610Y-106692287D01*
X129059590Y-106624732D01*
X129132213Y-106571971D01*
X129132215Y-106571968D01*
X129132219Y-106571966D01*
X129237366Y-106466819D01*
X129298689Y-106433334D01*
X129325047Y-106430500D01*
X133003768Y-106430500D01*
X133003769Y-106430499D01*
X133058538Y-106419605D01*
X133168074Y-106397818D01*
X133168078Y-106397816D01*
X133168082Y-106397816D01*
X133213415Y-106379037D01*
X133322863Y-106333704D01*
X133462162Y-106240627D01*
X138814563Y-100888224D01*
X138875886Y-100854740D01*
X138945578Y-100859724D01*
G37*
G04 #@! TD.AperFunction*
G04 #@! TA.AperFunction,NonConductor*
G36*
X138954949Y-106596751D02*
G01*
X139010882Y-106638623D01*
X139029546Y-106674615D01*
X139078463Y-106825170D01*
X139078467Y-106825178D01*
X139079780Y-106829219D01*
X139107731Y-106884077D01*
X139108035Y-106884688D01*
X139114037Y-106918534D01*
X139120367Y-106952237D01*
X139120121Y-106952840D01*
X139120236Y-106953484D01*
X139107005Y-106985156D01*
X139094090Y-107016978D01*
X139093381Y-107017772D01*
X139093305Y-107017955D01*
X139093080Y-107018109D01*
X139084667Y-107027543D01*
X133910030Y-112202181D01*
X133848707Y-112235666D01*
X133822349Y-112238500D01*
X133510052Y-112238500D01*
X133443013Y-112218815D01*
X133397258Y-112166011D01*
X133387314Y-112096853D01*
X133416339Y-112033297D01*
X133422371Y-112026819D01*
X136776138Y-108673050D01*
X138823936Y-106625250D01*
X138885257Y-106591767D01*
X138954949Y-106596751D01*
G37*
G04 #@! TD.AperFunction*
G04 #@! TA.AperFunction,NonConductor*
G36*
X116240703Y-108579337D02*
G01*
X116247167Y-108585356D01*
X117877210Y-110215398D01*
X119688631Y-112026819D01*
X119722116Y-112088142D01*
X119717132Y-112157834D01*
X119675260Y-112213767D01*
X119609796Y-112238184D01*
X119600950Y-112238500D01*
X118947651Y-112238500D01*
X118880612Y-112218815D01*
X118859970Y-112202181D01*
X115935331Y-109277542D01*
X115901846Y-109216219D01*
X115906830Y-109146527D01*
X115912522Y-109133577D01*
X115940220Y-109079219D01*
X116003477Y-108884534D01*
X116035500Y-108682352D01*
X116035500Y-108673050D01*
X116055185Y-108606011D01*
X116107989Y-108560256D01*
X116177147Y-108550312D01*
X116240703Y-108579337D01*
G37*
G04 #@! TD.AperFunction*
G04 #@! TA.AperFunction,NonConductor*
G36*
X143955394Y-108209238D02*
G01*
X144011327Y-108251110D01*
X144035744Y-108316574D01*
X144036059Y-108325940D01*
X144032043Y-109283608D01*
X144019652Y-112238500D01*
X144015133Y-113316020D01*
X143995167Y-113382976D01*
X143942172Y-113428509D01*
X143891134Y-113439500D01*
X135377651Y-113439500D01*
X135310612Y-113419815D01*
X135264857Y-113367011D01*
X135254913Y-113297853D01*
X135283938Y-113234297D01*
X135289970Y-113227819D01*
X137093254Y-111424534D01*
X138999973Y-109517813D01*
X139061294Y-109484330D01*
X139130986Y-109489314D01*
X139186919Y-109531186D01*
X139187970Y-109532611D01*
X139293028Y-109677212D01*
X139293032Y-109677217D01*
X139437786Y-109821971D01*
X139592749Y-109934556D01*
X139603390Y-109942287D01*
X139719607Y-110001503D01*
X139785776Y-110035218D01*
X139785778Y-110035218D01*
X139785781Y-110035220D01*
X139890137Y-110069127D01*
X139980465Y-110098477D01*
X140081557Y-110114488D01*
X140182648Y-110130500D01*
X140182649Y-110130500D01*
X141787351Y-110130500D01*
X141787352Y-110130500D01*
X141989534Y-110098477D01*
X142184219Y-110035220D01*
X142366610Y-109942287D01*
X142459590Y-109874732D01*
X142532213Y-109821971D01*
X142532215Y-109821968D01*
X142532219Y-109821966D01*
X142676966Y-109677219D01*
X142676968Y-109677215D01*
X142676971Y-109677213D01*
X142729732Y-109604590D01*
X142797287Y-109511610D01*
X142890220Y-109329219D01*
X142953477Y-109134534D01*
X142953478Y-109134525D01*
X142953490Y-109134479D01*
X142953502Y-109134456D01*
X142954983Y-109129900D01*
X142955889Y-109130194D01*
X142986384Y-109075734D01*
X143824381Y-108237737D01*
X143885702Y-108204254D01*
X143955394Y-108209238D01*
G37*
G04 #@! TD.AperFunction*
G04 #@! TA.AperFunction,NonConductor*
G36*
X111216740Y-110244492D02*
G01*
X111223115Y-110250435D01*
X111998181Y-111025501D01*
X112031666Y-111086824D01*
X112034500Y-111113182D01*
X112034500Y-111222351D01*
X112066522Y-111424534D01*
X112129781Y-111619223D01*
X112193691Y-111744653D01*
X112214070Y-111784648D01*
X112222715Y-111801613D01*
X112343028Y-111967213D01*
X112487786Y-112111971D01*
X112597976Y-112192027D01*
X112653390Y-112232287D01*
X112769607Y-112291503D01*
X112835776Y-112325218D01*
X112835778Y-112325218D01*
X112835781Y-112325220D01*
X112940137Y-112359127D01*
X113030465Y-112388477D01*
X113131557Y-112404488D01*
X113232648Y-112420500D01*
X113232649Y-112420500D01*
X114837351Y-112420500D01*
X114837352Y-112420500D01*
X115039534Y-112388477D01*
X115234219Y-112325220D01*
X115416610Y-112232287D01*
X115519087Y-112157834D01*
X115582213Y-112111971D01*
X115582215Y-112111968D01*
X115582219Y-112111966D01*
X115726966Y-111967219D01*
X115847287Y-111801610D01*
X115847289Y-111801605D01*
X115848859Y-111799445D01*
X115904189Y-111756778D01*
X115973802Y-111750799D01*
X116035597Y-111783404D01*
X116036859Y-111784648D01*
X117480030Y-113227819D01*
X117513515Y-113289142D01*
X117508531Y-113358834D01*
X117466659Y-113414767D01*
X117401195Y-113439184D01*
X117392349Y-113439500D01*
X111132164Y-113439500D01*
X111065125Y-113419815D01*
X111019370Y-113367011D01*
X111008164Y-113315364D01*
X111011434Y-110337977D01*
X111031192Y-110270962D01*
X111084046Y-110225265D01*
X111153216Y-110215398D01*
X111216740Y-110244492D01*
G37*
G04 #@! TD.AperFunction*
G04 #@! TA.AperFunction,Conductor*
G04 #@! TO.N,GND*
G36*
X125545291Y-105254685D02*
G01*
X125591046Y-105307489D01*
X125591426Y-105310138D01*
X125608390Y-105330000D01*
X127094252Y-105330000D01*
X127072482Y-105367708D01*
X127035000Y-105507591D01*
X127035000Y-105652409D01*
X127072482Y-105792292D01*
X127094252Y-105830000D01*
X125608390Y-105830000D01*
X125613744Y-105863801D01*
X125610793Y-105886630D01*
X125612429Y-105909594D01*
X125606400Y-105920626D01*
X125604789Y-105933095D01*
X125589963Y-105950707D01*
X125578925Y-105970907D01*
X125562809Y-105982963D01*
X125559793Y-105986547D01*
X125550664Y-105992050D01*
X125530671Y-106002959D01*
X125522790Y-106006902D01*
X125515430Y-106010262D01*
X125508506Y-106014712D01*
X125500921Y-106019212D01*
X125496778Y-106021475D01*
X125494166Y-106022807D01*
X125378527Y-106109375D01*
X125378515Y-106109385D01*
X123108559Y-108379343D01*
X123089769Y-108394764D01*
X123053575Y-108418948D01*
X123032136Y-108430407D01*
X123006453Y-108441046D01*
X122936985Y-108448515D01*
X122874505Y-108417241D01*
X122863217Y-108398217D01*
X122835000Y-108370000D01*
X121850686Y-108370000D01*
X121855080Y-108365606D01*
X121907741Y-108274394D01*
X121935000Y-108172661D01*
X121935000Y-108067339D01*
X121907741Y-107965606D01*
X121855080Y-107874394D01*
X121850686Y-107870000D01*
X122835000Y-107870000D01*
X122835000Y-107541651D01*
X122854685Y-107474612D01*
X122907489Y-107428857D01*
X122950153Y-107417968D01*
X122953008Y-107417764D01*
X123087817Y-107367482D01*
X123149140Y-107333997D01*
X123264321Y-107247773D01*
X125191437Y-105320655D01*
X125210215Y-105305244D01*
X125246424Y-105281050D01*
X125267851Y-105269596D01*
X125308087Y-105252929D01*
X125331343Y-105245874D01*
X125374042Y-105237381D01*
X125398232Y-105235000D01*
X125478252Y-105235000D01*
X125545291Y-105254685D01*
G37*
G04 #@! TD.AperFunction*
G04 #@! TA.AperFunction,Conductor*
G36*
X115562965Y-102028017D02*
G01*
X115591031Y-102034543D01*
X115598557Y-102040261D01*
X115601797Y-102041376D01*
X115604454Y-102044742D01*
X115617739Y-102054836D01*
X120265904Y-106703001D01*
X120314473Y-106745391D01*
X120352037Y-106804304D01*
X120351788Y-106874173D01*
X120343423Y-106895104D01*
X120330245Y-106920968D01*
X120330243Y-106920972D01*
X120267009Y-107115582D01*
X120235000Y-107317682D01*
X120235000Y-107963249D01*
X120215315Y-108030288D01*
X120162511Y-108076043D01*
X120093353Y-108085987D01*
X120029797Y-108056962D01*
X120023319Y-108050930D01*
X116001648Y-104029259D01*
X115968163Y-103967936D01*
X115971397Y-103903262D01*
X116003477Y-103804534D01*
X116035500Y-103602352D01*
X116035500Y-103397648D01*
X116003477Y-103195466D01*
X115940220Y-103000781D01*
X115940218Y-103000778D01*
X115940218Y-103000776D01*
X115906503Y-102934607D01*
X115847287Y-102818390D01*
X115839556Y-102807749D01*
X115726971Y-102652786D01*
X115582213Y-102508028D01*
X115416611Y-102387713D01*
X115323369Y-102340203D01*
X115316656Y-102333863D01*
X115307926Y-102330860D01*
X115291659Y-102310254D01*
X115272574Y-102292229D01*
X115270354Y-102283266D01*
X115264633Y-102276019D01*
X115262088Y-102249886D01*
X115255779Y-102224407D01*
X115258756Y-102215668D01*
X115257862Y-102206478D01*
X115269849Y-102183118D01*
X115278317Y-102158273D01*
X115286393Y-102150882D01*
X115289763Y-102144316D01*
X115310393Y-102128919D01*
X115317466Y-102122447D01*
X115467859Y-102035245D01*
X115495840Y-102028401D01*
X115522977Y-102018719D01*
X115529362Y-102020203D01*
X115535728Y-102018647D01*
X115562965Y-102028017D01*
G37*
G04 #@! TD.AperFunction*
G04 #@! TA.AperFunction,Conductor*
G36*
X138970771Y-99143834D02*
G01*
X139026705Y-99185705D01*
X139045369Y-99221697D01*
X139080244Y-99329031D01*
X139173140Y-99511349D01*
X139293417Y-99676894D01*
X139293417Y-99676895D01*
X139438104Y-99821582D01*
X139603652Y-99941861D01*
X139657376Y-99969234D01*
X139708172Y-100017208D01*
X139724968Y-100085028D01*
X139702431Y-100151164D01*
X139657379Y-100190203D01*
X139603386Y-100217714D01*
X139437788Y-100338027D01*
X139360884Y-100414931D01*
X139299560Y-100448415D01*
X139229869Y-100443430D01*
X139213778Y-100436082D01*
X139122230Y-100386095D01*
X138981644Y-100355513D01*
X138981638Y-100355512D01*
X138981637Y-100355512D01*
X138954985Y-100353606D01*
X138911947Y-100350528D01*
X138911945Y-100350528D01*
X138768440Y-100360791D01*
X138768438Y-100360791D01*
X138768434Y-100360792D01*
X138633640Y-100411066D01*
X138633633Y-100411069D01*
X138578800Y-100441009D01*
X138577691Y-100441532D01*
X138572301Y-100444557D01*
X138457127Y-100530775D01*
X138457109Y-100530791D01*
X133148559Y-105839343D01*
X133129769Y-105854764D01*
X133093578Y-105878946D01*
X133072137Y-105890406D01*
X133031904Y-105907070D01*
X133008647Y-105914125D01*
X132978927Y-105920037D01*
X132965955Y-105922617D01*
X132941766Y-105925000D01*
X129691748Y-105925000D01*
X129624709Y-105905315D01*
X129578954Y-105852511D01*
X129578573Y-105849861D01*
X129561610Y-105830000D01*
X128075748Y-105830000D01*
X128097518Y-105792292D01*
X128135000Y-105652409D01*
X128135000Y-105507591D01*
X128097518Y-105367708D01*
X128075748Y-105330000D01*
X129561610Y-105330000D01*
X129578011Y-105310796D01*
X129578230Y-105309104D01*
X129623226Y-105255652D01*
X129689978Y-105235013D01*
X129691748Y-105235000D01*
X132516351Y-105235000D01*
X132526497Y-105234455D01*
X132570389Y-105232103D01*
X132570397Y-105232102D01*
X132570399Y-105232102D01*
X132570400Y-105232102D01*
X132577393Y-105231349D01*
X132596747Y-105229269D01*
X132596757Y-105229267D01*
X132596760Y-105229267D01*
X132606359Y-105227711D01*
X132650159Y-105220614D01*
X132784968Y-105170332D01*
X132846291Y-105136847D01*
X132961473Y-105050623D01*
X135522472Y-102489623D01*
X135534980Y-102476661D01*
X135541012Y-102470183D01*
X135553093Y-102456735D01*
X135630880Y-102335695D01*
X135659727Y-102272528D01*
X135659902Y-102272148D01*
X135659905Y-102272139D01*
X135659907Y-102272136D01*
X135700441Y-102134083D01*
X135700440Y-101990203D01*
X135693273Y-101940360D01*
X135703214Y-101871205D01*
X135748968Y-101818399D01*
X135759706Y-101812233D01*
X135916610Y-101732287D01*
X135966144Y-101696298D01*
X136082213Y-101611971D01*
X136082215Y-101611968D01*
X136082219Y-101611966D01*
X136226966Y-101467219D01*
X136226968Y-101467215D01*
X136226971Y-101467213D01*
X136347284Y-101301614D01*
X136347283Y-101301614D01*
X136347287Y-101301610D01*
X136424022Y-101151008D01*
X136471997Y-101100213D01*
X136539818Y-101083418D01*
X136560860Y-101086137D01*
X136573879Y-101088969D01*
X136597109Y-101090630D01*
X136643569Y-101093953D01*
X136643571Y-101093953D01*
X136643572Y-101093953D01*
X136653150Y-101093267D01*
X136787082Y-101083689D01*
X136921891Y-101033407D01*
X136983214Y-100999922D01*
X137098395Y-100913699D01*
X138839761Y-99172332D01*
X138901080Y-99138850D01*
X138970771Y-99143834D01*
G37*
G04 #@! TD.AperFunction*
G04 #@! TD*
M02*
