M48
; DRILL file {KiCad 9.0.7} date 2026-05-21T18:36:05-0600
; FORMAT={-:-/ absolute / metric / decimal}
; #@! TF.CreationDate,2026-05-21T18:36:05-06:00
; #@! TF.GenerationSoftware,Kicad,Pcbnew,9.0.7
; #@! TF.FileFunction,MixedPlating,1,2
FMAT,2
METRIC
; #@! TA.AperFunction,Plated,PTH,ComponentDrill
T1C0.800
; #@! TA.AperFunction,Plated,PTH,ComponentDrill
T2C0.914
; #@! TA.AperFunction,Plated,PTH,ComponentDrill
T3C1.000
%
G90
G05
T1
X124.49Y-41.95
X124.49Y-44.49
X124.49Y-47.03
X124.49Y-49.57
X124.49Y-52.11
X124.49Y-54.65
X124.49Y-57.19
X124.49Y-59.73
X124.49Y-62.27
X131.281Y-67.208
X132.11Y-41.95
X132.11Y-44.49
X132.11Y-47.03
X132.11Y-49.57
X132.11Y-52.11
X132.11Y-54.65
X132.11Y-57.19
X132.11Y-59.73
X132.11Y-62.27
X133.781Y-67.208
X137.8Y-57.23
X137.8Y-62.23
X142.61Y-40.945
X143.6Y-60.97
X143.89Y-49.62
X143.89Y-52.16
X143.89Y-54.7
X147.61Y-40.945
X151.22Y-60.97
X152.45Y-43.53
X152.45Y-51.15
T2
X109.67Y-42.03
X109.67Y-44.57
X109.67Y-47.11
X109.67Y-49.65
X109.67Y-52.19
X109.67Y-54.73
X109.67Y-57.27
X109.67Y-59.81
X109.67Y-62.35
X109.67Y-64.89
X117.29Y-42.03
X117.29Y-44.57
X117.29Y-47.11
X117.29Y-49.65
X117.29Y-52.19
X117.29Y-54.73
X117.29Y-57.27
X117.29Y-59.81
X117.29Y-62.35
X117.29Y-64.89
T3
X159.92Y-51.93
X159.92Y-54.47
X159.92Y-57.01
X159.92Y-59.55
M30
