%TF.GenerationSoftware,KiCad,Pcbnew,9.0.7*%
%TF.CreationDate,2026-05-21T18:36:09-06:00*%
%TF.ProjectId,Planta_Barra_Ledss,506c616e-7461-45f4-9261-7272615f4c65,rev?*%
%TF.SameCoordinates,Original*%
%TF.FileFunction,Copper,L2,Bot*%
%TF.FilePolarity,Positive*%
%FSLAX46Y46*%
G04 Gerber Fmt 4.6, Leading zero omitted, Abs format (unit mm)*
G04 Created by KiCad (PCBNEW 9.0.7) date 2026-05-21 18:36:09*
%MOMM*%
%LPD*%
G01*
G04 APERTURE LIST*
G04 Aperture macros list*
%AMRoundRect*
0 Rectangle with rounded corners*
0 $1 Rounding radius*
0 $2 $3 $4 $5 $6 $7 $8 $9 X,Y pos of 4 corners*
0 Add a 4 corners polygon primitive as box body*
4,1,4,$2,$3,$4,$5,$6,$7,$8,$9,$2,$3,0*
0 Add four circle primitives for the rounded corners*
1,1,$1+$1,$2,$3*
1,1,$1+$1,$4,$5*
1,1,$1+$1,$6,$7*
1,1,$1+$1,$8,$9*
0 Add four rect primitives between the rounded corners*
20,1,$1+$1,$2,$3,$4,$5,0*
20,1,$1+$1,$4,$5,$6,$7,0*
20,1,$1+$1,$6,$7,$8,$9,0*
20,1,$1+$1,$8,$9,$2,$3,0*%
G04 Aperture macros list end*
%TA.AperFunction,ComponentPad*%
%ADD10O,3.000000X1.600000*%
%TD*%
%TA.AperFunction,ComponentPad*%
%ADD11RoundRect,0.250000X-0.550000X-0.550000X0.550000X-0.550000X0.550000X0.550000X-0.550000X0.550000X0*%
%TD*%
%TA.AperFunction,ComponentPad*%
%ADD12C,1.600000*%
%TD*%
%TA.AperFunction,ComponentPad*%
%ADD13O,3.000000X1.700000*%
%TD*%
%TA.AperFunction,Conductor*%
%ADD14C,0.700000*%
%TD*%
G04 APERTURE END LIST*
D10*
%TO.P,U1,1,LED1*%
%TO.N,/LED10*%
X132110000Y-62270000D03*
%TO.P,U1,2,V-*%
%TO.N,GND*%
X132110000Y-59730000D03*
%TO.P,U1,3,V+*%
%TO.N,/9V*%
X132110000Y-57190000D03*
%TO.P,U1,4,RLO*%
%TO.N,GND*%
X132110000Y-54650000D03*
%TO.P,U1,5,SIG*%
%TO.N,/ANALOG_FB*%
X132110000Y-52110000D03*
%TO.P,U1,6,RHI*%
%TO.N,Net-(U1-REFOUT)*%
X132110000Y-49570000D03*
%TO.P,U1,7,REFOUT*%
X132110000Y-47030000D03*
%TO.P,U1,8,REFADJ*%
%TO.N,Net-(U1-REFADJ)*%
X132110000Y-44490000D03*
%TO.P,U1,9,MODE*%
%TO.N,/9V*%
X132110000Y-41950000D03*
%TO.P,U1,10,LED10*%
%TO.N,/LED1*%
X124490000Y-41950000D03*
%TO.P,U1,11,LED9*%
%TO.N,/LED2*%
X124490000Y-44490000D03*
%TO.P,U1,12,LED8*%
%TO.N,/LED3*%
X124490000Y-47030000D03*
%TO.P,U1,13,LED7*%
%TO.N,/LED4*%
X124490000Y-49570000D03*
%TO.P,U1,14,LED6*%
%TO.N,/LED5*%
X124490000Y-52110000D03*
%TO.P,U1,15,LED5*%
%TO.N,/LED6*%
X124490000Y-54650000D03*
%TO.P,U1,16,LED4*%
%TO.N,/LED7*%
X124490000Y-57190000D03*
%TO.P,U1,17,LED3*%
%TO.N,/LED8*%
X124490000Y-59730000D03*
%TO.P,U1,18,LED2*%
%TO.N,/LED9*%
X124490000Y-62270000D03*
%TD*%
%TO.P,RV1,1,1*%
%TO.N,Net-(U1-REFADJ)*%
X143890000Y-49620000D03*
%TO.P,RV1,2,2*%
X143890000Y-52160000D03*
%TO.P,RV1,3,3*%
%TO.N,GND*%
X143890000Y-54700000D03*
%TD*%
%TO.P,C2,*%
%TO.N,GND*%
X137800000Y-62230000D03*
%TO.P,C2,1*%
%TO.N,/9V*%
X137800000Y-57230000D03*
%TD*%
%TO.P,R2,1*%
%TO.N,Net-(U1-REFADJ)*%
X151220000Y-60970000D03*
%TO.P,R2,2*%
%TO.N,Net-(U1-REFOUT)*%
X143600000Y-60970000D03*
%TD*%
%TO.P,BAR1,1,A*%
%TO.N,/9V*%
X109670000Y-42030000D03*
%TO.P,BAR1,2,A*%
X109670000Y-44570000D03*
%TO.P,BAR1,3,A*%
X109670000Y-47110000D03*
%TO.P,BAR1,4,A*%
X109670000Y-49650000D03*
%TO.P,BAR1,5,A*%
X109670000Y-52190000D03*
%TO.P,BAR1,6,A*%
X109670000Y-54730000D03*
%TO.P,BAR1,7,A*%
X109670000Y-57270000D03*
%TO.P,BAR1,8,A*%
X109670000Y-59810000D03*
%TO.P,BAR1,9,A*%
X109670000Y-62350000D03*
%TO.P,BAR1,10,A*%
X109670000Y-64890000D03*
%TO.P,BAR1,11,K*%
%TO.N,/LED10*%
X117290000Y-64890000D03*
%TO.P,BAR1,12,K*%
%TO.N,/LED9*%
X117290000Y-62350000D03*
%TO.P,BAR1,13,K*%
%TO.N,/LED8*%
X117290000Y-59810000D03*
%TO.P,BAR1,14,K*%
%TO.N,/LED7*%
X117290000Y-57270000D03*
%TO.P,BAR1,15,K*%
%TO.N,/LED6*%
X117290000Y-54730000D03*
%TO.P,BAR1,16,K*%
%TO.N,/LED5*%
X117290000Y-52190000D03*
%TO.P,BAR1,17,K*%
%TO.N,/LED4*%
X117290000Y-49650000D03*
%TO.P,BAR1,18,K*%
%TO.N,/LED3*%
X117290000Y-47110000D03*
%TO.P,BAR1,19,K*%
%TO.N,/LED2*%
X117290000Y-44570000D03*
%TO.P,BAR1,20,K*%
%TO.N,/LED1*%
X117290000Y-42030000D03*
%TD*%
D11*
%TO.P,C3,1*%
%TO.N,/9V*%
X131281288Y-67208400D03*
D12*
%TO.P,C3,2*%
%TO.N,GND*%
X133781288Y-67208400D03*
%TD*%
D10*
%TO.P,C1,*%
%TO.N,/ANALOG_FB*%
X147610200Y-40944800D03*
%TO.P,C1,2*%
%TO.N,GND*%
X142610200Y-40944800D03*
%TD*%
%TO.P,R1,1*%
%TO.N,/PWM*%
X152450000Y-51150000D03*
%TO.P,R1,2*%
%TO.N,/ANALOG_FB*%
X152450000Y-43530000D03*
%TD*%
D13*
%TO.P,J1,1,Pin_1*%
%TO.N,/9V*%
X159920000Y-59550000D03*
%TO.P,J1,2,Pin_2*%
%TO.N,GND*%
X159920000Y-57010000D03*
%TO.P,J1,3,Pin_3*%
%TO.N,/PWM*%
X159920000Y-54470000D03*
%TO.P,J1,4,Pin_4*%
%TO.N,/ANALOG_FB*%
X159920000Y-51930000D03*
%TD*%
D14*
%TO.N,/LED4*%
X124410000Y-49650000D02*
X124490000Y-49570000D01*
X117290000Y-49650000D02*
X124410000Y-49650000D01*
%TO.N,/9V*%
X137800000Y-58831400D02*
X141909800Y-62941200D01*
X111988400Y-67208400D02*
X109670000Y-64890000D01*
X157720000Y-59550000D02*
X140120000Y-41950000D01*
X156528800Y-62941200D02*
X159920000Y-59550000D01*
X141909800Y-62941200D02*
X156528800Y-62941200D01*
X137760000Y-57190000D02*
X137800000Y-57230000D01*
X131281288Y-67208400D02*
X111988400Y-67208400D01*
X109670000Y-64890000D02*
X109670000Y-42030000D01*
X132110000Y-57190000D02*
X137760000Y-57190000D01*
X140120000Y-41950000D02*
X132110000Y-41950000D01*
X137800000Y-57230000D02*
X137800000Y-58831400D01*
X159920000Y-59550000D02*
X157720000Y-59550000D01*
%TO.N,/LED6*%
X124410000Y-54730000D02*
X124490000Y-54650000D01*
X117290000Y-54730000D02*
X124410000Y-54730000D01*
%TO.N,/LED10*%
X129490000Y-64890000D02*
X132110000Y-62270000D01*
X117290000Y-64890000D02*
X129490000Y-64890000D01*
%TO.N,/LED1*%
X124410000Y-42030000D02*
X124490000Y-41950000D01*
X117290000Y-42030000D02*
X124410000Y-42030000D01*
%TO.N,/LED5*%
X124410000Y-52190000D02*
X124490000Y-52110000D01*
X117290000Y-52190000D02*
X124410000Y-52190000D01*
%TO.N,/LED3*%
X124410000Y-47110000D02*
X124490000Y-47030000D01*
X117290000Y-47110000D02*
X124410000Y-47110000D01*
%TO.N,/LED9*%
X124410000Y-62350000D02*
X124490000Y-62270000D01*
X117290000Y-62350000D02*
X124410000Y-62350000D01*
%TO.N,/LED2*%
X117290000Y-44570000D02*
X124410000Y-44570000D01*
X124410000Y-44570000D02*
X124490000Y-44490000D01*
%TO.N,/LED7*%
X117290000Y-57270000D02*
X124410000Y-57270000D01*
X124410000Y-57270000D02*
X124490000Y-57190000D01*
%TO.N,/LED8*%
X124410000Y-59810000D02*
X124490000Y-59730000D01*
X117290000Y-59810000D02*
X124410000Y-59810000D01*
%TO.N,/ANALOG_FB*%
X131310000Y-52110000D02*
X132110000Y-52110000D01*
X147610200Y-40944800D02*
X149864800Y-40944800D01*
X129362200Y-42037000D02*
X129362200Y-50162200D01*
X159920000Y-51000000D02*
X159920000Y-51930000D01*
X149864800Y-40944800D02*
X152450000Y-43530000D01*
X145603600Y-38938200D02*
X132461000Y-38938200D01*
X129362200Y-50162200D02*
X131310000Y-52110000D01*
X152450000Y-43530000D02*
X159920000Y-51000000D01*
X147610200Y-40944800D02*
X145603600Y-38938200D01*
X132461000Y-38938200D02*
X129362200Y-42037000D01*
%TO.N,/PWM*%
X155770000Y-54470000D02*
X152450000Y-51150000D01*
X159920000Y-54470000D02*
X155770000Y-54470000D01*
%TO.N,Net-(U1-REFADJ)*%
X138760000Y-44490000D02*
X143890000Y-49620000D01*
X151220000Y-60970000D02*
X151220000Y-58790000D01*
X132110000Y-44490000D02*
X138760000Y-44490000D01*
X144590000Y-52160000D02*
X143890000Y-52160000D01*
X151220000Y-58790000D02*
X144590000Y-52160000D01*
X143890000Y-49620000D02*
X143890000Y-52160000D01*
%TO.N,Net-(U1-REFOUT)*%
X132910000Y-49570000D02*
X143600000Y-60260000D01*
X132110000Y-49570000D02*
X132910000Y-49570000D01*
X143600000Y-60260000D02*
X143600000Y-60970000D01*
X132110000Y-49570000D02*
X132110000Y-47030000D01*
%TD*%
%TA.AperFunction,NonConductor*%
G36*
X162211601Y-37488785D02*
G01*
X162257356Y-37541589D01*
X162268546Y-37591087D01*
X162301297Y-39607981D01*
X162336762Y-41792013D01*
X162338884Y-41922659D01*
X162338900Y-41924672D01*
X162338900Y-72121100D01*
X162319215Y-72188139D01*
X162266411Y-72233894D01*
X162214900Y-72245100D01*
X105394500Y-72245100D01*
X105327461Y-72225415D01*
X105281706Y-72172611D01*
X105270500Y-72121100D01*
X105270500Y-41927648D01*
X107669500Y-41927648D01*
X107669500Y-42132351D01*
X107701522Y-42334534D01*
X107764781Y-42529223D01*
X107769271Y-42538034D01*
X107843026Y-42682786D01*
X107857715Y-42711613D01*
X107978028Y-42877213D01*
X108122786Y-43021971D01*
X108277749Y-43134556D01*
X108288390Y-43142287D01*
X108379840Y-43188883D01*
X108381080Y-43189515D01*
X108431876Y-43237490D01*
X108448671Y-43305311D01*
X108426134Y-43371446D01*
X108381080Y-43410485D01*
X108288386Y-43457715D01*
X108122786Y-43578028D01*
X107978028Y-43722786D01*
X107857715Y-43888386D01*
X107764781Y-44070776D01*
X107701522Y-44265465D01*
X107669500Y-44467648D01*
X107669500Y-44672351D01*
X107701522Y-44874534D01*
X107764781Y-45069223D01*
X107857715Y-45251613D01*
X107978028Y-45417213D01*
X108122786Y-45561971D01*
X108277749Y-45674556D01*
X108288390Y-45682287D01*
X108379840Y-45728883D01*
X108381080Y-45729515D01*
X108431876Y-45777490D01*
X108448671Y-45845311D01*
X108426134Y-45911446D01*
X108381080Y-45950485D01*
X108288386Y-45997715D01*
X108122786Y-46118028D01*
X107978028Y-46262786D01*
X107857715Y-46428386D01*
X107764781Y-46610776D01*
X107701522Y-46805465D01*
X107669500Y-47007648D01*
X107669500Y-47212351D01*
X107701522Y-47414534D01*
X107764781Y-47609223D01*
X107857715Y-47791613D01*
X107978028Y-47957213D01*
X108122786Y-48101971D01*
X108277749Y-48214556D01*
X108288390Y-48222287D01*
X108346307Y-48251797D01*
X108381080Y-48269515D01*
X108431876Y-48317490D01*
X108448671Y-48385311D01*
X108426134Y-48451446D01*
X108381080Y-48490485D01*
X108288386Y-48537715D01*
X108122786Y-48658028D01*
X107978028Y-48802786D01*
X107857715Y-48968386D01*
X107764781Y-49150776D01*
X107701522Y-49345465D01*
X107669500Y-49547648D01*
X107669500Y-49752351D01*
X107701522Y-49954534D01*
X107764781Y-50149223D01*
X107816951Y-50251610D01*
X107843026Y-50302786D01*
X107857715Y-50331613D01*
X107978028Y-50497213D01*
X108122786Y-50641971D01*
X108247094Y-50732284D01*
X108288390Y-50762287D01*
X108371071Y-50804415D01*
X108381080Y-50809515D01*
X108431876Y-50857490D01*
X108448671Y-50925311D01*
X108426134Y-50991446D01*
X108381080Y-51030485D01*
X108288386Y-51077715D01*
X108122786Y-51198028D01*
X107978028Y-51342786D01*
X107857715Y-51508386D01*
X107764781Y-51690776D01*
X107701522Y-51885465D01*
X107669500Y-52087648D01*
X107669500Y-52292351D01*
X107701522Y-52494534D01*
X107764781Y-52689223D01*
X107857715Y-52871613D01*
X107978028Y-53037213D01*
X108122786Y-53181971D01*
X108245942Y-53271447D01*
X108288390Y-53302287D01*
X108379840Y-53348883D01*
X108381080Y-53349515D01*
X108431876Y-53397490D01*
X108448671Y-53465311D01*
X108426134Y-53531446D01*
X108381080Y-53570485D01*
X108288386Y-53617715D01*
X108122786Y-53738028D01*
X107978028Y-53882786D01*
X107857715Y-54048386D01*
X107764781Y-54230776D01*
X107701522Y-54425465D01*
X107669500Y-54627648D01*
X107669500Y-54832351D01*
X107701522Y-55034534D01*
X107764781Y-55229223D01*
X107857715Y-55411613D01*
X107978028Y-55577213D01*
X108122786Y-55721971D01*
X108245942Y-55811447D01*
X108288390Y-55842287D01*
X108379840Y-55888883D01*
X108381080Y-55889515D01*
X108431876Y-55937490D01*
X108448671Y-56005311D01*
X108426134Y-56071446D01*
X108381080Y-56110485D01*
X108288386Y-56157715D01*
X108122786Y-56278028D01*
X107978028Y-56422786D01*
X107857715Y-56588386D01*
X107764781Y-56770776D01*
X107701522Y-56965465D01*
X107669500Y-57167648D01*
X107669500Y-57372351D01*
X107701522Y-57574534D01*
X107764781Y-57769223D01*
X107816951Y-57871610D01*
X107837332Y-57911611D01*
X107857715Y-57951613D01*
X107978028Y-58117213D01*
X108122786Y-58261971D01*
X108245942Y-58351447D01*
X108288390Y-58382287D01*
X108379840Y-58428883D01*
X108381080Y-58429515D01*
X108431876Y-58477490D01*
X108448671Y-58545311D01*
X108426134Y-58611446D01*
X108381080Y-58650485D01*
X108288386Y-58697715D01*
X108122786Y-58818028D01*
X107978028Y-58962786D01*
X107857715Y-59128386D01*
X107764781Y-59310776D01*
X107701522Y-59505465D01*
X107669500Y-59707648D01*
X107669500Y-59912351D01*
X107701522Y-60114534D01*
X107764781Y-60309223D01*
X107816951Y-60411610D01*
X107855150Y-60486580D01*
X107857715Y-60491613D01*
X107978028Y-60657213D01*
X108122786Y-60801971D01*
X108277749Y-60914556D01*
X108288390Y-60922287D01*
X108365393Y-60961522D01*
X108381080Y-60969515D01*
X108431876Y-61017490D01*
X108448671Y-61085311D01*
X108426134Y-61151446D01*
X108381080Y-61190485D01*
X108288386Y-61237715D01*
X108122786Y-61358028D01*
X107978028Y-61502786D01*
X107857715Y-61668386D01*
X107764781Y-61850776D01*
X107701522Y-62045465D01*
X107669500Y-62247648D01*
X107669500Y-62452351D01*
X107701522Y-62654534D01*
X107764781Y-62849223D01*
X107857715Y-63031613D01*
X107978028Y-63197213D01*
X108122786Y-63341971D01*
X108251132Y-63435218D01*
X108288390Y-63462287D01*
X108359417Y-63498477D01*
X108381080Y-63509515D01*
X108431876Y-63557490D01*
X108448671Y-63625311D01*
X108426134Y-63691446D01*
X108381080Y-63730485D01*
X108288386Y-63777715D01*
X108122786Y-63898028D01*
X107978028Y-64042786D01*
X107857715Y-64208386D01*
X107764781Y-64390776D01*
X107701522Y-64585465D01*
X107669500Y-64787648D01*
X107669500Y-64992351D01*
X107701522Y-65194534D01*
X107764781Y-65389223D01*
X107857715Y-65571613D01*
X107978028Y-65737213D01*
X108122786Y-65881971D01*
X108277749Y-65994556D01*
X108288390Y-66002287D01*
X108404607Y-66061503D01*
X108470776Y-66095218D01*
X108470778Y-66095218D01*
X108470781Y-66095220D01*
X108534640Y-66115969D01*
X108665465Y-66158477D01*
X108766557Y-66174488D01*
X108867648Y-66190500D01*
X109716349Y-66190500D01*
X109783388Y-66210185D01*
X109804030Y-66226819D01*
X111446234Y-67869024D01*
X111446238Y-67869027D01*
X111585532Y-67962101D01*
X111585533Y-67962101D01*
X111585537Y-67962104D01*
X111692510Y-68006413D01*
X111740318Y-68026216D01*
X111888108Y-68055613D01*
X111904628Y-68058899D01*
X111904632Y-68058900D01*
X111904633Y-68058900D01*
X129965650Y-68058900D01*
X130032689Y-68078585D01*
X130071187Y-68117801D01*
X130138576Y-68227056D01*
X130262632Y-68351112D01*
X130411954Y-68443214D01*
X130578491Y-68498399D01*
X130681279Y-68508900D01*
X131881296Y-68508899D01*
X131984085Y-68498399D01*
X132150622Y-68443214D01*
X132299944Y-68351112D01*
X132424000Y-68227056D01*
X132516102Y-68077734D01*
X132530714Y-68033637D01*
X132570483Y-67976196D01*
X132634999Y-67949372D01*
X132703775Y-67961686D01*
X132748736Y-67999758D01*
X132789320Y-68055617D01*
X132934074Y-68200371D01*
X133089037Y-68312956D01*
X133099678Y-68320687D01*
X133215895Y-68379903D01*
X133282064Y-68413618D01*
X133282066Y-68413618D01*
X133282069Y-68413620D01*
X133373144Y-68443212D01*
X133476753Y-68476877D01*
X133577845Y-68492888D01*
X133678936Y-68508900D01*
X133678937Y-68508900D01*
X133883639Y-68508900D01*
X133883640Y-68508900D01*
X134085822Y-68476877D01*
X134280507Y-68413620D01*
X134462898Y-68320687D01*
X134591770Y-68227057D01*
X134628501Y-68200371D01*
X134628503Y-68200368D01*
X134628507Y-68200366D01*
X134773254Y-68055619D01*
X134773256Y-68055615D01*
X134773259Y-68055613D01*
X134850446Y-67949372D01*
X134893575Y-67890010D01*
X134986508Y-67707619D01*
X135049765Y-67512934D01*
X135081788Y-67310752D01*
X135081788Y-67106048D01*
X135049765Y-66903866D01*
X134986508Y-66709181D01*
X134986506Y-66709178D01*
X134986506Y-66709176D01*
X134935153Y-66608392D01*
X134893575Y-66526790D01*
X134844837Y-66459707D01*
X134773259Y-66361186D01*
X134628501Y-66216428D01*
X134462901Y-66096115D01*
X134462900Y-66096114D01*
X134462898Y-66096113D01*
X134403186Y-66065688D01*
X134280511Y-66003181D01*
X134085822Y-65939922D01*
X133911283Y-65912278D01*
X133883640Y-65907900D01*
X133678936Y-65907900D01*
X133654617Y-65911751D01*
X133476753Y-65939922D01*
X133282064Y-66003181D01*
X133099674Y-66096115D01*
X132934074Y-66216428D01*
X132789320Y-66361182D01*
X132789319Y-66361184D01*
X132748735Y-66417042D01*
X132693405Y-66459707D01*
X132623791Y-66465685D01*
X132561997Y-66433078D01*
X132530713Y-66383160D01*
X132516102Y-66339066D01*
X132424000Y-66189744D01*
X132299944Y-66065688D01*
X132150622Y-65973586D01*
X131984085Y-65918401D01*
X131984083Y-65918400D01*
X131881298Y-65907900D01*
X130681286Y-65907900D01*
X130681269Y-65907901D01*
X130578491Y-65918400D01*
X130578488Y-65918401D01*
X130411956Y-65973585D01*
X130411951Y-65973587D01*
X130262630Y-66065689D01*
X130138577Y-66189742D01*
X130120058Y-66219766D01*
X130079569Y-66285411D01*
X130071189Y-66298997D01*
X130019241Y-66345721D01*
X129965650Y-66357900D01*
X118463678Y-66357900D01*
X118396639Y-66338215D01*
X118350884Y-66285411D01*
X118340940Y-66216253D01*
X118369965Y-66152697D01*
X118425357Y-66115969D01*
X118489219Y-66095220D01*
X118671610Y-66002287D01*
X118787070Y-65918401D01*
X118837213Y-65881971D01*
X118837215Y-65881968D01*
X118837219Y-65881966D01*
X118942366Y-65776819D01*
X119003689Y-65743334D01*
X119030047Y-65740500D01*
X129573768Y-65740500D01*
X129573769Y-65740499D01*
X129628538Y-65729605D01*
X129738074Y-65707818D01*
X129738078Y-65707816D01*
X129738082Y-65707816D01*
X129783415Y-65689037D01*
X129892863Y-65643704D01*
X130032162Y-65550627D01*
X131975970Y-63606819D01*
X132037293Y-63573334D01*
X132063651Y-63570500D01*
X132912351Y-63570500D01*
X132912352Y-63570500D01*
X133114534Y-63538477D01*
X133309219Y-63475220D01*
X133491610Y-63382287D01*
X133584590Y-63314732D01*
X133657213Y-63261971D01*
X133657215Y-63261968D01*
X133657219Y-63261966D01*
X133801966Y-63117219D01*
X133801968Y-63117215D01*
X133801971Y-63117213D01*
X133864164Y-63031610D01*
X133922287Y-62951610D01*
X134015220Y-62769219D01*
X134078477Y-62574534D01*
X134110500Y-62372352D01*
X134110500Y-62167648D01*
X134078477Y-61965466D01*
X134052493Y-61885497D01*
X134049127Y-61875137D01*
X134015220Y-61770781D01*
X134015218Y-61770778D01*
X134015218Y-61770776D01*
X133963047Y-61668386D01*
X133922287Y-61588390D01*
X133860093Y-61502786D01*
X133801971Y-61422786D01*
X133657213Y-61278028D01*
X133491614Y-61157715D01*
X133479310Y-61151446D01*
X133398917Y-61110483D01*
X133348123Y-61062511D01*
X133331328Y-60994690D01*
X133353865Y-60928555D01*
X133398917Y-60889516D01*
X133491610Y-60842287D01*
X133547108Y-60801966D01*
X133657213Y-60721971D01*
X133657215Y-60721968D01*
X133657219Y-60721966D01*
X133801966Y-60577219D01*
X133801968Y-60577215D01*
X133801971Y-60577213D01*
X133864696Y-60490878D01*
X133922287Y-60411610D01*
X134015220Y-60229219D01*
X134078477Y-60034534D01*
X134110500Y-59832352D01*
X134110500Y-59627648D01*
X134078477Y-59425466D01*
X134061612Y-59373562D01*
X134049127Y-59335137D01*
X134015220Y-59230781D01*
X134015218Y-59230778D01*
X134015218Y-59230776D01*
X133963047Y-59128386D01*
X133922287Y-59048390D01*
X133860093Y-58962786D01*
X133801971Y-58882786D01*
X133657213Y-58738028D01*
X133491614Y-58617715D01*
X133479310Y-58611446D01*
X133398917Y-58570483D01*
X133348123Y-58522511D01*
X133331328Y-58454690D01*
X133353865Y-58388555D01*
X133398917Y-58349516D01*
X133491610Y-58302287D01*
X133547108Y-58261966D01*
X133657213Y-58181971D01*
X133657215Y-58181968D01*
X133657219Y-58181966D01*
X133762366Y-58076819D01*
X133823689Y-58043334D01*
X133850047Y-58040500D01*
X136019953Y-58040500D01*
X136086992Y-58060185D01*
X136107634Y-58076819D01*
X136252786Y-58221971D01*
X136358043Y-58298443D01*
X136418390Y-58342287D01*
X136600781Y-58435220D01*
X136730875Y-58477490D01*
X136795465Y-58498477D01*
X136844897Y-58506306D01*
X136908032Y-58536235D01*
X136944964Y-58595546D01*
X136949500Y-58628779D01*
X136949500Y-58915171D01*
X136981504Y-59076070D01*
X136981505Y-59076070D01*
X136982184Y-59079481D01*
X136982185Y-59079486D01*
X137046296Y-59234263D01*
X137046297Y-59234266D01*
X137139372Y-59373561D01*
X137139375Y-59373565D01*
X138483630Y-60717819D01*
X138517115Y-60779142D01*
X138512131Y-60848834D01*
X138470259Y-60904767D01*
X138404795Y-60929184D01*
X138395949Y-60929500D01*
X136997648Y-60929500D01*
X136973329Y-60933351D01*
X136795465Y-60961522D01*
X136600776Y-61024781D01*
X136418386Y-61117715D01*
X136252786Y-61238028D01*
X136108028Y-61382786D01*
X135987715Y-61548386D01*
X135894781Y-61730776D01*
X135831522Y-61925465D01*
X135799500Y-62127648D01*
X135799500Y-62332351D01*
X135831522Y-62534534D01*
X135894781Y-62729223D01*
X135987715Y-62911613D01*
X136108028Y-63077213D01*
X136252786Y-63221971D01*
X136407749Y-63334556D01*
X136418390Y-63342287D01*
X136534607Y-63401503D01*
X136600776Y-63435218D01*
X136600778Y-63435218D01*
X136600781Y-63435220D01*
X136684085Y-63462287D01*
X136795465Y-63498477D01*
X136865156Y-63509515D01*
X136997648Y-63530500D01*
X136997649Y-63530500D01*
X138602351Y-63530500D01*
X138602352Y-63530500D01*
X138804534Y-63498477D01*
X138999219Y-63435220D01*
X139181610Y-63342287D01*
X139274590Y-63274732D01*
X139347213Y-63221971D01*
X139347215Y-63221968D01*
X139347219Y-63221966D01*
X139491966Y-63077219D01*
X139491968Y-63077215D01*
X139491971Y-63077213D01*
X139583223Y-62951613D01*
X139612287Y-62911610D01*
X139705220Y-62729219D01*
X139768477Y-62534534D01*
X139800500Y-62332352D01*
X139800500Y-62332349D01*
X139800883Y-62327489D01*
X139802391Y-62327607D01*
X139820185Y-62267012D01*
X139872989Y-62221257D01*
X139942147Y-62211313D01*
X140005703Y-62240338D01*
X140012181Y-62246370D01*
X141367634Y-63601824D01*
X141367638Y-63601827D01*
X141506937Y-63694904D01*
X141506939Y-63694905D01*
X141506943Y-63694907D01*
X141589022Y-63728903D01*
X141616384Y-63740237D01*
X141661718Y-63759016D01*
X141755715Y-63777713D01*
X141826028Y-63791699D01*
X141826032Y-63791700D01*
X141826033Y-63791700D01*
X156612568Y-63791700D01*
X156612569Y-63791699D01*
X156682885Y-63777713D01*
X156776874Y-63759018D01*
X156776878Y-63759016D01*
X156776882Y-63759016D01*
X156822215Y-63740237D01*
X156931663Y-63694904D01*
X157070962Y-63601827D01*
X159735970Y-60936819D01*
X159797293Y-60903334D01*
X159823651Y-60900500D01*
X160676286Y-60900500D01*
X160676287Y-60900500D01*
X160886243Y-60867246D01*
X161088412Y-60801557D01*
X161277816Y-60705051D01*
X161312041Y-60680185D01*
X161449786Y-60580109D01*
X161449788Y-60580106D01*
X161449792Y-60580104D01*
X161600104Y-60429792D01*
X161600106Y-60429788D01*
X161600109Y-60429786D01*
X161725048Y-60257820D01*
X161725047Y-60257820D01*
X161725051Y-60257816D01*
X161821557Y-60068412D01*
X161887246Y-59866243D01*
X161920500Y-59656287D01*
X161920500Y-59443713D01*
X161887246Y-59233757D01*
X161821557Y-59031588D01*
X161725051Y-58842184D01*
X161725049Y-58842181D01*
X161725048Y-58842179D01*
X161600109Y-58670213D01*
X161449786Y-58519890D01*
X161277820Y-58394951D01*
X161277115Y-58394591D01*
X161269054Y-58390485D01*
X161218259Y-58342512D01*
X161201463Y-58274692D01*
X161223999Y-58208556D01*
X161269054Y-58169515D01*
X161277816Y-58165051D01*
X161343660Y-58117213D01*
X161449786Y-58040109D01*
X161449788Y-58040106D01*
X161449792Y-58040104D01*
X161600104Y-57889792D01*
X161600106Y-57889788D01*
X161600109Y-57889786D01*
X161725048Y-57717820D01*
X161725047Y-57717820D01*
X161725051Y-57717816D01*
X161821557Y-57528412D01*
X161887246Y-57326243D01*
X161920500Y-57116287D01*
X161920500Y-56903713D01*
X161887246Y-56693757D01*
X161821557Y-56491588D01*
X161725051Y-56302184D01*
X161725049Y-56302181D01*
X161725048Y-56302179D01*
X161600109Y-56130213D01*
X161449786Y-55979890D01*
X161277820Y-55854951D01*
X161277115Y-55854591D01*
X161269054Y-55850485D01*
X161218259Y-55802512D01*
X161201463Y-55734692D01*
X161223999Y-55668556D01*
X161269054Y-55629515D01*
X161277816Y-55625051D01*
X161343660Y-55577213D01*
X161449786Y-55500109D01*
X161449788Y-55500106D01*
X161449792Y-55500104D01*
X161600104Y-55349792D01*
X161600106Y-55349788D01*
X161600109Y-55349786D01*
X161725048Y-55177820D01*
X161725047Y-55177820D01*
X161725051Y-55177816D01*
X161821557Y-54988412D01*
X161887246Y-54786243D01*
X161920500Y-54576287D01*
X161920500Y-54363713D01*
X161887246Y-54153757D01*
X161821557Y-53951588D01*
X161725051Y-53762184D01*
X161725049Y-53762181D01*
X161725048Y-53762179D01*
X161600109Y-53590213D01*
X161449786Y-53439890D01*
X161277820Y-53314951D01*
X161277115Y-53314591D01*
X161269054Y-53310485D01*
X161218259Y-53262512D01*
X161201463Y-53194692D01*
X161223999Y-53128556D01*
X161269054Y-53089515D01*
X161277816Y-53085051D01*
X161343660Y-53037213D01*
X161449786Y-52960109D01*
X161449788Y-52960106D01*
X161449792Y-52960104D01*
X161600104Y-52809792D01*
X161600106Y-52809788D01*
X161600109Y-52809786D01*
X161725048Y-52637820D01*
X161725047Y-52637820D01*
X161725051Y-52637816D01*
X161821557Y-52448412D01*
X161887246Y-52246243D01*
X161920500Y-52036287D01*
X161920500Y-51823713D01*
X161887246Y-51613757D01*
X161821557Y-51411588D01*
X161725051Y-51222184D01*
X161725049Y-51222181D01*
X161725048Y-51222179D01*
X161600109Y-51050213D01*
X161449786Y-50899890D01*
X161277820Y-50774951D01*
X161088414Y-50678444D01*
X161088413Y-50678443D01*
X161088412Y-50678443D01*
X160886243Y-50612754D01*
X160886241Y-50612753D01*
X160886239Y-50612753D01*
X160713788Y-50585439D01*
X160650653Y-50555510D01*
X160630084Y-50531856D01*
X160580629Y-50457842D01*
X160580627Y-50457839D01*
X160533062Y-50410274D01*
X160462162Y-50339374D01*
X154350331Y-44227542D01*
X154316846Y-44166219D01*
X154321830Y-44096527D01*
X154327522Y-44083577D01*
X154355220Y-44029219D01*
X154418477Y-43834534D01*
X154450500Y-43632352D01*
X154450500Y-43427648D01*
X154435111Y-43330485D01*
X154418477Y-43225465D01*
X154365456Y-43062284D01*
X154355220Y-43030781D01*
X154355218Y-43030778D01*
X154355218Y-43030776D01*
X154297153Y-42916819D01*
X154262287Y-42848390D01*
X154227493Y-42800500D01*
X154141971Y-42682786D01*
X153997213Y-42538028D01*
X153831613Y-42417715D01*
X153831612Y-42417714D01*
X153831610Y-42417713D01*
X153774653Y-42388691D01*
X153649223Y-42324781D01*
X153454534Y-42261522D01*
X153279995Y-42233878D01*
X153252352Y-42229500D01*
X153252351Y-42229500D01*
X152403651Y-42229500D01*
X152336612Y-42209815D01*
X152315970Y-42193181D01*
X150406965Y-40284175D01*
X150406961Y-40284172D01*
X150267666Y-40191097D01*
X150267663Y-40191096D01*
X150158216Y-40145762D01*
X150158214Y-40145761D01*
X150112886Y-40126985D01*
X150112874Y-40126982D01*
X149948571Y-40094300D01*
X149948567Y-40094300D01*
X149350247Y-40094300D01*
X149283208Y-40074615D01*
X149262566Y-40057981D01*
X149157413Y-39952828D01*
X148991813Y-39832515D01*
X148991812Y-39832514D01*
X148991810Y-39832513D01*
X148934853Y-39803491D01*
X148809423Y-39739581D01*
X148614734Y-39676322D01*
X148440195Y-39648678D01*
X148412552Y-39644300D01*
X148412551Y-39644300D01*
X147563851Y-39644300D01*
X147496812Y-39624615D01*
X147476170Y-39607981D01*
X146145765Y-38277575D01*
X146145761Y-38277572D01*
X146006466Y-38184497D01*
X146006463Y-38184496D01*
X145897016Y-38139162D01*
X145897014Y-38139161D01*
X145851686Y-38120385D01*
X145851674Y-38120382D01*
X145687371Y-38087700D01*
X145687367Y-38087700D01*
X132377233Y-38087700D01*
X132377228Y-38087700D01*
X132212925Y-38120382D01*
X132212913Y-38120385D01*
X132167583Y-38139162D01*
X132058143Y-38184492D01*
X132058130Y-38184499D01*
X131918838Y-38277572D01*
X131918834Y-38277575D01*
X128701575Y-41494834D01*
X128701572Y-41494838D01*
X128608497Y-41634133D01*
X128608496Y-41634136D01*
X128570667Y-41725465D01*
X128570667Y-41725466D01*
X128544384Y-41788917D01*
X128544382Y-41788925D01*
X128511700Y-41953228D01*
X128511700Y-50245971D01*
X128544382Y-50410274D01*
X128544384Y-50410282D01*
X128554993Y-50435894D01*
X128554993Y-50435895D01*
X128608492Y-50565056D01*
X128608499Y-50565069D01*
X128701572Y-50704361D01*
X128701575Y-50704365D01*
X130073181Y-52075969D01*
X130106666Y-52137292D01*
X130109500Y-52163650D01*
X130109500Y-52212351D01*
X130141522Y-52414534D01*
X130204781Y-52609223D01*
X130297715Y-52791613D01*
X130418028Y-52957213D01*
X130562786Y-53101971D01*
X130672899Y-53181971D01*
X130728390Y-53222287D01*
X130807336Y-53262512D01*
X130821080Y-53269515D01*
X130871876Y-53317490D01*
X130888671Y-53385311D01*
X130866134Y-53451446D01*
X130821080Y-53490485D01*
X130728386Y-53537715D01*
X130562786Y-53658028D01*
X130418028Y-53802786D01*
X130297715Y-53968386D01*
X130204781Y-54150776D01*
X130141522Y-54345465D01*
X130109500Y-54547648D01*
X130109500Y-54752351D01*
X130141522Y-54954534D01*
X130204781Y-55149223D01*
X130245542Y-55229219D01*
X130292052Y-55320500D01*
X130297715Y-55331613D01*
X130418028Y-55497213D01*
X130562786Y-55641971D01*
X130672899Y-55721971D01*
X130728390Y-55762287D01*
X130807336Y-55802512D01*
X130821080Y-55809515D01*
X130871876Y-55857490D01*
X130888671Y-55925311D01*
X130866134Y-55991446D01*
X130821080Y-56030485D01*
X130728386Y-56077715D01*
X130562786Y-56198028D01*
X130418028Y-56342786D01*
X130297715Y-56508386D01*
X130204781Y-56690776D01*
X130141522Y-56885465D01*
X130109500Y-57087648D01*
X130109500Y-57292351D01*
X130141522Y-57494534D01*
X130204781Y-57689223D01*
X130297715Y-57871613D01*
X130418028Y-58037213D01*
X130562786Y-58181971D01*
X130672899Y-58261971D01*
X130728390Y-58302287D01*
X130807336Y-58342512D01*
X130821080Y-58349515D01*
X130871876Y-58397490D01*
X130888671Y-58465311D01*
X130866134Y-58531446D01*
X130821080Y-58570485D01*
X130728386Y-58617715D01*
X130562786Y-58738028D01*
X130418028Y-58882786D01*
X130297715Y-59048386D01*
X130204781Y-59230776D01*
X130141522Y-59425465D01*
X130109500Y-59627648D01*
X130109500Y-59832351D01*
X130141522Y-60034534D01*
X130204781Y-60229223D01*
X130242732Y-60303704D01*
X130292052Y-60400500D01*
X130297715Y-60411613D01*
X130418028Y-60577213D01*
X130562786Y-60721971D01*
X130672899Y-60801971D01*
X130728390Y-60842287D01*
X130819840Y-60888883D01*
X130821080Y-60889515D01*
X130871876Y-60937490D01*
X130888671Y-61005311D01*
X130866134Y-61071446D01*
X130821080Y-61110485D01*
X130728386Y-61157715D01*
X130562786Y-61278028D01*
X130418028Y-61422786D01*
X130297715Y-61588386D01*
X130204781Y-61770776D01*
X130141522Y-61965465D01*
X130109500Y-62167648D01*
X130109500Y-62372351D01*
X130141522Y-62574534D01*
X130204781Y-62769223D01*
X130232471Y-62823566D01*
X130245367Y-62892235D01*
X130219091Y-62956976D01*
X130209667Y-62967542D01*
X129174030Y-64003181D01*
X129112707Y-64036666D01*
X129086349Y-64039500D01*
X119030047Y-64039500D01*
X118963008Y-64019815D01*
X118942366Y-64003181D01*
X118837213Y-63898028D01*
X118671614Y-63777715D01*
X118634911Y-63759014D01*
X118578917Y-63730483D01*
X118528123Y-63682511D01*
X118511328Y-63614690D01*
X118533865Y-63548555D01*
X118578917Y-63509516D01*
X118671610Y-63462287D01*
X118708868Y-63435218D01*
X118837213Y-63341971D01*
X118837215Y-63341968D01*
X118837219Y-63341966D01*
X118942366Y-63236819D01*
X119003689Y-63203334D01*
X119030047Y-63200500D01*
X122829953Y-63200500D01*
X122896992Y-63220185D01*
X122917634Y-63236819D01*
X122942786Y-63261971D01*
X123052899Y-63341971D01*
X123108390Y-63382287D01*
X123212273Y-63435218D01*
X123290776Y-63475218D01*
X123290778Y-63475218D01*
X123290781Y-63475220D01*
X123362359Y-63498477D01*
X123485465Y-63538477D01*
X123549095Y-63548555D01*
X123687648Y-63570500D01*
X123687649Y-63570500D01*
X125292351Y-63570500D01*
X125292352Y-63570500D01*
X125494534Y-63538477D01*
X125689219Y-63475220D01*
X125871610Y-63382287D01*
X125964590Y-63314732D01*
X126037213Y-63261971D01*
X126037215Y-63261968D01*
X126037219Y-63261966D01*
X126181966Y-63117219D01*
X126181968Y-63117215D01*
X126181971Y-63117213D01*
X126244164Y-63031610D01*
X126302287Y-62951610D01*
X126395220Y-62769219D01*
X126458477Y-62574534D01*
X126490500Y-62372352D01*
X126490500Y-62167648D01*
X126458477Y-61965466D01*
X126432493Y-61885497D01*
X126429127Y-61875137D01*
X126395220Y-61770781D01*
X126395218Y-61770778D01*
X126395218Y-61770776D01*
X126343047Y-61668386D01*
X126302287Y-61588390D01*
X126240093Y-61502786D01*
X126181971Y-61422786D01*
X126037213Y-61278028D01*
X125871614Y-61157715D01*
X125859310Y-61151446D01*
X125778917Y-61110483D01*
X125728123Y-61062511D01*
X125711328Y-60994690D01*
X125733865Y-60928555D01*
X125778917Y-60889516D01*
X125871610Y-60842287D01*
X125927108Y-60801966D01*
X126037213Y-60721971D01*
X126037215Y-60721968D01*
X126037219Y-60721966D01*
X126181966Y-60577219D01*
X126181968Y-60577215D01*
X126181971Y-60577213D01*
X126244696Y-60490878D01*
X126302287Y-60411610D01*
X126395220Y-60229219D01*
X126458477Y-60034534D01*
X126490500Y-59832352D01*
X126490500Y-59627648D01*
X126458477Y-59425466D01*
X126441612Y-59373562D01*
X126429127Y-59335137D01*
X126395220Y-59230781D01*
X126395218Y-59230778D01*
X126395218Y-59230776D01*
X126343047Y-59128386D01*
X126302287Y-59048390D01*
X126240093Y-58962786D01*
X126181971Y-58882786D01*
X126037213Y-58738028D01*
X125871614Y-58617715D01*
X125859310Y-58611446D01*
X125778917Y-58570483D01*
X125728123Y-58522511D01*
X125711328Y-58454690D01*
X125733865Y-58388555D01*
X125778917Y-58349516D01*
X125871610Y-58302287D01*
X125927108Y-58261966D01*
X126037213Y-58181971D01*
X126037215Y-58181968D01*
X126037219Y-58181966D01*
X126181966Y-58037219D01*
X126181968Y-58037215D01*
X126181971Y-58037213D01*
X126244164Y-57951610D01*
X126302287Y-57871610D01*
X126395220Y-57689219D01*
X126458477Y-57494534D01*
X126490500Y-57292352D01*
X126490500Y-57087648D01*
X126458477Y-56885466D01*
X126395220Y-56690781D01*
X126395218Y-56690778D01*
X126395218Y-56690776D01*
X126343047Y-56588386D01*
X126302287Y-56508390D01*
X126240093Y-56422786D01*
X126181971Y-56342786D01*
X126037213Y-56198028D01*
X125871614Y-56077715D01*
X125859310Y-56071446D01*
X125778917Y-56030483D01*
X125728123Y-55982511D01*
X125711328Y-55914690D01*
X125733865Y-55848555D01*
X125778917Y-55809516D01*
X125871610Y-55762287D01*
X125927108Y-55721966D01*
X126037213Y-55641971D01*
X126037215Y-55641968D01*
X126037219Y-55641966D01*
X126181966Y-55497219D01*
X126181968Y-55497215D01*
X126181971Y-55497213D01*
X126265960Y-55381610D01*
X126302287Y-55331610D01*
X126395220Y-55149219D01*
X126458477Y-54954534D01*
X126490500Y-54752352D01*
X126490500Y-54547648D01*
X126458477Y-54345466D01*
X126395220Y-54150781D01*
X126395218Y-54150778D01*
X126395218Y-54150776D01*
X126327761Y-54018386D01*
X126302287Y-53968390D01*
X126240093Y-53882786D01*
X126181971Y-53802786D01*
X126037213Y-53658028D01*
X125871614Y-53537715D01*
X125859310Y-53531446D01*
X125778917Y-53490483D01*
X125728123Y-53442511D01*
X125711328Y-53374690D01*
X125733865Y-53308555D01*
X125778917Y-53269516D01*
X125871610Y-53222287D01*
X125927108Y-53181966D01*
X126037213Y-53101971D01*
X126037215Y-53101968D01*
X126037219Y-53101966D01*
X126181966Y-52957219D01*
X126181968Y-52957215D01*
X126181971Y-52957213D01*
X126265960Y-52841610D01*
X126302287Y-52791610D01*
X126395220Y-52609219D01*
X126458477Y-52414534D01*
X126490500Y-52212352D01*
X126490500Y-52007648D01*
X126458477Y-51805466D01*
X126452223Y-51786219D01*
X126425367Y-51703565D01*
X126395220Y-51610781D01*
X126395218Y-51610778D01*
X126395218Y-51610776D01*
X126327761Y-51478386D01*
X126302287Y-51428390D01*
X126240093Y-51342786D01*
X126181971Y-51262786D01*
X126037213Y-51118028D01*
X125871614Y-50997715D01*
X125859310Y-50991446D01*
X125778917Y-50950483D01*
X125728123Y-50902511D01*
X125711328Y-50834690D01*
X125733865Y-50768555D01*
X125778917Y-50729516D01*
X125871610Y-50682287D01*
X125967315Y-50612754D01*
X126037213Y-50561971D01*
X126037215Y-50561968D01*
X126037219Y-50561966D01*
X126181966Y-50417219D01*
X126181968Y-50417215D01*
X126181971Y-50417213D01*
X126234732Y-50344590D01*
X126302287Y-50251610D01*
X126395220Y-50069219D01*
X126458477Y-49874534D01*
X126490500Y-49672352D01*
X126490500Y-49467648D01*
X126458477Y-49265466D01*
X126395220Y-49070781D01*
X126395218Y-49070778D01*
X126395218Y-49070776D01*
X126327763Y-48938390D01*
X126302287Y-48888390D01*
X126240093Y-48802786D01*
X126181971Y-48722786D01*
X126037213Y-48578028D01*
X125871614Y-48457715D01*
X125859310Y-48451446D01*
X125778917Y-48410483D01*
X125728123Y-48362511D01*
X125711328Y-48294690D01*
X125733865Y-48228555D01*
X125778917Y-48189516D01*
X125871610Y-48142287D01*
X125927108Y-48101966D01*
X126037213Y-48021971D01*
X126037215Y-48021968D01*
X126037219Y-48021966D01*
X126181966Y-47877219D01*
X126181968Y-47877215D01*
X126181971Y-47877213D01*
X126244164Y-47791610D01*
X126302287Y-47711610D01*
X126395220Y-47529219D01*
X126458477Y-47334534D01*
X126490500Y-47132352D01*
X126490500Y-46927648D01*
X126458477Y-46725466D01*
X126395220Y-46530781D01*
X126395218Y-46530778D01*
X126395218Y-46530776D01*
X126343047Y-46428386D01*
X126302287Y-46348390D01*
X126240093Y-46262786D01*
X126181971Y-46182786D01*
X126037213Y-46038028D01*
X125871614Y-45917715D01*
X125859310Y-45911446D01*
X125778917Y-45870483D01*
X125728123Y-45822511D01*
X125711328Y-45754690D01*
X125733865Y-45688555D01*
X125778917Y-45649516D01*
X125871610Y-45602287D01*
X125927108Y-45561966D01*
X126037213Y-45481971D01*
X126037215Y-45481968D01*
X126037219Y-45481966D01*
X126181966Y-45337219D01*
X126181968Y-45337215D01*
X126181971Y-45337213D01*
X126244164Y-45251610D01*
X126302287Y-45171610D01*
X126395220Y-44989219D01*
X126458477Y-44794534D01*
X126490500Y-44592352D01*
X126490500Y-44387648D01*
X126458477Y-44185466D01*
X126452223Y-44166219D01*
X126425367Y-44083565D01*
X126395220Y-43990781D01*
X126395218Y-43990778D01*
X126395218Y-43990776D01*
X126343047Y-43888386D01*
X126302287Y-43808390D01*
X126249909Y-43736297D01*
X126181971Y-43642786D01*
X126037213Y-43498028D01*
X125871614Y-43377715D01*
X125859310Y-43371446D01*
X125778917Y-43330483D01*
X125728123Y-43282511D01*
X125711328Y-43214690D01*
X125733865Y-43148555D01*
X125778917Y-43109516D01*
X125871610Y-43062287D01*
X125927108Y-43021966D01*
X126037213Y-42941971D01*
X126037215Y-42941968D01*
X126037219Y-42941966D01*
X126181966Y-42797219D01*
X126181968Y-42797215D01*
X126181971Y-42797213D01*
X126244164Y-42711610D01*
X126302287Y-42631610D01*
X126395220Y-42449219D01*
X126458477Y-42254534D01*
X126490500Y-42052352D01*
X126490500Y-41847648D01*
X126458477Y-41645466D01*
X126452286Y-41626413D01*
X126429127Y-41555137D01*
X126395220Y-41450781D01*
X126395218Y-41450778D01*
X126395218Y-41450776D01*
X126309747Y-41283032D01*
X126302287Y-41268390D01*
X126288442Y-41249334D01*
X126181971Y-41102786D01*
X126037213Y-40958028D01*
X125871613Y-40837715D01*
X125871612Y-40837714D01*
X125871610Y-40837713D01*
X125814653Y-40808691D01*
X125689223Y-40744781D01*
X125494534Y-40681522D01*
X125319995Y-40653878D01*
X125292352Y-40649500D01*
X123687648Y-40649500D01*
X123663329Y-40653351D01*
X123485465Y-40681522D01*
X123290776Y-40744781D01*
X123108386Y-40837715D01*
X122942786Y-40958028D01*
X122798030Y-41102784D01*
X122779432Y-41128384D01*
X122724102Y-41171051D01*
X122679113Y-41179500D01*
X119030047Y-41179500D01*
X118963008Y-41159815D01*
X118942366Y-41143181D01*
X118837213Y-41038028D01*
X118671613Y-40917715D01*
X118671612Y-40917714D01*
X118671610Y-40917713D01*
X118614653Y-40888691D01*
X118489223Y-40824781D01*
X118294534Y-40761522D01*
X118119995Y-40733878D01*
X118092352Y-40729500D01*
X116487648Y-40729500D01*
X116463329Y-40733351D01*
X116285465Y-40761522D01*
X116090776Y-40824781D01*
X115908386Y-40917715D01*
X115742786Y-41038028D01*
X115598028Y-41182786D01*
X115477715Y-41348386D01*
X115384781Y-41530776D01*
X115321522Y-41725465D01*
X115289500Y-41927648D01*
X115289500Y-42132351D01*
X115321522Y-42334534D01*
X115384781Y-42529223D01*
X115389271Y-42538034D01*
X115463026Y-42682786D01*
X115477715Y-42711613D01*
X115598028Y-42877213D01*
X115742786Y-43021971D01*
X115897749Y-43134556D01*
X115908390Y-43142287D01*
X115999840Y-43188883D01*
X116001080Y-43189515D01*
X116051876Y-43237490D01*
X116068671Y-43305311D01*
X116046134Y-43371446D01*
X116001080Y-43410485D01*
X115908386Y-43457715D01*
X115742786Y-43578028D01*
X115598028Y-43722786D01*
X115477715Y-43888386D01*
X115384781Y-44070776D01*
X115321522Y-44265465D01*
X115289500Y-44467648D01*
X115289500Y-44672351D01*
X115321522Y-44874534D01*
X115384781Y-45069223D01*
X115477715Y-45251613D01*
X115598028Y-45417213D01*
X115742786Y-45561971D01*
X115897749Y-45674556D01*
X115908390Y-45682287D01*
X115999840Y-45728883D01*
X116001080Y-45729515D01*
X116051876Y-45777490D01*
X116068671Y-45845311D01*
X116046134Y-45911446D01*
X116001080Y-45950485D01*
X115908386Y-45997715D01*
X115742786Y-46118028D01*
X115598028Y-46262786D01*
X115477715Y-46428386D01*
X115384781Y-46610776D01*
X115321522Y-46805465D01*
X115289500Y-47007648D01*
X115289500Y-47212351D01*
X115321522Y-47414534D01*
X115384781Y-47609223D01*
X115477715Y-47791613D01*
X115598028Y-47957213D01*
X115742786Y-48101971D01*
X115897749Y-48214556D01*
X115908390Y-48222287D01*
X115966307Y-48251797D01*
X116001080Y-48269515D01*
X116051876Y-48317490D01*
X116068671Y-48385311D01*
X116046134Y-48451446D01*
X116001080Y-48490485D01*
X115908386Y-48537715D01*
X115742786Y-48658028D01*
X115598028Y-48802786D01*
X115477715Y-48968386D01*
X115384781Y-49150776D01*
X115321522Y-49345465D01*
X115289500Y-49547648D01*
X115289500Y-49752351D01*
X115321522Y-49954534D01*
X115384781Y-50149223D01*
X115436951Y-50251610D01*
X115463026Y-50302786D01*
X115477715Y-50331613D01*
X115598028Y-50497213D01*
X115742786Y-50641971D01*
X115867094Y-50732284D01*
X115908390Y-50762287D01*
X115991071Y-50804415D01*
X116001080Y-50809515D01*
X116051876Y-50857490D01*
X116068671Y-50925311D01*
X116046134Y-50991446D01*
X116001080Y-51030485D01*
X115908386Y-51077715D01*
X115742786Y-51198028D01*
X115598028Y-51342786D01*
X115477715Y-51508386D01*
X115384781Y-51690776D01*
X115321522Y-51885465D01*
X115289500Y-52087648D01*
X115289500Y-52292351D01*
X115321522Y-52494534D01*
X115384781Y-52689223D01*
X115477715Y-52871613D01*
X115598028Y-53037213D01*
X115742786Y-53181971D01*
X115865942Y-53271447D01*
X115908390Y-53302287D01*
X115999840Y-53348883D01*
X116001080Y-53349515D01*
X116051876Y-53397490D01*
X116068671Y-53465311D01*
X116046134Y-53531446D01*
X116001080Y-53570485D01*
X115908386Y-53617715D01*
X115742786Y-53738028D01*
X115598028Y-53882786D01*
X115477715Y-54048386D01*
X115384781Y-54230776D01*
X115321522Y-54425465D01*
X115289500Y-54627648D01*
X115289500Y-54832351D01*
X115321522Y-55034534D01*
X115384781Y-55229223D01*
X115477715Y-55411613D01*
X115598028Y-55577213D01*
X115742786Y-55721971D01*
X115865942Y-55811447D01*
X115908390Y-55842287D01*
X115999840Y-55888883D01*
X116001080Y-55889515D01*
X116051876Y-55937490D01*
X116068671Y-56005311D01*
X116046134Y-56071446D01*
X116001080Y-56110485D01*
X115908386Y-56157715D01*
X115742786Y-56278028D01*
X115598028Y-56422786D01*
X115477715Y-56588386D01*
X115384781Y-56770776D01*
X115321522Y-56965465D01*
X115289500Y-57167648D01*
X115289500Y-57372351D01*
X115321522Y-57574534D01*
X115384781Y-57769223D01*
X115436951Y-57871610D01*
X115457332Y-57911611D01*
X115477715Y-57951613D01*
X115598028Y-58117213D01*
X115742786Y-58261971D01*
X115865942Y-58351447D01*
X115908390Y-58382287D01*
X115999840Y-58428883D01*
X116001080Y-58429515D01*
X116051876Y-58477490D01*
X116068671Y-58545311D01*
X116046134Y-58611446D01*
X116001080Y-58650485D01*
X115908386Y-58697715D01*
X115742786Y-58818028D01*
X115598028Y-58962786D01*
X115477715Y-59128386D01*
X115384781Y-59310776D01*
X115321522Y-59505465D01*
X115289500Y-59707648D01*
X115289500Y-59912351D01*
X115321522Y-60114534D01*
X115384781Y-60309223D01*
X115436951Y-60411610D01*
X115475150Y-60486580D01*
X115477715Y-60491613D01*
X115598028Y-60657213D01*
X115742786Y-60801971D01*
X115897749Y-60914556D01*
X115908390Y-60922287D01*
X115985393Y-60961522D01*
X116001080Y-60969515D01*
X116051876Y-61017490D01*
X116068671Y-61085311D01*
X116046134Y-61151446D01*
X116001080Y-61190485D01*
X115908386Y-61237715D01*
X115742786Y-61358028D01*
X115598028Y-61502786D01*
X115477715Y-61668386D01*
X115384781Y-61850776D01*
X115321522Y-62045465D01*
X115289500Y-62247648D01*
X115289500Y-62452351D01*
X115321522Y-62654534D01*
X115384781Y-62849223D01*
X115477715Y-63031613D01*
X115598028Y-63197213D01*
X115742786Y-63341971D01*
X115871132Y-63435218D01*
X115908390Y-63462287D01*
X115979417Y-63498477D01*
X116001080Y-63509515D01*
X116051876Y-63557490D01*
X116068671Y-63625311D01*
X116046134Y-63691446D01*
X116001080Y-63730485D01*
X115908386Y-63777715D01*
X115742786Y-63898028D01*
X115598028Y-64042786D01*
X115477715Y-64208386D01*
X115384781Y-64390776D01*
X115321522Y-64585465D01*
X115289500Y-64787648D01*
X115289500Y-64992351D01*
X115321522Y-65194534D01*
X115384781Y-65389223D01*
X115477715Y-65571613D01*
X115598028Y-65737213D01*
X115742786Y-65881971D01*
X115897749Y-65994556D01*
X115908390Y-66002287D01*
X116024607Y-66061503D01*
X116090776Y-66095218D01*
X116090778Y-66095218D01*
X116090781Y-66095220D01*
X116154642Y-66115969D01*
X116212316Y-66155407D01*
X116239514Y-66219766D01*
X116227599Y-66288612D01*
X116180355Y-66340088D01*
X116116322Y-66357900D01*
X112392051Y-66357900D01*
X112325012Y-66338215D01*
X112304370Y-66321581D01*
X111570331Y-65587542D01*
X111536846Y-65526219D01*
X111541830Y-65456527D01*
X111547522Y-65443577D01*
X111575220Y-65389219D01*
X111638477Y-65194534D01*
X111670500Y-64992352D01*
X111670500Y-64787648D01*
X111638477Y-64585466D01*
X111575220Y-64390781D01*
X111575218Y-64390778D01*
X111575218Y-64390776D01*
X111541503Y-64324607D01*
X111482287Y-64208390D01*
X111474556Y-64197749D01*
X111361971Y-64042786D01*
X111217213Y-63898028D01*
X111051614Y-63777715D01*
X111014911Y-63759014D01*
X110958917Y-63730483D01*
X110908123Y-63682511D01*
X110891328Y-63614690D01*
X110913865Y-63548555D01*
X110958917Y-63509516D01*
X111051610Y-63462287D01*
X111088868Y-63435218D01*
X111217213Y-63341971D01*
X111217215Y-63341968D01*
X111217219Y-63341966D01*
X111361966Y-63197219D01*
X111361968Y-63197215D01*
X111361971Y-63197213D01*
X111449150Y-63077219D01*
X111482287Y-63031610D01*
X111575220Y-62849219D01*
X111638477Y-62654534D01*
X111670500Y-62452352D01*
X111670500Y-62247648D01*
X111651494Y-62127648D01*
X111638477Y-62045465D01*
X111609127Y-61955137D01*
X111575220Y-61850781D01*
X111575218Y-61850778D01*
X111575218Y-61850776D01*
X111534455Y-61770776D01*
X111482287Y-61668390D01*
X111470096Y-61651610D01*
X111361971Y-61502786D01*
X111217213Y-61358028D01*
X111051614Y-61237715D01*
X111045006Y-61234348D01*
X110958917Y-61190483D01*
X110908123Y-61142511D01*
X110891328Y-61074690D01*
X110913865Y-61008555D01*
X110958917Y-60969516D01*
X111051610Y-60922287D01*
X111077697Y-60903334D01*
X111217213Y-60801971D01*
X111217215Y-60801968D01*
X111217219Y-60801966D01*
X111361966Y-60657219D01*
X111361968Y-60657215D01*
X111361971Y-60657213D01*
X111432261Y-60560465D01*
X111482287Y-60491610D01*
X111575220Y-60309219D01*
X111638477Y-60114534D01*
X111670500Y-59912352D01*
X111670500Y-59707648D01*
X111638477Y-59505466D01*
X111575220Y-59310781D01*
X111575218Y-59310778D01*
X111575218Y-59310776D01*
X111515539Y-59193651D01*
X111482287Y-59128390D01*
X111465998Y-59105970D01*
X111361971Y-58962786D01*
X111217213Y-58818028D01*
X111051614Y-58697715D01*
X111012693Y-58677884D01*
X110958917Y-58650483D01*
X110908123Y-58602511D01*
X110891328Y-58534690D01*
X110913865Y-58468555D01*
X110958917Y-58429516D01*
X111051610Y-58382287D01*
X111106670Y-58342284D01*
X111217213Y-58261971D01*
X111217215Y-58261968D01*
X111217219Y-58261966D01*
X111361966Y-58117219D01*
X111361968Y-58117215D01*
X111361971Y-58117213D01*
X111420093Y-58037213D01*
X111482287Y-57951610D01*
X111575220Y-57769219D01*
X111638477Y-57574534D01*
X111670500Y-57372352D01*
X111670500Y-57167648D01*
X111638477Y-56965466D01*
X111575220Y-56770781D01*
X111575218Y-56770778D01*
X111575218Y-56770776D01*
X111534455Y-56690776D01*
X111482287Y-56588390D01*
X111474556Y-56577749D01*
X111361971Y-56422786D01*
X111217213Y-56278028D01*
X111051614Y-56157715D01*
X110997628Y-56130208D01*
X110958917Y-56110483D01*
X110908123Y-56062511D01*
X110891328Y-55994690D01*
X110913865Y-55928555D01*
X110958917Y-55889516D01*
X111051610Y-55842287D01*
X111106356Y-55802512D01*
X111217213Y-55721971D01*
X111217215Y-55721968D01*
X111217219Y-55721966D01*
X111361966Y-55577219D01*
X111361968Y-55577215D01*
X111361971Y-55577213D01*
X111420093Y-55497213D01*
X111482287Y-55411610D01*
X111575220Y-55229219D01*
X111638477Y-55034534D01*
X111670500Y-54832352D01*
X111670500Y-54627648D01*
X111638477Y-54425466D01*
X111628729Y-54395466D01*
X111575218Y-54230776D01*
X111534455Y-54150776D01*
X111482287Y-54048390D01*
X111460488Y-54018386D01*
X111361971Y-53882786D01*
X111217213Y-53738028D01*
X111051614Y-53617715D01*
X110997628Y-53590208D01*
X110958917Y-53570483D01*
X110908123Y-53522511D01*
X110891328Y-53454690D01*
X110913865Y-53388555D01*
X110958917Y-53349516D01*
X111051610Y-53302287D01*
X111106356Y-53262512D01*
X111217213Y-53181971D01*
X111217215Y-53181968D01*
X111217219Y-53181966D01*
X111361966Y-53037219D01*
X111361968Y-53037215D01*
X111361971Y-53037213D01*
X111420093Y-52957213D01*
X111482287Y-52871610D01*
X111575220Y-52689219D01*
X111638477Y-52494534D01*
X111670500Y-52292352D01*
X111670500Y-52087648D01*
X111638477Y-51885466D01*
X111628729Y-51855466D01*
X111583585Y-51716527D01*
X111575220Y-51690781D01*
X111575218Y-51690778D01*
X111575218Y-51690776D01*
X111534455Y-51610776D01*
X111482287Y-51508390D01*
X111443159Y-51454534D01*
X111361971Y-51342786D01*
X111217213Y-51198028D01*
X111051614Y-51077715D01*
X110997628Y-51050208D01*
X110958917Y-51030483D01*
X110908123Y-50982511D01*
X110891328Y-50914690D01*
X110913865Y-50848555D01*
X110958917Y-50809516D01*
X111051610Y-50762287D01*
X111096717Y-50729515D01*
X111217213Y-50641971D01*
X111217215Y-50641968D01*
X111217219Y-50641966D01*
X111361966Y-50497219D01*
X111361968Y-50497215D01*
X111361971Y-50497213D01*
X111476645Y-50339375D01*
X111482287Y-50331610D01*
X111575220Y-50149219D01*
X111638477Y-49954534D01*
X111670500Y-49752352D01*
X111670500Y-49547648D01*
X111638477Y-49345466D01*
X111628729Y-49315466D01*
X111575218Y-49150776D01*
X111507468Y-49017811D01*
X111482287Y-48968390D01*
X111460491Y-48938390D01*
X111361971Y-48802786D01*
X111217213Y-48658028D01*
X111051614Y-48537715D01*
X111045006Y-48534348D01*
X110958917Y-48490483D01*
X110908123Y-48442511D01*
X110891328Y-48374690D01*
X110913865Y-48308555D01*
X110958917Y-48269516D01*
X111051610Y-48222287D01*
X111096717Y-48189515D01*
X111217213Y-48101971D01*
X111217215Y-48101968D01*
X111217219Y-48101966D01*
X111361966Y-47957219D01*
X111361968Y-47957215D01*
X111361971Y-47957213D01*
X111427316Y-47867272D01*
X111482287Y-47791610D01*
X111575220Y-47609219D01*
X111638477Y-47414534D01*
X111670500Y-47212352D01*
X111670500Y-47007648D01*
X111638477Y-46805466D01*
X111575220Y-46610781D01*
X111575218Y-46610778D01*
X111575218Y-46610776D01*
X111526538Y-46515237D01*
X111482287Y-46428390D01*
X111474556Y-46417749D01*
X111361971Y-46262786D01*
X111217213Y-46118028D01*
X111051614Y-45997715D01*
X111045006Y-45994348D01*
X110958917Y-45950483D01*
X110908123Y-45902511D01*
X110891328Y-45834690D01*
X110913865Y-45768555D01*
X110958917Y-45729516D01*
X111051610Y-45682287D01*
X111096717Y-45649515D01*
X111217213Y-45561971D01*
X111217215Y-45561968D01*
X111217219Y-45561966D01*
X111361966Y-45417219D01*
X111361968Y-45417215D01*
X111361971Y-45417213D01*
X111427316Y-45327272D01*
X111482287Y-45251610D01*
X111575220Y-45069219D01*
X111638477Y-44874534D01*
X111670500Y-44672352D01*
X111670500Y-44467648D01*
X111638477Y-44265466D01*
X111575220Y-44070781D01*
X111575218Y-44070778D01*
X111575218Y-44070776D01*
X111526538Y-43975237D01*
X111482287Y-43888390D01*
X111443159Y-43834534D01*
X111361971Y-43722786D01*
X111217213Y-43578028D01*
X111051614Y-43457715D01*
X110992604Y-43427648D01*
X110958917Y-43410483D01*
X110908123Y-43362511D01*
X110891328Y-43294690D01*
X110913865Y-43228555D01*
X110958917Y-43189516D01*
X111051610Y-43142287D01*
X111096717Y-43109515D01*
X111217213Y-43021971D01*
X111217215Y-43021968D01*
X111217219Y-43021966D01*
X111361966Y-42877219D01*
X111361968Y-42877215D01*
X111361971Y-42877213D01*
X111427316Y-42787272D01*
X111482287Y-42711610D01*
X111575220Y-42529219D01*
X111638477Y-42334534D01*
X111670500Y-42132352D01*
X111670500Y-41927648D01*
X111638477Y-41725466D01*
X111575220Y-41530781D01*
X111575218Y-41530778D01*
X111575218Y-41530776D01*
X111534455Y-41450776D01*
X111482287Y-41348390D01*
X111474556Y-41337749D01*
X111361971Y-41182786D01*
X111217213Y-41038028D01*
X111051613Y-40917715D01*
X111051612Y-40917714D01*
X111051610Y-40917713D01*
X110994653Y-40888691D01*
X110869223Y-40824781D01*
X110674534Y-40761522D01*
X110499995Y-40733878D01*
X110472352Y-40729500D01*
X108867648Y-40729500D01*
X108843329Y-40733351D01*
X108665465Y-40761522D01*
X108470776Y-40824781D01*
X108288386Y-40917715D01*
X108122786Y-41038028D01*
X107978028Y-41182786D01*
X107857715Y-41348386D01*
X107764781Y-41530776D01*
X107701522Y-41725465D01*
X107669500Y-41927648D01*
X105270500Y-41927648D01*
X105270500Y-37593100D01*
X105290185Y-37526061D01*
X105342989Y-37480306D01*
X105394500Y-37469100D01*
X162144562Y-37469100D01*
X162211601Y-37488785D01*
G37*
%TD.AperFunction*%
%TA.AperFunction,NonConductor*%
G36*
X140994792Y-39808385D02*
G01*
X141040547Y-39861189D01*
X141050491Y-39930347D01*
X141021466Y-39993903D01*
X141015434Y-40000381D01*
X140918232Y-40097582D01*
X140918228Y-40097586D01*
X140797915Y-40263186D01*
X140704981Y-40445576D01*
X140641722Y-40640265D01*
X140609700Y-40842448D01*
X140609700Y-41046686D01*
X140590015Y-41113725D01*
X140537211Y-41159480D01*
X140468053Y-41169424D01*
X140438250Y-41161248D01*
X140413418Y-41150963D01*
X140413417Y-41150962D01*
X140368086Y-41132185D01*
X140368074Y-41132182D01*
X140203771Y-41099500D01*
X140203767Y-41099500D01*
X133850047Y-41099500D01*
X133783008Y-41079815D01*
X133762366Y-41063181D01*
X133657213Y-40958028D01*
X133491613Y-40837715D01*
X133491612Y-40837714D01*
X133491610Y-40837713D01*
X133434653Y-40808691D01*
X133309223Y-40744781D01*
X133114534Y-40681522D01*
X132939995Y-40653878D01*
X132912352Y-40649500D01*
X132912351Y-40649500D01*
X132251851Y-40649500D01*
X132184812Y-40629815D01*
X132139057Y-40577011D01*
X132129113Y-40507853D01*
X132158138Y-40444297D01*
X132164170Y-40437819D01*
X132776970Y-39825019D01*
X132838293Y-39791534D01*
X132864651Y-39788700D01*
X140927753Y-39788700D01*
X140994792Y-39808385D01*
G37*
%TD.AperFunction*%
%TA.AperFunction,NonConductor*%
G36*
X130341014Y-42770425D02*
G01*
X130354347Y-42768509D01*
X130374490Y-42777708D01*
X130396127Y-42782415D01*
X130413852Y-42795683D01*
X130417903Y-42797534D01*
X130424381Y-42803566D01*
X130562786Y-42941971D01*
X130672899Y-43021971D01*
X130728390Y-43062287D01*
X130819840Y-43108883D01*
X130821080Y-43109515D01*
X130871876Y-43157490D01*
X130888671Y-43225311D01*
X130866134Y-43291446D01*
X130821080Y-43330485D01*
X130728386Y-43377715D01*
X130562786Y-43498028D01*
X130562782Y-43498032D01*
X130424381Y-43636434D01*
X130363058Y-43669919D01*
X130293366Y-43664935D01*
X130237433Y-43623063D01*
X130213016Y-43557599D01*
X130212700Y-43548753D01*
X130212700Y-42891247D01*
X130218938Y-42870001D01*
X130220518Y-42847913D01*
X130228590Y-42837129D01*
X130232385Y-42824208D01*
X130249118Y-42809708D01*
X130262390Y-42791980D01*
X130275010Y-42787272D01*
X130285189Y-42778453D01*
X130307106Y-42775301D01*
X130327854Y-42767563D01*
X130341014Y-42770425D01*
G37*
%TD.AperFunction*%
%TA.AperFunction,NonConductor*%
G36*
X122896992Y-42900185D02*
G01*
X122917634Y-42916819D01*
X122942786Y-42941971D01*
X123052899Y-43021971D01*
X123108390Y-43062287D01*
X123199840Y-43108883D01*
X123201080Y-43109515D01*
X123251876Y-43157490D01*
X123268671Y-43225311D01*
X123246134Y-43291446D01*
X123201080Y-43330485D01*
X123108386Y-43377715D01*
X122942786Y-43498028D01*
X122798030Y-43642784D01*
X122779432Y-43668384D01*
X122724102Y-43711051D01*
X122679113Y-43719500D01*
X119030047Y-43719500D01*
X118963008Y-43699815D01*
X118942366Y-43683181D01*
X118837213Y-43578028D01*
X118671614Y-43457715D01*
X118612604Y-43427648D01*
X118578917Y-43410483D01*
X118528123Y-43362511D01*
X118511328Y-43294690D01*
X118533865Y-43228555D01*
X118578917Y-43189516D01*
X118671610Y-43142287D01*
X118716717Y-43109515D01*
X118837213Y-43021971D01*
X118837215Y-43021968D01*
X118837219Y-43021966D01*
X118942366Y-42916819D01*
X119003689Y-42883334D01*
X119030047Y-42880500D01*
X122829953Y-42880500D01*
X122896992Y-42900185D01*
G37*
%TD.AperFunction*%
%TA.AperFunction,NonConductor*%
G36*
X130341014Y-45310425D02*
G01*
X130354347Y-45308509D01*
X130374490Y-45317708D01*
X130396127Y-45322415D01*
X130413852Y-45335683D01*
X130417903Y-45337534D01*
X130424381Y-45343566D01*
X130562786Y-45481971D01*
X130672899Y-45561971D01*
X130728390Y-45602287D01*
X130819840Y-45648883D01*
X130821080Y-45649515D01*
X130871876Y-45697490D01*
X130888671Y-45765311D01*
X130866134Y-45831446D01*
X130821080Y-45870485D01*
X130728386Y-45917715D01*
X130562786Y-46038028D01*
X130562782Y-46038032D01*
X130424381Y-46176434D01*
X130363058Y-46209919D01*
X130293366Y-46204935D01*
X130237433Y-46163063D01*
X130213016Y-46097599D01*
X130212700Y-46088753D01*
X130212700Y-45431247D01*
X130218938Y-45410001D01*
X130220518Y-45387913D01*
X130228590Y-45377129D01*
X130232385Y-45364208D01*
X130249118Y-45349708D01*
X130262390Y-45331980D01*
X130275010Y-45327272D01*
X130285189Y-45318453D01*
X130307106Y-45315301D01*
X130327854Y-45307563D01*
X130341014Y-45310425D01*
G37*
%TD.AperFunction*%
%TA.AperFunction,NonConductor*%
G36*
X122896992Y-45440185D02*
G01*
X122917634Y-45456819D01*
X122942786Y-45481971D01*
X123052899Y-45561971D01*
X123108390Y-45602287D01*
X123199840Y-45648883D01*
X123201080Y-45649515D01*
X123251876Y-45697490D01*
X123268671Y-45765311D01*
X123246134Y-45831446D01*
X123201080Y-45870485D01*
X123108386Y-45917715D01*
X122942786Y-46038028D01*
X122798030Y-46182784D01*
X122779432Y-46208384D01*
X122724102Y-46251051D01*
X122679113Y-46259500D01*
X119030047Y-46259500D01*
X118963008Y-46239815D01*
X118942366Y-46223181D01*
X118837213Y-46118028D01*
X118671614Y-45997715D01*
X118665006Y-45994348D01*
X118578917Y-45950483D01*
X118528123Y-45902511D01*
X118511328Y-45834690D01*
X118533865Y-45768555D01*
X118578917Y-45729516D01*
X118671610Y-45682287D01*
X118716717Y-45649515D01*
X118837213Y-45561971D01*
X118837215Y-45561968D01*
X118837219Y-45561966D01*
X118942366Y-45456819D01*
X119003689Y-45423334D01*
X119030047Y-45420500D01*
X122829953Y-45420500D01*
X122896992Y-45440185D01*
G37*
%TD.AperFunction*%
%TA.AperFunction,NonConductor*%
G36*
X139783388Y-42820185D02*
G01*
X139804030Y-42836819D01*
X145157685Y-48190474D01*
X145191170Y-48251797D01*
X145186186Y-48321489D01*
X145144314Y-48377422D01*
X145078850Y-48401839D01*
X145031686Y-48396086D01*
X144894536Y-48351523D01*
X144759746Y-48330174D01*
X144692352Y-48319500D01*
X144692351Y-48319500D01*
X143843651Y-48319500D01*
X143776612Y-48299815D01*
X143755970Y-48283181D01*
X139302165Y-43829375D01*
X139302161Y-43829372D01*
X139162866Y-43736297D01*
X139162863Y-43736296D01*
X139053416Y-43690962D01*
X139053414Y-43690961D01*
X139008086Y-43672185D01*
X139008074Y-43672182D01*
X138843771Y-43639500D01*
X138843767Y-43639500D01*
X133850047Y-43639500D01*
X133783008Y-43619815D01*
X133762366Y-43603181D01*
X133657213Y-43498028D01*
X133491614Y-43377715D01*
X133479310Y-43371446D01*
X133398917Y-43330483D01*
X133348123Y-43282511D01*
X133331328Y-43214690D01*
X133353865Y-43148555D01*
X133398917Y-43109516D01*
X133491610Y-43062287D01*
X133547108Y-43021966D01*
X133657213Y-42941971D01*
X133657215Y-42941968D01*
X133657219Y-42941966D01*
X133762366Y-42836819D01*
X133823689Y-42803334D01*
X133850047Y-42800500D01*
X139716349Y-42800500D01*
X139783388Y-42820185D01*
G37*
%TD.AperFunction*%
%TA.AperFunction,NonConductor*%
G36*
X130341014Y-47850425D02*
G01*
X130354347Y-47848509D01*
X130374490Y-47857708D01*
X130396127Y-47862415D01*
X130413852Y-47875683D01*
X130417903Y-47877534D01*
X130424381Y-47883566D01*
X130562786Y-48021971D01*
X130672899Y-48101971D01*
X130728390Y-48142287D01*
X130819840Y-48188883D01*
X130821080Y-48189515D01*
X130871876Y-48237490D01*
X130888671Y-48305311D01*
X130866134Y-48371446D01*
X130821080Y-48410485D01*
X130728386Y-48457715D01*
X130562786Y-48578028D01*
X130562782Y-48578032D01*
X130424381Y-48716434D01*
X130363058Y-48749919D01*
X130293366Y-48744935D01*
X130237433Y-48703063D01*
X130213016Y-48637599D01*
X130212700Y-48628753D01*
X130212700Y-47971247D01*
X130218938Y-47950001D01*
X130220518Y-47927913D01*
X130228590Y-47917129D01*
X130232385Y-47904208D01*
X130249118Y-47889708D01*
X130262390Y-47871980D01*
X130275010Y-47867272D01*
X130285189Y-47858453D01*
X130307106Y-47855301D01*
X130327854Y-47847563D01*
X130341014Y-47850425D01*
G37*
%TD.AperFunction*%
%TA.AperFunction,NonConductor*%
G36*
X122896992Y-47980185D02*
G01*
X122917634Y-47996819D01*
X122942786Y-48021971D01*
X123052899Y-48101971D01*
X123108390Y-48142287D01*
X123199840Y-48188883D01*
X123201080Y-48189515D01*
X123251876Y-48237490D01*
X123268671Y-48305311D01*
X123246134Y-48371446D01*
X123201080Y-48410485D01*
X123108386Y-48457715D01*
X122942786Y-48578028D01*
X122798030Y-48722784D01*
X122779432Y-48748384D01*
X122724102Y-48791051D01*
X122679113Y-48799500D01*
X119030047Y-48799500D01*
X118963008Y-48779815D01*
X118942366Y-48763181D01*
X118837213Y-48658028D01*
X118671614Y-48537715D01*
X118665006Y-48534348D01*
X118578917Y-48490483D01*
X118528123Y-48442511D01*
X118511328Y-48374690D01*
X118533865Y-48308555D01*
X118578917Y-48269516D01*
X118671610Y-48222287D01*
X118716717Y-48189515D01*
X118837213Y-48101971D01*
X118837215Y-48101968D01*
X118837219Y-48101966D01*
X118942366Y-47996819D01*
X119003689Y-47963334D01*
X119030047Y-47960500D01*
X122829953Y-47960500D01*
X122896992Y-47980185D01*
G37*
%TD.AperFunction*%
%TA.AperFunction,NonConductor*%
G36*
X122896992Y-50520185D02*
G01*
X122917634Y-50536819D01*
X122942786Y-50561971D01*
X123052899Y-50641971D01*
X123108390Y-50682287D01*
X123199840Y-50728883D01*
X123201080Y-50729515D01*
X123251876Y-50777490D01*
X123268671Y-50845311D01*
X123246134Y-50911446D01*
X123201080Y-50950485D01*
X123108386Y-50997715D01*
X122942786Y-51118028D01*
X122798030Y-51262784D01*
X122779432Y-51288384D01*
X122724102Y-51331051D01*
X122679113Y-51339500D01*
X119030047Y-51339500D01*
X118963008Y-51319815D01*
X118942366Y-51303181D01*
X118837213Y-51198028D01*
X118671614Y-51077715D01*
X118617628Y-51050208D01*
X118578917Y-51030483D01*
X118528123Y-50982511D01*
X118511328Y-50914690D01*
X118533865Y-50848555D01*
X118578917Y-50809516D01*
X118671610Y-50762287D01*
X118716717Y-50729515D01*
X118837213Y-50641971D01*
X118837215Y-50641968D01*
X118837219Y-50641966D01*
X118942366Y-50536819D01*
X119003689Y-50503334D01*
X119030047Y-50500500D01*
X122829953Y-50500500D01*
X122896992Y-50520185D01*
G37*
%TD.AperFunction*%
%TA.AperFunction,NonConductor*%
G36*
X145266988Y-39808385D02*
G01*
X145287630Y-39825019D01*
X145709867Y-40247256D01*
X145743352Y-40308579D01*
X145738368Y-40378271D01*
X145732672Y-40391230D01*
X145704978Y-40445583D01*
X145641723Y-40640261D01*
X145641723Y-40640264D01*
X145609700Y-40842448D01*
X145609700Y-41047151D01*
X145641722Y-41249334D01*
X145704981Y-41444023D01*
X145797915Y-41626413D01*
X145918228Y-41792013D01*
X146062986Y-41936771D01*
X146217949Y-42049356D01*
X146228590Y-42057087D01*
X146344807Y-42116303D01*
X146410976Y-42150018D01*
X146410978Y-42150018D01*
X146410981Y-42150020D01*
X146515337Y-42183927D01*
X146605665Y-42213277D01*
X146706757Y-42229288D01*
X146807848Y-42245300D01*
X146807849Y-42245300D01*
X148412551Y-42245300D01*
X148412552Y-42245300D01*
X148614734Y-42213277D01*
X148809419Y-42150020D01*
X148991810Y-42057087D01*
X149084790Y-41989532D01*
X149157413Y-41936771D01*
X149157415Y-41936768D01*
X149157419Y-41936766D01*
X149262566Y-41831619D01*
X149289493Y-41816915D01*
X149315312Y-41800323D01*
X149321512Y-41799431D01*
X149323889Y-41798134D01*
X149350247Y-41795300D01*
X149461149Y-41795300D01*
X149528188Y-41814985D01*
X149548830Y-41831619D01*
X150549667Y-42832456D01*
X150583152Y-42893779D01*
X150578168Y-42963471D01*
X150572472Y-42976430D01*
X150544778Y-43030783D01*
X150481523Y-43225461D01*
X150481523Y-43225464D01*
X150449500Y-43427648D01*
X150449500Y-43632351D01*
X150481522Y-43834534D01*
X150544781Y-44029223D01*
X150579075Y-44096527D01*
X150624391Y-44185465D01*
X150637715Y-44211613D01*
X150758028Y-44377213D01*
X150902786Y-44521971D01*
X151057749Y-44634556D01*
X151068390Y-44642287D01*
X151184607Y-44701503D01*
X151250776Y-44735218D01*
X151250778Y-44735218D01*
X151250781Y-44735220D01*
X151355137Y-44769127D01*
X151445465Y-44798477D01*
X151546557Y-44814488D01*
X151647648Y-44830500D01*
X152496349Y-44830500D01*
X152563388Y-44850185D01*
X152584030Y-44866819D01*
X155508824Y-47791613D01*
X158418964Y-50701752D01*
X158452449Y-50763075D01*
X158447465Y-50832767D01*
X158405593Y-50888700D01*
X158404174Y-50889747D01*
X158390213Y-50899890D01*
X158239890Y-51050213D01*
X158114951Y-51222179D01*
X158018444Y-51411585D01*
X157952753Y-51613760D01*
X157919500Y-51823713D01*
X157919500Y-52036286D01*
X157941954Y-52178059D01*
X157952754Y-52246243D01*
X158007435Y-52414534D01*
X158018444Y-52448414D01*
X158114951Y-52637820D01*
X158239890Y-52809786D01*
X158390213Y-52960109D01*
X158562182Y-53085050D01*
X158570946Y-53089516D01*
X158621742Y-53137491D01*
X158638536Y-53205312D01*
X158615998Y-53271447D01*
X158570946Y-53310484D01*
X158562182Y-53314949D01*
X158390213Y-53439890D01*
X158390209Y-53439894D01*
X158246923Y-53583181D01*
X158185600Y-53616666D01*
X158159242Y-53619500D01*
X156173651Y-53619500D01*
X156106612Y-53599815D01*
X156085970Y-53583181D01*
X154350331Y-51847542D01*
X154316846Y-51786219D01*
X154321830Y-51716527D01*
X154327522Y-51703577D01*
X154355220Y-51649219D01*
X154418477Y-51454534D01*
X154450500Y-51252352D01*
X154450500Y-51047648D01*
X154431667Y-50928745D01*
X154418477Y-50845465D01*
X154372630Y-50704365D01*
X154355220Y-50650781D01*
X154355218Y-50650778D01*
X154355218Y-50650776D01*
X154297153Y-50536819D01*
X154262287Y-50468390D01*
X154238678Y-50435895D01*
X154141971Y-50302786D01*
X153997213Y-50158028D01*
X153831613Y-50037715D01*
X153831612Y-50037714D01*
X153831610Y-50037713D01*
X153774653Y-50008691D01*
X153649223Y-49944781D01*
X153454534Y-49881522D01*
X153279995Y-49853878D01*
X153252352Y-49849500D01*
X151647648Y-49849500D01*
X151623329Y-49853351D01*
X151445465Y-49881522D01*
X151250776Y-49944781D01*
X151068386Y-50037715D01*
X150902786Y-50158028D01*
X150758028Y-50302786D01*
X150637715Y-50468386D01*
X150544781Y-50650776D01*
X150480017Y-50850100D01*
X150478198Y-50849508D01*
X150447453Y-50903056D01*
X150385427Y-50935221D01*
X150315858Y-50928745D01*
X150273988Y-50901199D01*
X141829770Y-42456981D01*
X141796285Y-42395658D01*
X141801269Y-42325966D01*
X141843141Y-42270033D01*
X141908605Y-42245616D01*
X141917451Y-42245300D01*
X143412551Y-42245300D01*
X143412552Y-42245300D01*
X143614734Y-42213277D01*
X143809419Y-42150020D01*
X143991810Y-42057087D01*
X144084790Y-41989532D01*
X144157413Y-41936771D01*
X144157415Y-41936768D01*
X144157419Y-41936766D01*
X144302166Y-41792019D01*
X144302168Y-41792015D01*
X144302171Y-41792013D01*
X144354932Y-41719390D01*
X144422487Y-41626410D01*
X144515420Y-41444019D01*
X144578677Y-41249334D01*
X144610700Y-41047152D01*
X144610700Y-40842448D01*
X144585212Y-40681523D01*
X144578677Y-40640265D01*
X144535653Y-40507853D01*
X144515420Y-40445581D01*
X144515418Y-40445578D01*
X144515418Y-40445576D01*
X144481124Y-40378271D01*
X144422487Y-40263190D01*
X144370109Y-40191097D01*
X144302171Y-40097586D01*
X144204966Y-40000381D01*
X144171481Y-39939058D01*
X144176465Y-39869366D01*
X144218337Y-39813433D01*
X144283801Y-39789016D01*
X144292647Y-39788700D01*
X145199949Y-39788700D01*
X145266988Y-39808385D01*
G37*
%TD.AperFunction*%
%TA.AperFunction,NonConductor*%
G36*
X122896992Y-53060185D02*
G01*
X122917634Y-53076819D01*
X122942786Y-53101971D01*
X123052899Y-53181971D01*
X123108390Y-53222287D01*
X123187336Y-53262512D01*
X123201080Y-53269515D01*
X123251876Y-53317490D01*
X123268671Y-53385311D01*
X123246134Y-53451446D01*
X123201080Y-53490485D01*
X123108386Y-53537715D01*
X122942786Y-53658028D01*
X122798030Y-53802784D01*
X122779432Y-53828384D01*
X122724102Y-53871051D01*
X122679113Y-53879500D01*
X119030047Y-53879500D01*
X118963008Y-53859815D01*
X118942366Y-53843181D01*
X118837213Y-53738028D01*
X118671614Y-53617715D01*
X118617628Y-53590208D01*
X118578917Y-53570483D01*
X118528123Y-53522511D01*
X118511328Y-53454690D01*
X118533865Y-53388555D01*
X118578917Y-53349516D01*
X118671610Y-53302287D01*
X118726356Y-53262512D01*
X118837213Y-53181971D01*
X118837215Y-53181968D01*
X118837219Y-53181966D01*
X118942366Y-53076819D01*
X119003689Y-53043334D01*
X119030047Y-53040500D01*
X122829953Y-53040500D01*
X122896992Y-53060185D01*
G37*
%TD.AperFunction*%
%TA.AperFunction,NonConductor*%
G36*
X134264219Y-52147274D02*
G01*
X134315270Y-52178059D01*
X137855030Y-55717819D01*
X137888515Y-55779142D01*
X137883531Y-55848834D01*
X137841659Y-55904767D01*
X137776195Y-55929184D01*
X137767349Y-55929500D01*
X136997648Y-55929500D01*
X136973329Y-55933351D01*
X136795465Y-55961522D01*
X136600776Y-56024781D01*
X136418386Y-56117715D01*
X136252786Y-56238028D01*
X136252782Y-56238032D01*
X136187634Y-56303181D01*
X136126311Y-56336666D01*
X136099953Y-56339500D01*
X133850047Y-56339500D01*
X133783008Y-56319815D01*
X133762366Y-56303181D01*
X133657213Y-56198028D01*
X133491614Y-56077715D01*
X133479310Y-56071446D01*
X133398917Y-56030483D01*
X133348123Y-55982511D01*
X133331328Y-55914690D01*
X133353865Y-55848555D01*
X133398917Y-55809516D01*
X133491610Y-55762287D01*
X133547108Y-55721966D01*
X133657213Y-55641971D01*
X133657215Y-55641968D01*
X133657219Y-55641966D01*
X133801966Y-55497219D01*
X133801968Y-55497215D01*
X133801971Y-55497213D01*
X133885960Y-55381610D01*
X133922287Y-55331610D01*
X134015220Y-55149219D01*
X134078477Y-54954534D01*
X134110500Y-54752352D01*
X134110500Y-54547648D01*
X134078477Y-54345466D01*
X134015220Y-54150781D01*
X134015218Y-54150778D01*
X134015218Y-54150776D01*
X133947761Y-54018386D01*
X133922287Y-53968390D01*
X133860093Y-53882786D01*
X133801971Y-53802786D01*
X133657213Y-53658028D01*
X133491614Y-53537715D01*
X133479310Y-53531446D01*
X133398917Y-53490483D01*
X133348123Y-53442511D01*
X133331328Y-53374690D01*
X133353865Y-53308555D01*
X133398917Y-53269516D01*
X133491610Y-53222287D01*
X133547108Y-53181966D01*
X133657213Y-53101971D01*
X133657215Y-53101968D01*
X133657219Y-53101966D01*
X133801966Y-52957219D01*
X133801968Y-52957215D01*
X133801971Y-52957213D01*
X133885960Y-52841610D01*
X133922287Y-52791610D01*
X134015220Y-52609219D01*
X134078477Y-52414534D01*
X134105116Y-52246340D01*
X134135045Y-52183207D01*
X134194357Y-52146276D01*
X134264219Y-52147274D01*
G37*
%TD.AperFunction*%
%TA.AperFunction,NonConductor*%
G36*
X122896992Y-55600185D02*
G01*
X122917634Y-55616819D01*
X122942786Y-55641971D01*
X123052899Y-55721971D01*
X123108390Y-55762287D01*
X123187336Y-55802512D01*
X123201080Y-55809515D01*
X123251876Y-55857490D01*
X123268671Y-55925311D01*
X123246134Y-55991446D01*
X123201080Y-56030485D01*
X123108386Y-56077715D01*
X122942786Y-56198028D01*
X122798030Y-56342784D01*
X122779432Y-56368384D01*
X122724102Y-56411051D01*
X122679113Y-56419500D01*
X119030047Y-56419500D01*
X118963008Y-56399815D01*
X118942366Y-56383181D01*
X118837213Y-56278028D01*
X118671614Y-56157715D01*
X118617628Y-56130208D01*
X118578917Y-56110483D01*
X118528123Y-56062511D01*
X118511328Y-55994690D01*
X118533865Y-55928555D01*
X118578917Y-55889516D01*
X118671610Y-55842287D01*
X118726356Y-55802512D01*
X118837213Y-55721971D01*
X118837215Y-55721968D01*
X118837219Y-55721966D01*
X118942366Y-55616819D01*
X119003689Y-55583334D01*
X119030047Y-55580500D01*
X122829953Y-55580500D01*
X122896992Y-55600185D01*
G37*
%TD.AperFunction*%
%TA.AperFunction,NonConductor*%
G36*
X152563388Y-52470185D02*
G01*
X152584030Y-52486819D01*
X155227834Y-55130624D01*
X155227838Y-55130627D01*
X155367137Y-55223704D01*
X155367139Y-55223705D01*
X155367143Y-55223707D01*
X155449222Y-55257703D01*
X155476584Y-55269037D01*
X155521918Y-55287816D01*
X155686228Y-55320499D01*
X155686232Y-55320500D01*
X155686233Y-55320500D01*
X158159242Y-55320500D01*
X158226281Y-55340185D01*
X158246923Y-55356819D01*
X158390213Y-55500109D01*
X158562182Y-55625050D01*
X158570946Y-55629516D01*
X158621742Y-55677491D01*
X158638536Y-55745312D01*
X158615998Y-55811447D01*
X158570946Y-55850484D01*
X158562182Y-55854949D01*
X158390213Y-55979890D01*
X158239890Y-56130213D01*
X158114951Y-56302179D01*
X158018444Y-56491585D01*
X157952753Y-56693760D01*
X157922390Y-56885465D01*
X157919500Y-56903713D01*
X157919500Y-57116287D01*
X157952754Y-57326243D01*
X158007435Y-57494534D01*
X158018444Y-57528414D01*
X158114951Y-57717820D01*
X158239890Y-57889786D01*
X158390213Y-58040109D01*
X158562182Y-58165050D01*
X158570946Y-58169516D01*
X158621742Y-58217491D01*
X158638536Y-58285312D01*
X158615998Y-58351447D01*
X158570946Y-58390484D01*
X158562182Y-58394949D01*
X158390213Y-58519890D01*
X158390209Y-58519894D01*
X158246923Y-58663181D01*
X158219995Y-58677884D01*
X158194177Y-58694477D01*
X158187976Y-58695368D01*
X158185600Y-58696666D01*
X158159242Y-58699500D01*
X158123651Y-58699500D01*
X158056612Y-58679815D01*
X158035970Y-58663181D01*
X152034970Y-52662181D01*
X152001485Y-52600858D01*
X152006469Y-52531166D01*
X152048341Y-52475233D01*
X152113805Y-52450816D01*
X152122651Y-52450500D01*
X152496349Y-52450500D01*
X152563388Y-52470185D01*
G37*
%TD.AperFunction*%
%TA.AperFunction,NonConductor*%
G36*
X122896992Y-58140185D02*
G01*
X122917634Y-58156819D01*
X122942786Y-58181971D01*
X123052899Y-58261971D01*
X123108390Y-58302287D01*
X123187336Y-58342512D01*
X123201080Y-58349515D01*
X123251876Y-58397490D01*
X123268671Y-58465311D01*
X123246134Y-58531446D01*
X123201080Y-58570485D01*
X123108386Y-58617715D01*
X122942786Y-58738028D01*
X122798030Y-58882784D01*
X122779432Y-58908384D01*
X122724102Y-58951051D01*
X122679113Y-58959500D01*
X119030047Y-58959500D01*
X118963008Y-58939815D01*
X118942366Y-58923181D01*
X118837213Y-58818028D01*
X118671614Y-58697715D01*
X118632693Y-58677884D01*
X118578917Y-58650483D01*
X118528123Y-58602511D01*
X118511328Y-58534690D01*
X118533865Y-58468555D01*
X118578917Y-58429516D01*
X118671610Y-58382287D01*
X118726670Y-58342284D01*
X118837213Y-58261971D01*
X118837215Y-58261968D01*
X118837219Y-58261966D01*
X118942366Y-58156819D01*
X119003689Y-58123334D01*
X119030047Y-58120500D01*
X122829953Y-58120500D01*
X122896992Y-58140185D01*
G37*
%TD.AperFunction*%
%TA.AperFunction,NonConductor*%
G36*
X139864081Y-57729438D02*
G01*
X139880317Y-57743106D01*
X141996331Y-59859120D01*
X142029816Y-59920443D01*
X142024832Y-59990135D01*
X141996332Y-60034481D01*
X141908032Y-60122782D01*
X141908028Y-60122786D01*
X141787715Y-60288386D01*
X141694781Y-60470776D01*
X141631522Y-60665465D01*
X141599500Y-60867648D01*
X141599500Y-61072352D01*
X141599499Y-61072352D01*
X141606750Y-61118129D01*
X141597795Y-61187422D01*
X141552798Y-61240874D01*
X141486047Y-61261513D01*
X141418733Y-61242788D01*
X141396596Y-61225207D01*
X138845974Y-58674585D01*
X138812489Y-58613262D01*
X138817473Y-58543570D01*
X138859345Y-58487637D01*
X138895335Y-58468973D01*
X138999219Y-58435220D01*
X139181610Y-58342287D01*
X139274647Y-58274692D01*
X139347213Y-58221971D01*
X139347215Y-58221968D01*
X139347219Y-58221966D01*
X139491966Y-58077219D01*
X139491968Y-58077215D01*
X139491971Y-58077213D01*
X139583223Y-57951613D01*
X139612287Y-57911610D01*
X139682152Y-57774491D01*
X139730125Y-57723697D01*
X139797946Y-57706901D01*
X139864081Y-57729438D01*
G37*
%TD.AperFunction*%
%TA.AperFunction,NonConductor*%
G36*
X122896992Y-60680185D02*
G01*
X122917634Y-60696819D01*
X122942786Y-60721971D01*
X123052899Y-60801971D01*
X123108390Y-60842287D01*
X123199840Y-60888883D01*
X123201080Y-60889515D01*
X123251876Y-60937490D01*
X123268671Y-61005311D01*
X123246134Y-61071446D01*
X123201080Y-61110485D01*
X123108386Y-61157715D01*
X122942786Y-61278028D01*
X122798030Y-61422784D01*
X122779432Y-61448384D01*
X122724102Y-61491051D01*
X122679113Y-61499500D01*
X119030047Y-61499500D01*
X118963008Y-61479815D01*
X118942366Y-61463181D01*
X118837213Y-61358028D01*
X118671614Y-61237715D01*
X118665006Y-61234348D01*
X118578917Y-61190483D01*
X118528123Y-61142511D01*
X118511328Y-61074690D01*
X118533865Y-61008555D01*
X118578917Y-60969516D01*
X118671610Y-60922287D01*
X118697697Y-60903334D01*
X118837213Y-60801971D01*
X118837215Y-60801968D01*
X118837219Y-60801966D01*
X118942366Y-60696819D01*
X119003689Y-60663334D01*
X119030047Y-60660500D01*
X122829953Y-60660500D01*
X122896992Y-60680185D01*
G37*
%TD.AperFunction*%
%TA.AperFunction,NonConductor*%
G36*
X145980113Y-49025775D02*
G01*
X146019525Y-49052314D01*
X157177834Y-60210624D01*
X157177838Y-60210627D01*
X157317132Y-60303701D01*
X157317133Y-60303701D01*
X157317137Y-60303704D01*
X157413859Y-60343767D01*
X157471918Y-60367816D01*
X157605048Y-60394297D01*
X157609061Y-60395380D01*
X157635445Y-60411527D01*
X157662853Y-60425864D01*
X157664983Y-60429605D01*
X157668656Y-60431853D01*
X157682122Y-60459704D01*
X157697427Y-60486580D01*
X157697196Y-60490878D01*
X157699071Y-60494755D01*
X157695343Y-60525463D01*
X157693688Y-60556349D01*
X157691094Y-60560465D01*
X157690651Y-60564116D01*
X157682901Y-60573467D01*
X157664432Y-60602778D01*
X156212830Y-62054381D01*
X156151507Y-62087866D01*
X156125149Y-62090700D01*
X152937847Y-62090700D01*
X152870808Y-62071015D01*
X152825053Y-62018211D01*
X152815109Y-61949053D01*
X152844134Y-61885497D01*
X152850166Y-61879019D01*
X152878409Y-61850776D01*
X152911966Y-61817219D01*
X152911968Y-61817215D01*
X152911971Y-61817213D01*
X152974770Y-61730776D01*
X153032287Y-61651610D01*
X153125220Y-61469219D01*
X153188477Y-61274534D01*
X153220500Y-61072352D01*
X153220500Y-60867648D01*
X153188477Y-60665466D01*
X153187784Y-60663334D01*
X153142987Y-60525463D01*
X153125220Y-60470781D01*
X153125218Y-60470778D01*
X153125218Y-60470776D01*
X153086801Y-60395380D01*
X153032287Y-60288390D01*
X152989300Y-60229223D01*
X152911971Y-60122786D01*
X152767213Y-59978028D01*
X152601613Y-59857715D01*
X152601612Y-59857714D01*
X152601610Y-59857713D01*
X152544653Y-59828691D01*
X152419223Y-59764781D01*
X152224535Y-59701523D01*
X152175101Y-59693693D01*
X152111966Y-59663763D01*
X152075036Y-59604451D01*
X152070500Y-59571220D01*
X152070500Y-58706232D01*
X152070499Y-58706228D01*
X152059411Y-58650485D01*
X152037816Y-58541918D01*
X152004515Y-58461523D01*
X152003884Y-58460000D01*
X151977052Y-58395220D01*
X151973704Y-58387137D01*
X151973702Y-58387135D01*
X151973702Y-58387133D01*
X151880627Y-58247838D01*
X151880624Y-58247834D01*
X145926819Y-52294029D01*
X145893334Y-52232706D01*
X145890500Y-52206348D01*
X145890500Y-52057648D01*
X145858477Y-51855465D01*
X145809121Y-51703565D01*
X145795220Y-51660781D01*
X145795218Y-51660778D01*
X145795218Y-51660776D01*
X145761503Y-51594607D01*
X145702287Y-51478390D01*
X145684955Y-51454534D01*
X145581971Y-51312786D01*
X145437213Y-51168028D01*
X145271614Y-51047715D01*
X145237798Y-51030485D01*
X145178917Y-51000483D01*
X145128123Y-50952511D01*
X145111328Y-50884690D01*
X145133865Y-50818555D01*
X145178917Y-50779516D01*
X145271610Y-50732287D01*
X145345721Y-50678443D01*
X145437213Y-50611971D01*
X145437215Y-50611968D01*
X145437219Y-50611966D01*
X145581966Y-50467219D01*
X145581968Y-50467215D01*
X145581971Y-50467213D01*
X145674850Y-50339374D01*
X145702287Y-50301610D01*
X145795220Y-50119219D01*
X145858477Y-49924534D01*
X145890500Y-49722352D01*
X145890500Y-49517648D01*
X145863229Y-49345466D01*
X145858477Y-49315465D01*
X145842231Y-49265465D01*
X145813912Y-49178311D01*
X145811918Y-49108473D01*
X145847998Y-49048640D01*
X145910699Y-49017811D01*
X145980113Y-49025775D01*
G37*
%TD.AperFunction*%
%TA.AperFunction,NonConductor*%
G36*
X138423388Y-45360185D02*
G01*
X138444030Y-45376819D01*
X141989667Y-48922456D01*
X142023152Y-48983779D01*
X142018168Y-49053471D01*
X142012472Y-49066430D01*
X141984778Y-49120783D01*
X141921523Y-49315461D01*
X141921523Y-49315464D01*
X141889500Y-49517648D01*
X141889500Y-49722351D01*
X141921522Y-49924534D01*
X141984781Y-50119223D01*
X142077715Y-50301613D01*
X142198028Y-50467213D01*
X142342786Y-50611971D01*
X142469953Y-50704361D01*
X142508390Y-50732287D01*
X142568815Y-50763075D01*
X142601080Y-50779515D01*
X142651876Y-50827490D01*
X142668671Y-50895311D01*
X142646134Y-50961446D01*
X142601080Y-51000485D01*
X142508386Y-51047715D01*
X142342786Y-51168028D01*
X142198028Y-51312786D01*
X142077715Y-51478386D01*
X141984781Y-51660776D01*
X141921522Y-51855465D01*
X141889500Y-52057648D01*
X141889500Y-52262351D01*
X141921522Y-52464534D01*
X141984781Y-52659223D01*
X142077715Y-52841613D01*
X142198028Y-53007213D01*
X142342786Y-53151971D01*
X142434279Y-53218443D01*
X142508390Y-53272287D01*
X142579570Y-53308555D01*
X142601080Y-53319515D01*
X142651876Y-53367490D01*
X142668671Y-53435311D01*
X142646134Y-53501446D01*
X142601080Y-53540485D01*
X142508386Y-53587715D01*
X142342786Y-53708028D01*
X142198028Y-53852786D01*
X142077715Y-54018386D01*
X141984781Y-54200776D01*
X141921522Y-54395465D01*
X141897419Y-54547648D01*
X141889500Y-54597648D01*
X141889500Y-54802352D01*
X141892866Y-54823601D01*
X141921522Y-55004534D01*
X141984781Y-55199223D01*
X142020354Y-55269037D01*
X142065081Y-55356819D01*
X142077715Y-55381613D01*
X142198028Y-55547213D01*
X142342786Y-55691971D01*
X142434279Y-55758443D01*
X142508390Y-55812287D01*
X142583356Y-55850484D01*
X142690776Y-55905218D01*
X142690778Y-55905218D01*
X142690781Y-55905220D01*
X142790098Y-55937490D01*
X142885465Y-55968477D01*
X142974072Y-55982511D01*
X143087648Y-56000500D01*
X143087649Y-56000500D01*
X144692351Y-56000500D01*
X144692352Y-56000500D01*
X144894534Y-55968477D01*
X145089219Y-55905220D01*
X145271610Y-55812287D01*
X145378411Y-55734692D01*
X145437213Y-55691971D01*
X145437215Y-55691968D01*
X145437219Y-55691966D01*
X145581966Y-55547219D01*
X145581968Y-55547215D01*
X145581971Y-55547213D01*
X145634732Y-55474590D01*
X145702287Y-55381610D01*
X145795220Y-55199219D01*
X145858477Y-55004534D01*
X145871443Y-54922669D01*
X145901372Y-54859535D01*
X145960683Y-54822603D01*
X146030546Y-54823601D01*
X146081597Y-54854386D01*
X150333181Y-59105970D01*
X150366666Y-59167293D01*
X150369500Y-59193651D01*
X150369500Y-59571220D01*
X150349815Y-59638259D01*
X150297011Y-59684014D01*
X150264899Y-59693693D01*
X150215464Y-59701523D01*
X150020776Y-59764781D01*
X149838386Y-59857715D01*
X149672786Y-59978028D01*
X149528028Y-60122786D01*
X149407715Y-60288386D01*
X149314781Y-60470776D01*
X149251522Y-60665465D01*
X149219500Y-60867648D01*
X149219500Y-61072351D01*
X149251522Y-61274534D01*
X149314781Y-61469223D01*
X149407715Y-61651613D01*
X149528028Y-61817213D01*
X149589834Y-61879019D01*
X149623319Y-61940342D01*
X149618335Y-62010034D01*
X149576463Y-62065967D01*
X149510999Y-62090384D01*
X149502153Y-62090700D01*
X145317847Y-62090700D01*
X145250808Y-62071015D01*
X145205053Y-62018211D01*
X145195109Y-61949053D01*
X145224134Y-61885497D01*
X145230166Y-61879019D01*
X145258409Y-61850776D01*
X145291966Y-61817219D01*
X145291968Y-61817215D01*
X145291971Y-61817213D01*
X145354770Y-61730776D01*
X145412287Y-61651610D01*
X145505220Y-61469219D01*
X145568477Y-61274534D01*
X145600500Y-61072352D01*
X145600500Y-60867648D01*
X145568477Y-60665466D01*
X145567784Y-60663334D01*
X145522987Y-60525463D01*
X145505220Y-60470781D01*
X145505218Y-60470778D01*
X145505218Y-60470776D01*
X145466801Y-60395380D01*
X145412287Y-60288390D01*
X145369300Y-60229223D01*
X145291971Y-60122786D01*
X145147213Y-59978028D01*
X144981613Y-59857715D01*
X144981612Y-59857714D01*
X144981610Y-59857713D01*
X144924653Y-59828691D01*
X144799223Y-59764781D01*
X144604534Y-59701522D01*
X144429995Y-59673878D01*
X144402352Y-59669500D01*
X144402351Y-59669500D01*
X144263651Y-59669500D01*
X144196612Y-59649815D01*
X144175970Y-59633181D01*
X134146819Y-49604030D01*
X134113334Y-49542707D01*
X134110500Y-49516349D01*
X134110500Y-49467648D01*
X134078477Y-49265465D01*
X134049127Y-49175137D01*
X134015220Y-49070781D01*
X134015218Y-49070778D01*
X134015218Y-49070776D01*
X133947763Y-48938390D01*
X133922287Y-48888390D01*
X133860093Y-48802786D01*
X133801971Y-48722786D01*
X133657213Y-48578028D01*
X133491614Y-48457715D01*
X133479310Y-48451446D01*
X133398917Y-48410483D01*
X133348123Y-48362511D01*
X133331328Y-48294690D01*
X133353865Y-48228555D01*
X133398917Y-48189516D01*
X133491610Y-48142287D01*
X133547108Y-48101966D01*
X133657213Y-48021971D01*
X133657215Y-48021968D01*
X133657219Y-48021966D01*
X133801966Y-47877219D01*
X133801968Y-47877215D01*
X133801971Y-47877213D01*
X133864164Y-47791610D01*
X133922287Y-47711610D01*
X134015220Y-47529219D01*
X134078477Y-47334534D01*
X134110500Y-47132352D01*
X134110500Y-46927648D01*
X134078477Y-46725466D01*
X134015220Y-46530781D01*
X134015218Y-46530778D01*
X134015218Y-46530776D01*
X133963047Y-46428386D01*
X133922287Y-46348390D01*
X133860093Y-46262786D01*
X133801971Y-46182786D01*
X133657213Y-46038028D01*
X133491614Y-45917715D01*
X133479310Y-45911446D01*
X133398917Y-45870483D01*
X133348123Y-45822511D01*
X133331328Y-45754690D01*
X133353865Y-45688555D01*
X133398917Y-45649516D01*
X133491610Y-45602287D01*
X133547108Y-45561966D01*
X133657213Y-45481971D01*
X133657215Y-45481968D01*
X133657219Y-45481966D01*
X133762366Y-45376819D01*
X133823689Y-45343334D01*
X133850047Y-45340500D01*
X138356349Y-45340500D01*
X138423388Y-45360185D01*
G37*
%TD.AperFunction*%
M02*
